<?xml version="1.0" encoding="UTF-8"?>
<svg id="Layer_2" data-name="Layer 2" xmlns="http://www.w3.org/2000/svg" xmlns:xlink="http://www.w3.org/1999/xlink" viewBox="0 0 679.43 388.65">
  <defs>
    <style>
      .cls-1 {
        fill: url(#linear-gradient-15);
      }

      .cls-2 {
        fill: url(#linear-gradient-13);
      }

      .cls-3 {
        fill: url(#linear-gradient-28);
      }

      .cls-4 {
        fill: url(#linear-gradient-2);
      }

      .cls-5 {
        fill: url(#linear-gradient-25);
      }

      .cls-6 {
        fill: url(#linear-gradient-10);
      }

      .cls-7 {
        fill: url(#linear-gradient-12);
      }

      .cls-8 {
        fill: url(#linear-gradient-40);
      }

      .cls-9 {
        fill: url(#linear-gradient-27);
      }

      .cls-10 {
        fill: url(#linear-gradient-37);
      }

      .cls-11 {
        fill: url(#linear-gradient-39);
      }

      .cls-12 {
        fill: url(#linear-gradient-26);
      }

      .cls-13 {
        fill: url(#linear-gradient-4);
      }

      .cls-14 {
        fill: url(#linear-gradient-35);
      }

      .cls-15 {
        fill: url(#linear-gradient-30);
      }

      .cls-16 {
        fill: url(#linear-gradient-3);
      }

      .cls-17 {
        fill: url(#linear-gradient-34);
      }

      .cls-18 {
        fill: url(#linear-gradient-5);
      }

      .cls-19 {
        fill: url(#linear-gradient-38);
      }

      .cls-20 {
        fill: url(#linear-gradient-22);
      }

      .cls-21 {
        fill: url(#linear-gradient-24);
      }

      .cls-22 {
        fill: url(#linear-gradient-33);
      }

      .cls-23 {
        fill: url(#linear-gradient-8);
      }

      .cls-24 {
        fill: url(#linear-gradient-14);
      }

      .cls-25 {
        fill: url(#linear-gradient-29);
      }

      .cls-26 {
        fill: url(#linear-gradient-20);
      }

      .cls-27 {
        fill: url(#linear-gradient-17);
      }

      .cls-28 {
        fill: url(#linear-gradient-7);
      }

      .cls-29 {
        fill: url(#linear-gradient-9);
      }

      .cls-30 {
        fill: url(#linear-gradient-11);
      }

      .cls-31 {
        fill: url(#linear-gradient-19);
      }

      .cls-32 {
        fill: url(#linear-gradient-6);
      }

      .cls-33 {
        fill: url(#linear-gradient-36);
      }

      .cls-34 {
        fill: url(#linear-gradient-21);
      }

      .cls-35 {
        fill: url(#linear-gradient-32);
      }

      .cls-36 {
        fill: url(#linear-gradient-16);
      }

      .cls-37 {
        fill: url(#linear-gradient);
      }

      .cls-38 {
        fill: url(#linear-gradient-23);
      }

      .cls-39 {
        fill: url(#linear-gradient-31);
      }

      .cls-40 {
        fill: url(#linear-gradient-18);
      }
    </style>
    <linearGradient id="linear-gradient" x1=".32" y1="229.24" x2="570.76" y2="229.24" gradientUnits="userSpaceOnUse">
      <stop offset="0" stop-color="#066a94"/>
      <stop offset="1" stop-color="#59595c" stop-opacity="0"/>
    </linearGradient>
    <linearGradient id="linear-gradient-2" x1="274.73" y1="175.51" x2="679.69" y2="175.51" xlink:href="#linear-gradient"/>
    <linearGradient id="linear-gradient-3" x1=".32" y1="261.47" x2="413.3" y2="261.47" xlink:href="#linear-gradient"/>
    <linearGradient id="linear-gradient-4" x1="0" y1="252.8" x2="449.61" y2="252.8" xlink:href="#linear-gradient"/>
    <linearGradient id="linear-gradient-5" x1="259.77" y1="107.04" x2="679.79" y2="107.04" xlink:href="#linear-gradient"/>
    <linearGradient id="linear-gradient-6" x1="-.34" y1="158.61" x2="248.86" y2="158.61" xlink:href="#linear-gradient"/>
    <linearGradient id="linear-gradient-7" x1="270.13" y1="101.53" x2="680.11" y2="101.53" xlink:href="#linear-gradient"/>
    <linearGradient id="linear-gradient-8" x1="278.86" y1="97.02" x2="680.11" y2="97.02" xlink:href="#linear-gradient"/>
    <linearGradient id="linear-gradient-9" x1="41.72" y1="322.47" x2="267.76" y2="322.47" xlink:href="#linear-gradient"/>
    <linearGradient id="linear-gradient-10" x1="550.09" y1="115.93" x2="679.77" y2="115.93" xlink:href="#linear-gradient"/>
    <linearGradient id="linear-gradient-11" x1="-.34" y1="65.27" x2="201.63" y2="65.27" xlink:href="#linear-gradient"/>
    <linearGradient id="linear-gradient-12" x1="577.45" y1="328.48" x2="679.45" y2="328.48" xlink:href="#linear-gradient"/>
    <linearGradient id="linear-gradient-13" x1="509.83" y1="46.8" x2="679.77" y2="46.8" xlink:href="#linear-gradient"/>
    <linearGradient id="linear-gradient-14" x1="20" y1="43.95" x2="156.12" y2="43.95" xlink:href="#linear-gradient"/>
    <linearGradient id="linear-gradient-15" x1="516.3" y1="42.59" x2="679.77" y2="42.59" xlink:href="#linear-gradient"/>
    <linearGradient id="linear-gradient-16" x1="-.01" y1="59.67" x2="188.37" y2="59.67" xlink:href="#linear-gradient"/>
    <linearGradient id="linear-gradient-17" x1="-.01" y1="54.94" x2="178.34" y2="54.94" xlink:href="#linear-gradient"/>
    <linearGradient id="linear-gradient-18" x1="-.01" y1="50.32" x2="168.63" y2="50.32" xlink:href="#linear-gradient"/>
    <linearGradient id="linear-gradient-19" x1="40.62" y1="33.93" x2="137.58" y2="33.93" xlink:href="#linear-gradient"/>
    <linearGradient id="linear-gradient-20" x1="523.42" y1="13.84" x2="654.54" y2="13.84" xlink:href="#linear-gradient"/>
    <linearGradient id="linear-gradient-21" x1="-.34" y1="299.29" x2="43.96" y2="299.29" xlink:href="#linear-gradient"/>
    <linearGradient id="linear-gradient-22" x1="291.14" y1="10.04" x2="407.38" y2="10.04" xlink:href="#linear-gradient"/>
    <linearGradient id="linear-gradient-23" x1="188.59" y1="372.59" x2="285.37" y2="372.59" xlink:href="#linear-gradient"/>
    <linearGradient id="linear-gradient-24" x1="633.74" y1="139.05" x2="679.77" y2="139.05" xlink:href="#linear-gradient"/>
    <linearGradient id="linear-gradient-25" x1="410.51" y1="370.5" x2="510.58" y2="370.5" xlink:href="#linear-gradient"/>
    <linearGradient id="linear-gradient-26" x1="-.34" y1="301.17" x2="36.37" y2="301.17" xlink:href="#linear-gradient"/>
    <linearGradient id="linear-gradient-27" x1="443.83" y1="13.29" x2="503.46" y2="13.29" xlink:href="#linear-gradient"/>
    <linearGradient id="linear-gradient-28" x1="-.01" y1="301.01" x2="26.55" y2="301.01" xlink:href="#linear-gradient"/>
    <linearGradient id="linear-gradient-29" x1="299.55" y1="382.44" x2="365.97" y2="382.44" xlink:href="#linear-gradient"/>
    <linearGradient id="linear-gradient-30" x1="213.18" y1="382.27" x2="270.54" y2="382.27" xlink:href="#linear-gradient"/>
    <linearGradient id="linear-gradient-31" x1="654.06" y1="134.72" x2="679.77" y2="134.72" xlink:href="#linear-gradient"/>
    <linearGradient id="linear-gradient-32" x1="434.13" y1="376.99" x2="481.79" y2="376.99" xlink:href="#linear-gradient"/>
    <linearGradient id="linear-gradient-33" x1="-.34" y1="372.29" x2="36.97" y2="372.29" xlink:href="#linear-gradient"/>
    <linearGradient id="linear-gradient-34" x1="544.72" y1="379.29" x2="582.4" y2="379.29" xlink:href="#linear-gradient"/>
    <linearGradient id="linear-gradient-35" x1="668.31" y1="16.2" x2="679.45" y2="16.2" xlink:href="#linear-gradient"/>
    <linearGradient id="linear-gradient-36" x1="-.01" y1="147.77" x2="12.91" y2="147.77" xlink:href="#linear-gradient"/>
    <linearGradient id="linear-gradient-37" x1="-.34" y1="10.71" x2="27.59" y2="10.71" xlink:href="#linear-gradient"/>
    <linearGradient id="linear-gradient-38" x1="-.34" y1="299.71" x2="11.69" y2="299.71" xlink:href="#linear-gradient"/>
    <linearGradient id="linear-gradient-39" x1="381.74" y1="325.39" x2="451.02" y2="325.39" xlink:href="#linear-gradient"/>
    <linearGradient id="linear-gradient-40" x1="295.82" y1="134.27" x2="514.4" y2="134.27" xlink:href="#linear-gradient"/>
  </defs>
  <g id="Layer_1-2" data-name="Layer 1">
    <g>
      <path class="cls-37" d="M532.81,388.61c.79-3.44,1.89-6.81,3.4-10,1.52-3.19,3.45-6.18,5.76-8.85,1.16-1.34,2.44-2.56,3.69-3.79l3.78-3.7c2.51-2.47,5.01-4.96,7.42-7.52,2.42-2.56,4.77-5.18,6.98-7.92,2.19-2.76,4.11-5.71,5.97-8.7.45-.72.59-1.59.6-2.44,0-.86-.16-1.72-.41-2.55-.52-1.65-1.42-3.2-2.84-4.23-2.71-2.23-5.62-4.24-8.73-5.85-6.21-3.25-13.4-4.65-20.36-3.76-3.48.42-6.86,1.49-10.05,2.93-3.18,1.48-6.17,3.35-8.98,5.46-2.83,2.08-5.44,4.44-7.95,6.91-1.27,1.22-2.53,2.46-3.83,3.65-1.29,1.2-2.69,2.35-4.27,3.19-3.14,1.75-6.9,2.24-10.4,1.63-3.55-.56-6.77-2.17-9.97-3.6-3.21-1.47-6.39-2.96-9.69-4.16-1.65-.6-3.32-1.12-5.02-1.53-1.7-.41-3.44-.68-5.18-.92-3.48-.48-6.99-.72-10.49-.58-3.5.15-6.98.72-10.31,1.77-3.34,1.04-6.5,2.62-9.36,4.62-2.93,1.92-5.3,4.53-7.38,7.36-2.09,2.81-3.98,5.81-6.28,8.52-2.25,2.7-4.65,5.42-7.77,7.25-1.54.92-3.26,1.55-5.02,1.89-1.76.34-3.55.47-5.33.43-3.57-.08-7.11-.95-10.37-2.34-6.54-2.66-12.79-6.31-17.86-11.3-2.59-2.42-4.63-5.62-5.23-9.19-.65-3.57.2-7.26,1.81-10.42,1.6-3.19,3.86-6.02,6.47-8.42,2.61-2.42,5.56-4.41,8.58-6.25,6.02-3.7,12.49-6.6,18.11-10.85,2.83-2.08,5.53-4.34,8.1-6.74,1.29-1.19,2.54-2.43,3.77-3.69,1.24-1.24,2.39-2.58,3.7-3.79,2.61-2.4,5.59-4.42,8.87-5.82,3.29-1.39,6.9-1.89,10.44-1.78,3.56.1,7.04.81,10.48,1.61,3.44.81,6.83,1.78,10.24,2.63,3.41.86,6.86,1.6,10.35,1.96,1.74.18,3.5.27,5.22.02,1.72-.23,3.38-.87,4.73-1.96,1.36-1.07,2.39-2.51,3.24-4.03.82-1.54,1.47-3.18,2.03-4.84,1.12-3.33,1.96-6.76,2.54-10.22.55-3.47,1.07-6.98.63-10.47-.39-3.48-1.54-6.86-3.18-9.96-1.61-3.12-3.83-5.88-5.95-8.69-2.14-2.8-4.31-5.57-6.54-8.3-2.22-2.73-4.49-5.43-6.83-8.06-2.34-2.62-5.01-4.94-7.92-6.92-2.9-1.99-6.02-3.64-9.27-4.99-3.27-1.31-6.53-2.66-9.74-4.11-6.43-2.91-12.71-6.11-18.92-9.46-6.17-3.4-12.77-5.95-19.47-8.09-6.71-2.14-13.54-3.9-20.33-5.81-6.77-1.91-13.56-4.21-19.48-8.14-2.96-1.94-5.66-4.27-8.06-6.87-1.19-1.31-2.31-2.68-3.35-4.11l-3.05-4.32c-2.04-2.87-4.04-5.78-6.12-8.61-2.11-2.8-4.77-5.15-7.71-7.05-5.91-3.83-12.74-5.89-19.44-7.99-6.73-2.06-13.56-3.88-20.19-6.31-6.63-2.44-13.04-5.5-19.06-9.2-3.01-1.85-5.93-3.85-8.74-5.99-1.39-1.09-2.81-2.16-4.08-3.4-1.29-1.23-2.48-2.55-3.57-3.95-2.19-2.8-3.95-5.91-5.44-9.12-.74-1.61-1.4-3.25-2.02-4.91-.6-1.66-1.21-3.3-1.94-4.89-1.44-3.19-3.24-6.22-5.43-8.95-2.2-2.7-4.69-5.25-7.76-6.89-3.05-1.67-6.52-2.44-10-2.59-3.48-.13-7.01.16-10.38,1.03-3.38.87-6.63,2.26-9.57,4.13-2.95,1.86-5.52,4.28-7.66,7.04-2.17,2.75-3.86,5.82-5.43,8.97-1.59,3.14-3.11,6.32-4.58,9.52l-2.18,4.81c-.72,1.61-1.46,3.21-2.06,4.84-.6,1.64-1.03,3.33-1.34,5.04-.26,1.72-.41,3.46-.36,5.2.07,1.74.27,3.47.64,5.17.39,1.7.88,3.37,1.52,5,1.26,3.26,2.98,6.33,4.82,9.32,1.84,3,3.8,5.93,5.63,8.95,1.86,3.01,3.41,6.23,4.66,9.55,1.26,3.31,2.23,6.72,3.05,10.16.82,3.44,1.53,6.91,2,10.41.95,7,1.09,14.2-.43,21.16-1.47,6.95-4.7,13.52-9.25,18.97-1.13,1.36-2.36,2.66-3.6,3.91l-3.69,3.78c-1.23,1.26-2.48,2.52-3.74,3.75-1.26,1.24-2.6,2.42-3.85,3.62-5,4.89-8.64,11.09-10.74,17.77-.53,1.67-1,3.36-1.37,5.07-.39,1.7-.66,3.44-1.02,5.18-.73,3.47-1.75,6.88-3.16,10.15-1.39,3.27-3.16,6.38-5.29,9.23-1.04,1.44-2.23,2.77-3.44,4.07-1.25,1.28-2.52,2.47-3.73,3.75-4.88,5.05-9.23,10.6-13.29,16.34-2.04,2.87-4,5.79-5.95,8.72-1.96,2.91-3.77,5.99-6.25,8.57-2.44,2.59-5.41,4.75-8.78,5.98-3.37,1.22-6.96,1.7-10.51,1.55-3.57-.13-7.05-1.04-10.39-2.2-3.35-1.17-6.58-2.69-9.56-4.61-2.96-1.93-5.78-4.2-7.89-7.09-2.14-2.86-3.59-6.17-4.51-9.59-1.75-6.89-1.97-13.99-3.13-20.92-1.08-6.94-3.43-13.68-7.02-19.73-1.76-3.04-3.82-5.9-6.03-8.64-2.23-2.71-4.67-5.27-6.9-8.01-2.21-2.73-4.54-5.46-5.97-8.74-1.47-3.23-2.12-6.81-2.01-10.35.04-1.77.26-3.53.62-5.27.36-1.73.82-3.43,1.25-5.14.87-3.41,1.73-6.83,2.3-10.31.29-1.74.52-3.48.39-5.23-.1-1.75-.47-3.48-.99-5.15-.51-1.68-1.23-3.29-2.02-4.86-.79-1.57-1.73-3.06-2.8-4.46-2.12-2.79-4.86-5.14-8.04-6.65-3.18-1.51-6.7-2.22-10.21-2.3-3.52-.1-7.02.47-10.47,1.16l-5.21.89-2.61.44c-.43.08-.87.14-1.3.23-.44.08-.77.43-.8.87,0,.02-.02.04-.04.03-.02,0-.04-.02-.03-.04,0,0,0,0,0,0,.03-.22.1-.45.26-.62.16-.17.38-.26.59-.32.44-.1.87-.15,1.3-.24l2.6-.45,5.21-.9c3.45-.7,6.96-1.28,10.5-1.19,3.53.07,7.07.79,10.27,2.29,3.2,1.52,5.97,3.88,8.11,6.68,1.08,1.4,2.02,2.9,2.83,4.48.8,1.57,1.53,3.19,2.05,4.88.53,1.69.9,3.43,1.01,5.2.14,1.77-.1,3.55-.38,5.28-.56,3.49-1.41,6.92-2.28,10.33-.43,1.71-.88,3.41-1.23,5.13-.35,1.72-.56,3.47-.6,5.22-.1,3.5.55,7.03,2.01,10.22,1.41,3.22,3.73,5.92,5.94,8.65,2.23,2.72,4.67,5.26,6.93,7.99,2.23,2.74,4.3,5.61,6.08,8.67,3.63,6.07,6.02,12.87,7.12,19.86,1.18,6.96,1.42,14.07,3.17,20.87.92,3.37,2.36,6.62,4.46,9.41,2.07,2.82,4.83,5.04,7.77,6.94,2.95,1.89,6.14,3.38,9.45,4.53,3.31,1.14,6.73,2.03,10.23,2.14,3.48.13,7.01-.34,10.27-1.54,3.27-1.21,6.14-3.31,8.52-5.84,2.42-2.52,4.2-5.57,6.16-8.5,1.94-2.94,3.91-5.87,5.94-8.76,4.07-5.77,8.41-11.37,13.33-16.46,1.22-1.28,2.52-2.5,3.73-3.74,1.19-1.28,2.35-2.58,3.38-4,2.09-2.8,3.84-5.85,5.21-9.07,1.38-3.21,2.39-6.58,3.12-10.01.35-1.71.62-3.46,1.02-5.19.38-1.73.85-3.45,1.39-5.13,2.13-6.77,5.83-13.08,10.93-18.06,1.29-1.24,2.6-2.39,3.85-3.62,1.26-1.22,2.5-2.47,3.73-3.73l3.69-3.78c1.24-1.25,2.44-2.52,3.56-3.86,4.48-5.37,7.66-11.82,9.11-18.66,1.5-6.85,1.37-13.96.43-20.91-.47-3.48-1.17-6.92-1.98-10.34-.81-3.42-1.78-6.8-3.02-10.08-1.24-3.28-2.75-6.45-4.6-9.43-1.82-3.01-3.78-5.94-5.63-8.95-1.85-3-3.59-6.11-4.88-9.43-.65-1.66-1.15-3.37-1.55-5.11-.38-1.74-.59-3.52-.66-5.3-.05-1.79.1-3.57.37-5.33.32-1.76.77-3.49,1.38-5.16.62-1.68,1.36-3.28,2.08-4.89l2.19-4.82c1.48-3.2,2.99-6.39,4.59-9.54,1.57-3.15,3.3-6.29,5.51-9.08,2.18-2.81,4.82-5.29,7.83-7.19,3-1.92,6.32-3.33,9.76-4.22,3.45-.89,7.03-1.19,10.58-1.05,3.55.15,7.13.96,10.28,2.69,3.18,1.7,5.72,4.32,7.94,7.07,2.22,2.78,4.04,5.86,5.49,9.09.73,1.61,1.35,3.29,1.95,4.94.61,1.65,1.26,3.28,1.99,4.87,1.47,3.18,3.2,6.25,5.35,9.01,1.07,1.38,2.24,2.68,3.51,3.89,1.25,1.22,2.65,2.28,4.03,3.37,2.79,2.14,5.69,4.13,8.68,5.98,5.98,3.7,12.35,6.75,18.95,9.19,6.6,2.43,13.41,4.27,20.15,6.34,3.37,1.04,6.73,2.12,10.03,3.38,3.3,1.26,6.53,2.76,9.5,4.7,2.97,1.92,5.67,4.31,7.8,7.16,2.08,2.86,4.07,5.76,6.11,8.64l3.04,4.32c1.03,1.42,2.13,2.79,3.32,4.09,2.37,2.59,5.05,4.9,7.98,6.83,5.87,3.9,12.62,6.21,19.37,8.12,6.78,1.91,13.61,3.69,20.33,5.84,6.71,2.16,13.33,4.72,19.51,8.14,6.2,3.35,12.47,6.56,18.89,9.48,3.21,1.46,6.45,2.82,9.73,4.12,3.26,1.35,6.4,3.01,9.32,5,2.92,1.99,5.61,4.32,7.97,6.95,2.35,2.64,4.62,5.33,6.85,8.06,2.23,2.73,4.41,5.5,6.56,8.3,2.12,2.81,4.36,5.57,6,8.72,1.66,3.12,2.82,6.54,3.23,10.07.45,3.54-.07,7.09-.61,10.57-.58,3.49-1.42,6.93-2.54,10.28-.57,1.67-1.21,3.33-2.05,4.9-.86,1.55-1.92,3.04-3.33,4.16-1.4,1.13-3.15,1.8-4.92,2.05-1.77.25-3.56.16-5.32-.01-3.52-.36-6.99-1.1-10.41-1.95-3.42-.85-6.82-1.81-10.24-2.61-3.42-.79-6.89-1.48-10.39-1.58-3.49-.1-7.02.4-10.24,1.76-3.2,1.37-6.15,3.37-8.72,5.74-1.28,1.18-2.43,2.53-3.68,3.78-1.23,1.26-2.49,2.51-3.78,3.71-2.58,2.41-5.29,4.7-8.13,6.79-5.66,4.29-12.15,7.22-18.13,10.9-3,1.83-5.91,3.81-8.48,6.19-2.56,2.37-4.77,5.14-6.33,8.26-1.56,3.09-2.37,6.63-1.74,10.05.59,3.42,2.52,6.48,5.07,8.85,5.01,4.91,11.18,8.51,17.67,11.13,3.22,1.36,6.65,2.2,10.14,2.29,3.46.07,7.03-.42,10.01-2.22,3.01-1.75,5.37-4.41,7.62-7.09,2.27-2.67,4.15-5.65,6.27-8.49,1.06-1.42,2.17-2.81,3.42-4.08,1.24-1.28,2.64-2.4,4.11-3.4,2.91-2.03,6.13-3.64,9.53-4.69,3.39-1.07,6.93-1.63,10.47-1.78,3.54-.13,7.09.12,10.59.61,1.75.25,3.5.52,5.23.94,1.73.41,3.42.95,5.08,1.56,3.33,1.21,6.53,2.72,9.73,4.19,3.2,1.45,6.38,3.03,9.84,3.58,3.42.61,7.04.14,10.09-1.56,1.54-.82,2.89-1.93,4.18-3.12,1.3-1.18,2.56-2.41,3.83-3.64,1.27-1.22,2.54-2.44,3.87-3.61,1.33-1.17,2.71-2.27,4.13-3.32,2.83-2.12,5.85-4,9.06-5.49,3.22-1.46,6.65-2.54,10.17-2.95,7.05-.89,14.32.54,20.59,3.83,3.14,1.63,6.07,3.66,8.79,5.91,1.46,1.06,2.43,2.71,2.95,4.41.26.86.41,1.75.41,2.65,0,.89-.16,1.83-.66,2.62-1.87,2.99-3.82,5.94-6.02,8.7-2.23,2.74-4.6,5.36-7.03,7.91-2.43,2.55-4.94,5.03-7.46,7.5l-3.79,3.68c-1.26,1.23-2.54,2.44-3.7,3.77-2.31,2.65-4.25,5.62-5.78,8.79-1.52,3.18-2.63,6.54-3.44,9.97,0,.02-.02.03-.04.03-.02,0-.03-.02-.03-.05Z"/>
      <path class="cls-4" d="M679.04,230.87c-1.39-2.55-3.77-4.4-6.4-5.54-1.31-.59-2.68-1.06-4.05-1.49-1.38-.43-2.75-.88-4.15-1.22-2.8-.69-5.66-1.1-8.52-1.4-2.87-.29-5.74-.54-8.62-.64-5.76-.22-11.54-.04-17.3-.54-2.88-.25-5.73-.72-8.59-1.13-2.85-.43-5.7-.88-8.55-1.37-2.85-.48-5.69-1-8.52-1.55-2.82-.58-5.67-1-8.54-1.19-5.74-.42-11.51-.05-17.23.67-2.86.35-5.71.78-8.57,1.18-2.86.4-5.72.72-8.55,1.27-2.83.52-5.65,1.14-8.47,1.73-2.82.61-5.68,1.16-8.57,1.37-1.45.12-2.9.16-4.35.14-1.44-.06-2.92-.05-4.36-.49-1.42-.42-2.77-1.25-3.68-2.45-.46-.59-.8-1.28-1.05-1.98-.24-.68-.46-1.38-.66-2.08-.79-2.8-1.16-5.74-.91-8.66.11-1.47.42-2.88.65-4.3l.71-4.27c.46-2.85.91-5.69,1.3-8.55.33-2.84,1.01-5.76.02-8.42-.87-2.69-3.22-4.6-5.72-5.87-2.56-1.24-5.27-2.27-7.97-3.26-5.41-1.95-10.93-3.75-16.22-6.07-2.66-1.11-5.35-2.25-7.82-3.82-2.47-1.55-4.67-3.59-6.3-6.03-1.64-2.42-2.76-5.22-3.16-8.12-.43-2.9-.21-5.85.3-8.71.51-2.86,1.27-5.66,2.16-8.41.89-2.75,1.89-5.46,2.7-8.21,1.64-5.49,2.16-11.32,1.59-17.02-.55-5.72-2.45-11.23-4.88-16.43-2.44-5.18-5.8-10-10.28-13.6-4.46-3.62-9.85-5.93-15.33-7.61-5.5-1.69-11.2-2.69-16.77-4.25-5.58-1.48-11.1-3.21-16.55-5.1-5.45-1.92-10.83-4-16.14-6.28-5.33-2.23-10.47-4.88-15.84-6.95-5.36-2.09-10.96-3.67-16.71-4.13-5.75-.44-11.53-.4-17.27.16-5.73.61-11.46,1.36-17.12,2.45-5.66,1.08-11.22,2.66-16.73,4.36-5.5,1.72-10.92,3.72-16.09,6.27-5.15,2.55-10.13,5.56-14.42,9.38-4.27,3.87-7.61,8.63-10.66,13.5l-8.97,14.8c-1.47,2.45-2.54,5.18-2.7,8.03-.22,2.85.62,5.68,2.01,8.16,1.43,2.47,3.38,4.62,5.5,6.54,2.14,1.91,4.5,3.56,7,4.98,5,2.83,10.41,4.9,15.9,6.61,5.5,1.71,11.11,3.07,16.66,4.66,5.55,1.6,11.07,3.38,16.28,5.96,2.59,1.31,5.08,2.85,7.3,4.74,2.24,1.88,4.16,4.1,5.82,6.48,1.67,2.38,3.11,4.9,4.46,7.46,1.33,2.56,2.76,5.03,4.54,7.29,3.51,4.52,8.09,8.16,13.17,10.79,2.54,1.32,5.2,2.41,7.92,3.32,2.72.92,5.52,1.6,8.31,2.34,5.58,1.46,11.17,2.89,16.73,4.47,5.56,1.56,11.08,3.33,16.46,5.42,2.7,1.03,5.37,2.12,8.04,3.24,2.66,1.14,5.3,2.24,8.02,3.22,2.7.99,5.43,1.91,8.16,2.86,2.72.95,5.49,1.86,8.08,3.21,5.2,2.65,9.68,6.56,13.36,11.04,1.83,2.27,3.51,4.58,5.35,6.8,1.82,2.23,3.69,4.41,5.65,6.53,3.9,4.22,8.12,8.17,12.7,11.63,1.15.87,2.32,1.7,3.5,2.51,1.21.82,2.36,1.73,3.41,2.76,2.1,2.04,3.78,4.59,4.59,7.44.41,1.42.6,2.9.61,4.37,0,1.48-.16,2.92-.31,4.36-.31,2.88-.75,5.74-1.17,8.59-.4,2.85-.86,5.7-1.04,8.56-.19,2.86-.16,5.73.01,8.6.09,1.43.2,2.87.38,4.28.19,1.41.47,2.82.82,4.21.34,1.39.75,2.77,1.18,4.14.43,1.39.87,2.72,1.57,3.94,1.38,2.45,3.53,4.46,6.05,5.72,1.26.63,2.61,1.09,4,1.35,1.39.27,2.8.3,4.24.27,5.75-.04,11.49-.75,17.29-.83,5.79-.07,11.59.47,17.26,1.66,1.42.3,2.83.63,4.22,1.02,1.4.38,2.77.73,4.19.96,2.82.47,5.71.4,8.52-.11,2.81-.54,5.5-1.59,8.02-2.95,2.52-1.37,4.84-3.07,7.1-4.86,2.27-1.78,4.52-3.59,6.84-5.31,2.3-1.75,4.76-3.33,7.39-4.55,5.27-2.46,11.03-3.61,16.76-4.23,5.75-.63,11.52-.77,17.27-1.2,2.87-.22,5.74-.51,8.58-.97,2.83-.49,5.68-1.03,8.36-2.08,5.41-2.01,9.89-6.1,12.79-11.06,2.95-4.96,4.98-10.39,7.44-15.61l3.62-7.86,1.81-3.93c.29-.66.64-1.3.9-1.96.26-.66.39-1.4.21-2.09,0-.02,0-.04.03-.05s.04,0,.05.03c.18.71.06,1.47-.21,2.14-.26.68-.62,1.31-.9,1.97l-1.8,3.94-3.6,7.87c-2.45,5.22-4.45,10.66-7.4,15.64-1.48,2.48-3.28,4.8-5.47,6.7-2.17,1.93-4.69,3.44-7.39,4.49-2.7,1.07-5.56,1.62-8.4,2.11-2.85.48-5.73.78-8.6,1-5.76.45-11.53.61-17.26,1.26-5.71.64-11.43,1.8-16.63,4.25-2.6,1.22-5.01,2.78-7.3,4.53-2.31,1.72-4.55,3.53-6.81,5.33-2.25,1.8-4.6,3.53-7.15,4.93-2.55,1.38-5.29,2.46-8.15,3.02-2.86.54-5.82.61-8.7.14-1.44-.22-2.86-.59-4.25-.96-1.39-.38-2.79-.7-4.19-.99-5.63-1.16-11.39-1.68-17.14-1.59-5.74.09-11.49.82-17.28.88-1.44.03-2.93,0-4.38-.27-1.45-.27-2.86-.74-4.18-1.4-2.64-1.3-4.9-3.4-6.36-5.98-.74-1.28-1.22-2.71-1.65-4.07-.44-1.38-.85-2.77-1.21-4.18-.35-1.41-.65-2.84-.84-4.28-.19-1.45-.29-2.89-.39-4.34-.18-2.89-.2-5.8,0-8.7.19-2.9.65-5.76,1.05-8.62.42-2.85.85-5.7,1.16-8.56.15-1.43.31-2.87.31-4.27,0-1.41-.19-2.82-.58-4.17-.77-2.72-2.36-5.15-4.39-7.12-1.01-.99-2.13-1.87-3.31-2.68-1.19-.82-2.38-1.66-3.53-2.53-4.62-3.5-8.86-7.47-12.79-11.73-1.96-2.13-3.85-4.32-5.67-6.56-1.84-2.22-3.55-4.58-5.35-6.8-3.63-4.43-8.03-8.26-13.13-10.87-2.53-1.32-5.26-2.23-7.99-3.18-2.72-.94-5.46-1.87-8.17-2.86-2.72-.98-5.4-2.1-8.04-3.23-2.66-1.12-5.33-2.2-8.01-3.23-5.37-2.09-10.85-3.85-16.4-5.41-5.54-1.58-11.13-3-16.71-4.47-2.78-.74-5.6-1.43-8.35-2.35-2.75-.92-5.44-2.02-8.02-3.36-5.16-2.66-9.82-6.37-13.39-10.98-1.8-2.29-3.27-4.83-4.6-7.39-1.35-2.54-2.76-5.05-4.4-7.4-1.64-2.35-3.51-4.53-5.69-6.37-2.17-1.85-4.61-3.38-7.17-4.68-5.14-2.56-10.64-4.35-16.17-5.96-5.54-1.6-11.15-2.97-16.66-4.7-5.51-1.73-10.95-3.82-15.99-6.69-2.52-1.44-4.9-3.12-7.07-5.06-2.14-1.95-4.11-4.13-5.58-6.67-1.42-2.54-2.29-5.47-2.05-8.41.18-2.94,1.28-5.73,2.78-8.21l9-14.79c3.07-4.88,6.43-9.67,10.74-13.56,4.34-3.85,9.34-6.85,14.52-9.41,5.19-2.55,10.63-4.54,16.14-6.26,5.52-1.69,11.08-3.26,16.76-4.34,5.67-1.08,11.4-1.82,17.14-2.42,5.75-.54,11.55-.6,17.31-.17,5.78.45,11.41,2.02,16.79,4.11,5.4,2.07,10.54,4.71,15.87,6.92,5.3,2.27,10.69,4.34,16.13,6.24,5.45,1.88,10.96,3.59,16.54,5.05,5.55,1.54,11.25,2.52,16.79,4.21,5.52,1.68,10.95,4,15.5,7.66,4.55,3.64,7.97,8.53,10.44,13.75,1.23,2.62,2.31,5.31,3.19,8.08.87,2.77,1.47,5.62,1.77,8.51.59,5.77.07,11.67-1.58,17.23-.81,2.78-1.8,5.5-2.68,8.24-.88,2.73-1.63,5.52-2.13,8.34-.49,2.82-.7,5.7-.28,8.51.39,2.82,1.47,5.51,3.07,7.86,1.59,2.36,3.71,4.32,6.13,5.83,2.41,1.53,5.06,2.66,7.72,3.75,2.67,1.11,5.32,2.21,8.03,3.17l8.15,2.91c2.71,1,5.41,2.03,8.03,3.31,1.3.67,2.55,1.48,3.61,2.51,1.07,1.02,1.93,2.3,2.4,3.72.49,1.41.62,2.92.51,4.39-.12,1.47-.34,2.88-.52,4.32-.39,2.86-.84,5.71-1.31,8.56l-.72,4.27c-.23,1.43-.54,2.84-.65,4.25-.25,2.84.11,5.71.88,8.46.42,1.36.76,2.79,1.61,3.88.83,1.11,2.06,1.88,3.4,2.27,1.33.41,2.78.42,4.22.48,1.43.03,2.87-.01,4.3-.13,2.87-.21,5.69-.74,8.51-1.35,2.82-.59,5.64-1.2,8.49-1.72,2.84-.55,5.72-.86,8.57-1.25,2.86-.39,5.71-.82,8.58-1.17,5.73-.71,11.53-1.06,17.31-.63,2.89.2,5.76.63,8.59,1.22,2.83.56,5.67,1.08,8.51,1.56,2.84.49,5.69.95,8.54,1.38,2.85.42,5.7.9,8.56,1.16,5.74.53,11.52.38,17.29.62,2.89.11,5.76.38,8.63.68,2.87.31,5.73.74,8.54,1.45,1.4.35,2.78.8,4.15,1.24,1.37.44,2.74.92,4.06,1.52,2.63,1.16,5.04,3.05,6.42,5.62,0,.02,0,.04-.01.05-.02.01-.04,0-.05-.01Z"/>
      <path class="cls-16" d="M383.71,388.33c-1.51-.27-2.66-1.35-3.73-2.35-1.06-1.04-2.36-1.77-3.61-2.58-2.51-1.58-5.1-3.04-7.74-4.39-5.28-2.71-10.79-4.95-16.39-6.91-5.58-2.03-11.09-4.28-16.43-6.92-2.64-1.35-5.35-2.63-7.76-4.42-2.39-1.79-4.5-3.99-6.05-6.56-1.56-2.56-2.5-5.48-2.96-8.41-.55-2.9-1.49-5.73-2.84-8.34-2.73-5.25-7.23-9.41-12.34-12.35-2.54-1.5-5.31-2.66-7.78-4.34-2.51-1.62-4.83-3.56-6.75-5.87-.96-1.15-1.79-2.41-2.53-3.71-.69-1.33-1.31-2.7-1.74-4.14-.24-.71-.39-1.45-.58-2.17l-.4-2.19-.81-4.38c-.56-2.93-1.01-5.85-1.79-8.7-.76-2.86-1.71-5.67-2.72-8.45l-3.13-8.34c-1.04-2.78-2.01-5.64-2.37-8.63-.36-2.98.03-6.14,1.51-8.81.73-1.33,1.63-2.55,2.66-3.65,1.04-1.08,2.13-2.14,3.46-2.91,1.31-.76,2.85-1.27,4.42-1.16,1.57.07,3.04.77,4.24,1.69,1.22.95,2.15,2.15,3.09,3.3.93,1.17,1.81,2.37,2.66,3.6,1.7,2.46,3.18,5.02,5.24,7.13,1.99,2.16,4.31,4.01,6.8,5.59,2.48,1.59,5.14,2.9,7.86,4.04,2.75,1.12,5.47,2.36,8.1,3.77,5.26,2.8,10.19,6.26,14.53,10.36,2.13,2.1,4.3,4.1,6.45,6.15,2.12,2.06,4.47,3.86,7.17,5.03,2.67,1.22,5.6,1.79,8.53,1.92,2.94.09,5.89-.23,8.78-.84,5.78-1.2,11.38-3.37,16.35-6.56,4.99-3.18,9.25-7.41,12.75-12.17,3.47-4.79,6.12-10.13,8.62-15.51,1.22-2.7,2.36-5.44,3.38-8.22.5-1.39,1.02-2.79,1.43-4.2.41-1.42.71-2.86.9-4.32.37-2.93.21-5.91-.37-8.8-.61-2.89-1.63-5.68-2.96-8.33-1.3-2.66-2.77-5.24-4.55-7.6-1.76-2.38-3.71-4.62-5.93-6.58-2.21-1.96-4.58-3.75-7.15-5.24-2.56-1.48-5.25-2.74-8.03-3.77-5.58-1.96-11.43-3.29-17.36-3.41-5.92-.14-11.87.84-17.44,2.86-2.8.99-5.45,2.32-8.1,3.67-2.66,1.33-5.33,2.63-8.03,3.86-5.4,2.46-10.97,4.64-16.74,6.1-2.88.71-5.75,1.55-8.74,1.81-1.49.13-3,.13-4.48-.15-1.46-.29-2.94-.94-3.94-2.12-1.03-1.15-1.45-2.72-1.5-4.21-.05-1.52.27-3,.62-4.44.74-2.9,1.89-5.66,3.2-8.33,1.32-2.67,2.78-5.25,4.17-7.88,1.39-2.62,2.63-5.31,3.74-8.06,1.09-2.74,1.93-5.61,2.11-8.55.18-2.94-.19-5.92-1.25-8.66-1.05-2.75-2.8-5.19-4.94-7.21-2.13-2.03-4.62-3.68-7.14-5.21-2.53-1.54-5.2-2.82-7.85-4.17l-7.92-4.09c-5.27-2.74-10.52-5.51-15.85-8.11-5.33-2.56-10.9-4.71-16.72-5.78-2.9-.54-5.86-.83-8.79-.74-2.92.15-5.84.88-8.3,2.44-1.23.77-2.36,1.71-3.34,2.79-.97,1.09-1.8,2.3-2.51,3.58-1.36,2.58-2.3,5.42-3.07,8.26-1.51,5.71-2.02,11.66-1.78,17.56.25,5.91,1.32,11.76,2.77,17.5.73,2.87,1.54,5.72,2.4,8.56.86,2.84,1.78,5.67,2.53,8.55.76,2.88,1.39,5.8,1.78,8.77.38,2.95.59,5.98.2,8.97-.7,6.01-3.36,11.56-6.52,16.58-3.18,5.05-6.98,9.65-9.52,14.99-2.6,5.31-4.3,11.01-5.97,16.7-1.63,5.74-4.3,11.24-8.09,15.89-3.76,4.67-8.54,8.46-13.75,11.37-5.19,2.9-10.47,5.62-15.41,8.88-4.95,3.22-9.49,7.09-13.24,11.66-3.78,4.54-6.82,9.65-9.45,14.96-1.33,2.65-2.61,5.33-3.98,7.97-1.39,2.62-2.78,5.3-4.69,7.64-3.71,4.78-9.14,8.01-14.88,9.68-2.88.85-5.84,1.34-8.79,1.71-2.96.37-5.94.58-8.92.64-1.49.03-2.98.03-4.47-.01-1.48-.04-2.99-.1-4.48-.31-2.98-.41-5.87-1.27-8.62-2.45-2.75-1.17-5.36-2.67-7.85-4.28l-7.56-4.71c-5.04-3.14-10.07-6.33-14.86-9.86-1.2-.88-2.38-1.79-3.54-2.72-1.18-.93-2.25-2-3.18-3.19-1.87-2.37-3.05-5.22-3.67-8.15-.63-2.93-.69-5.96-.45-8.93.22-2.97.68-5.91.91-8.86.46-5.89.26-11.9-1.27-17.62-1.53-5.71-4.47-11.04-8.59-15.3-2.05-2.13-4.37-3.99-6.74-5.77-2.36-1.8-4.73-3.6-7.04-5.46-2.32-1.86-4.58-3.79-6.74-5.83-2.15-2.06-4.11-4.32-5.78-6.78-3.37-4.92-5.61-10.55-6.81-16.37-.59-2.91-1.29-5.8-2.35-8.57-1.06-2.77-2.48-5.41-4.32-7.74-.01-.02,0-.04,0-.05s.04-.01.05,0c1.85,2.33,3.29,4.97,4.35,7.75,1.08,2.77,1.79,5.67,2.38,8.58,1.22,5.8,3.47,11.41,6.84,16.29,1.67,2.45,3.63,4.69,5.77,6.73,2.16,2.03,4.43,3.95,6.75,5.8,2.32,1.85,4.69,3.64,7.05,5.43,2.38,1.77,4.72,3.63,6.79,5.78,4.16,4.28,7.14,9.66,8.71,15.41,1.56,5.77,1.78,11.82,1.33,17.74-.22,2.97-.67,5.91-.88,8.86-.23,2.95-.16,5.92.47,8.8.62,2.87,1.77,5.65,3.6,7.95,1.78,2.34,4.29,4,6.64,5.79,4.78,3.51,9.8,6.67,14.85,9.79l7.58,4.68c2.5,1.6,5.06,3.07,7.78,4.22,2.71,1.15,5.56,1.99,8.47,2.38,1.46.2,2.92.26,4.41.29,1.48.03,2.96.03,4.44,0,2.96-.07,5.91-.29,8.85-.66,2.93-.38,5.85-.87,8.67-1.71,5.63-1.65,10.88-4.82,14.49-9.47,1.85-2.27,3.22-4.91,4.61-7.52,1.37-2.63,2.64-5.31,3.98-7.96,2.63-5.33,5.71-10.5,9.54-15.09,3.79-4.62,8.41-8.55,13.4-11.79,4.99-3.28,10.28-6.01,15.46-8.9,5.15-2.87,9.85-6.59,13.55-11.19,3.72-4.57,6.35-9.97,7.96-15.64,1.68-5.69,3.39-11.43,6.02-16.81,2.59-5.43,6.42-10.07,9.56-15.06,3.14-4.98,5.74-10.43,6.42-16.29.38-2.91.18-5.87-.2-8.79-.38-2.93-1-5.82-1.76-8.68-.74-2.86-1.66-5.68-2.52-8.53-.86-2.85-1.68-5.71-2.41-8.59-1.46-5.77-2.54-11.67-2.79-17.63-.24-5.96.27-11.98,1.82-17.76.79-2.88,1.73-5.72,3.15-8.4.74-1.31,1.6-2.56,2.6-3.69,1.02-1.12,2.2-2.09,3.48-2.89,2.57-1.62,5.61-2.37,8.6-2.51,3.01-.09,5.99.22,8.92.77,5.88,1.1,11.49,3.28,16.84,5.86,5.34,2.62,10.59,5.4,15.85,8.15l7.9,4.11c2.64,1.35,5.33,2.65,7.87,4.2,2.54,1.55,5.04,3.21,7.21,5.29,2.17,2.06,3.96,4.56,5.02,7.38,1.08,2.8,1.46,5.85,1.27,8.83-.19,3-1.05,5.91-2.15,8.67-1.12,2.76-2.37,5.46-3.77,8.09-1.39,2.63-2.86,5.21-4.18,7.86-1.31,2.65-2.46,5.4-3.19,8.26-.35,1.43-.66,2.88-.61,4.35.05,1.44.44,2.93,1.41,4.01.93,1.11,2.34,1.73,3.76,2.02,1.44.27,2.93.28,4.39.16,2.95-.25,5.81-1.07,8.69-1.78,5.75-1.45,11.3-3.6,16.7-6.06,2.7-1.22,5.37-2.52,8.03-3.84,2.64-1.34,5.32-2.67,8.13-3.67,5.6-2.01,11.57-3.02,17.52-2.89,5.96.11,11.84,1.44,17.46,3.39,2.8,1.02,5.5,2.29,8.08,3.78,2.58,1.49,4.98,3.28,7.21,5.26,2.24,1.97,4.21,4.23,5.99,6.61,1.8,2.38,3.29,4.98,4.6,7.65,1.35,2.65,2.39,5.48,3.01,8.41.6,2.93.76,5.95.39,8.92-.18,1.48-.49,2.95-.9,4.39-.42,1.44-.93,2.83-1.43,4.23-1.02,2.8-2.16,5.55-3.38,8.26-2.49,5.39-5.13,10.76-8.63,15.6-3.52,4.81-7.82,9.09-12.86,12.31-5.02,3.24-10.68,5.44-16.51,6.66-2.92.63-5.91.96-8.91.87-2.99-.13-6-.71-8.74-1.95-2.77-1.18-5.21-3.05-7.35-5.12-2.16-2.04-4.35-4.07-6.46-6.13-4.31-4.05-9.19-7.47-14.42-10.24-2.61-1.4-5.3-2.61-8.05-3.73-2.75-1.15-5.44-2.47-7.97-4.08-2.53-1.6-4.89-3.49-6.92-5.7-1.03-1.09-1.97-2.27-2.81-3.51l-2.48-3.7c-.84-1.22-1.71-2.41-2.63-3.57-.93-1.14-1.85-2.31-2.98-3.2-1.13-.87-2.47-1.51-3.89-1.57-1.41-.11-2.83.35-4.07,1.07-1.25.72-2.31,1.74-3.33,2.8-1,1.07-1.87,2.25-2.57,3.52-1.43,2.55-1.8,5.56-1.46,8.46.35,2.92,1.3,5.73,2.33,8.51l3.11,8.35c1.01,2.8,1.96,5.62,2.72,8.5.78,2.88,1.24,5.84,1.78,8.74l.8,4.38.4,2.19c.18.71.33,1.43.56,2.13.42,1.41,1.03,2.75,1.7,4.06.72,1.28,1.53,2.51,2.47,3.64,1.88,2.26,4.16,4.18,6.63,5.79,2.44,1.67,5.18,2.82,7.76,4.35,5.15,2.97,9.72,7.21,12.48,12.54,1.37,2.66,2.31,5.53,2.87,8.46.45,2.93,1.36,5.76,2.89,8.29,1.51,2.53,3.59,4.7,5.94,6.46,1.18.89,2.45,1.64,3.75,2.35,1.3.71,2.62,1.4,3.94,2.06,5.31,2.65,10.79,4.93,16.36,6.98,5.59,1.99,11.11,4.26,16.38,7,2.64,1.36,5.22,2.84,7.73,4.44,1.23.81,2.55,1.56,3.61,2.61,1.07,1,2.2,2.07,3.68,2.35.02,0,.03.02.03.04s-.02.03-.04.03Z"/>
      <path class="cls-13" d="M407.65,388.33c-2.66.12-5.25-.78-7.56-2.03-1.16-.62-2.28-1.32-3.4-2.01l-3.38-2.04c-4.54-2.67-9.18-5.16-13.88-7.52-9.39-4.77-19.03-8.99-28.41-13.82-2.3-1.3-4.52-2.77-6.48-4.56-1.95-1.78-3.67-3.88-4.84-6.27-1.23-2.38-1.82-5-2.29-7.59-.43-2.61-.63-5.26-.57-7.91.05-2.65.35-5.28.84-7.88.28-1.3.5-2.59.95-3.87.46-1.27,1.19-2.43,2.12-3.41,1.86-1.97,4.35-3.17,6.83-4.03l7.43-2.68c9.89-3.58,19.78-7.27,29.11-12.1,4.63-2.44,8.96-5.48,12.78-9.06,3.85-3.57,7.11-7.69,10.05-12.05,3-4.32,5.97-8.69,9.44-12.7,1.75-2,3.72-3.82,5.93-5.31,2.2-1.5,4.65-2.65,7.22-3.36,1.28-.38,2.6-.6,3.92-.77,1.32-.15,2.65-.21,3.96-.27,2.62-.11,5.21-.47,7.5-1.72,1.14-.59,2.2-1.34,2.97-2.34.77-.99,1.19-2.23,1.12-3.48-.16-2.55-1.76-4.81-3.49-6.68-1.8-1.87-3.99-3.33-6.31-4.53-2.31-1.19-4.82-2.11-7.11-3.46-4.63-2.58-8.79-5.92-12.58-9.59-3.78-3.68-7.34-7.57-11.21-11.12-1.93-1.78-3.95-3.46-6.08-4.99-2.12-1.54-4.4-2.85-6.72-4.07-4.65-2.43-9.58-4.32-14.64-5.73-5.06-1.42-10.25-2.31-15.47-2.93-5.22-.64-10.47-1.03-15.72-1.35-2.63-.17-5.26-.27-7.88-.49-2.6-.25-5.32-.49-7.71-1.73-2.41-1.19-4.22-3.36-5.28-5.78-1.11-2.43-1.5-5.07-2.21-7.59-1.34-5.07-3.06-10.1-5.83-14.58-2.74-4.49-6.7-8.16-11.23-10.79-4.54-2.66-9.46-4.56-14.35-6.5-2.44-.98-4.89-1.96-7.28-3.08-2.37-1.15-4.76-2.23-7.19-3.26-2.42-1.04-4.84-2.07-7.23-3.2-2.38-1.16-4.7-2.36-7.1-3.45-4.77-2.21-9.64-4.21-14.56-6.08-4.91-1.88-9.9-3.56-14.85-5.35-2.48-.89-4.95-1.81-7.4-2.77l-3.67-1.47c-1.22-.51-2.41-1.02-3.69-1.18-1.26-.18-2.59-.01-3.64.69-1.06.68-1.81,1.77-2.27,2.97-.96,2.41-.83,5.1-1.09,7.72-.39,5.25-.82,10.5-1.05,15.75-.06,1.31-.1,2.63-.13,3.94-.03,1.31-.02,2.63-.11,3.96-.16,2.64-.5,5.25-.41,7.85.32,5.24.69,10.5,1.27,15.72.3,2.61.65,5.21,1.09,7.8.44,2.58,1,5.16,1.44,7.76.9,5.2,1.51,10.46,1.54,15.75,0,2.65-.07,5.29-.45,7.93-.4,2.63-1.14,5.21-2.15,7.66-1.01,2.46-2.3,4.8-3.79,6.99l-4.43,6.54-4.43,6.54c-.74,1.1-1.5,2.16-2.13,3.3-.64,1.13-1.2,2.31-1.69,3.51-.97,2.42-1.64,4.95-2.09,7.53-.44,2.57-.68,5.2-1.05,7.81-.36,2.61-.82,5.23-1.58,7.78-.74,2.56-1.86,5-3.27,7.26-2.8,4.55-6.81,8.24-11.24,11.14-2.22,1.46-4.58,2.67-6.85,3.97-1.12.67-2.24,1.36-3.35,2.06-1.08.74-2.2,1.43-3.24,2.22-4.25,3.06-8.23,6.51-11.85,10.3-3.6,3.81-6.87,7.93-9.79,12.29-.73,1.09-1.42,2.2-2.13,3.31-.66,1.13-1.36,2.24-2,3.39-1.27,2.28-2.53,4.64-4.06,6.81-3.01,4.37-6.99,8.12-11.64,10.71-4.65,2.61-9.89,4.07-15.18,4.49-5.29.44-10.7-.18-15.7-2-2.51-.92-4.84-2.14-7.22-3.28-2.36-1.17-4.71-2.39-7-3.7-4.58-2.62-8.99-5.59-12.98-9.06-1.99-1.75-3.89-3.58-5.61-5.62-1.67-2.09-2.87-4.53-3.66-7.06-1.57-5.09-1.92-10.43-1.93-15.69-.03-5.26.06-10.55-1.13-15.66-1.19-5.1-3.29-10-6.29-14.3-2.97-4.34-6.86-7.94-10.84-11.36-3.97-3.44-8.09-6.78-11.5-10.83-3.4-4.04-5.82-8.92-6.89-14.1-.57-2.58-.77-5.23-.8-7.86-.01-2.64.14-5.27.1-7.89-.02-2.63-.32-5.25-.99-7.79-.66-2.52-1.49-5.12-3.31-7.03-1.84-1.91-4.48-2.69-7-3.35l-3.83-.96c-1.27-.31-2.6-.51-3.89-.25-.02,0-.04,0-.04-.03,0-.02,0-.04.03-.04,1.31-.26,2.65-.07,3.93.24l3.83.95c2.52.65,5.19,1.42,7.06,3.36,1.86,1.94,2.7,4.56,3.37,7.08.69,2.55,1,5.19,1.03,7.83.05,2.64-.1,5.27-.08,7.9.03,2.62.24,5.25.82,7.82,1.08,5.14,3.49,9.97,6.88,13.97,3.4,4.01,7.52,7.32,11.51,10.76,3.99,3.41,7.92,7.02,10.94,11.39,3.04,4.33,5.18,9.28,6.4,14.42,1.23,5.18,1.15,10.52,1.2,15.76.02,5.24.39,10.54,1.96,15.53.79,2.48,1.96,4.85,3.59,6.87,1.67,1.98,3.58,3.81,5.55,5.53,3.97,3.43,8.35,6.36,12.91,8.95,2.28,1.3,4.62,2.5,6.97,3.66,2.37,1.13,4.72,2.34,7.16,3.23,4.9,1.78,10.2,2.35,15.4,1.92,5.2-.42,10.33-1.84,14.87-4.4,4.55-2.54,8.44-6.2,11.4-10.49,1.51-2.13,2.73-4.43,4.02-6.75.64-1.16,1.34-2.27,2.01-3.41.71-1.11,1.41-2.23,2.15-3.33,2.95-4.38,6.24-8.54,9.88-12.38,3.65-3.83,7.66-7.3,11.95-10.39,1.06-.79,2.18-1.49,3.27-2.24,1.12-.71,2.24-1.4,3.38-2.07,2.3-1.32,4.63-2.51,6.82-3.95,4.36-2.86,8.29-6.47,11.02-10.91,1.37-2.21,2.46-4.59,3.19-7.09.74-2.5,1.2-5.08,1.56-7.68.37-2.6.61-5.22,1.06-7.84.46-2.61,1.13-5.2,2.13-7.66.5-1.23,1.07-2.44,1.73-3.6.65-1.17,1.42-2.25,2.15-3.34l4.43-6.53c2.87-4.4,6.23-8.54,8.16-13.4.99-2.41,1.72-4.93,2.11-7.5.37-2.57.45-5.21.44-7.82-.03-5.24-.64-10.47-1.51-15.65-.43-2.59-.99-5.16-1.42-7.77-.43-2.6-.78-5.22-1.07-7.84-.57-5.25-.93-10.49-1.23-15.77-.08-2.67.26-5.3.43-7.91.09-1.3.09-2.61.12-3.93.04-1.32.08-2.64.14-3.95.25-5.27.69-10.51,1.1-15.76l.3-3.94c.1-1.33.35-2.66.85-3.91.48-1.25,1.29-2.44,2.46-3.18,1.16-.78,2.62-.95,3.94-.75,1.34.18,2.6.71,3.8,1.22l3.66,1.47c2.45.96,4.91,1.88,7.38,2.78,4.95,1.8,9.94,3.49,14.85,5.38,4.92,1.88,9.79,3.89,14.57,6.12,2.39,1.1,4.74,2.32,7.1,3.47,2.37,1.13,4.79,2.16,7.21,3.21,2.42,1.04,4.83,2.12,7.19,3.27,2.38,1.12,4.82,2.11,7.26,3.09,4.88,1.95,9.82,3.86,14.38,6.55,4.56,2.66,8.54,6.37,11.29,10.9,2.77,4.51,4.51,9.56,5.87,14.64.73,2.53,1.12,5.17,2.22,7.54,1.05,2.38,2.82,4.48,5.17,5.64,2.33,1.2,5,1.43,7.61,1.68,2.62.22,5.25.31,7.88.48,5.26.31,10.51.69,15.75,1.31,5.23.61,10.45,1.49,15.54,2.91,5.09,1.4,10.04,3.3,14.73,5.73,2.34,1.22,4.64,2.54,6.79,4.09,2.15,1.54,4.19,3.22,6.14,5.01,3.9,3.56,7.47,7.44,11.24,11.1,3.78,3.64,7.91,6.94,12.49,9.48,2.26,1.33,4.73,2.22,7.1,3.43,2.35,1.21,4.61,2.7,6.47,4.63.92.97,1.74,2.03,2.43,3.19.66,1.17,1.16,2.47,1.24,3.85.08,1.38-.39,2.79-1.24,3.87-.84,1.1-1.98,1.9-3.17,2.51-1.19.62-2.46,1.1-3.78,1.36-1.31.27-2.65.38-3.96.45-1.32.07-2.63.12-3.92.28-1.29.18-2.57.39-3.82.76-5.04,1.38-9.42,4.56-12.82,8.5-3.42,3.97-6.4,8.31-9.41,12.63-2.94,4.36-6.27,8.54-10.16,12.13-3.88,3.61-8.25,6.67-12.93,9.12-9.4,4.83-19.3,8.5-29.21,12.07l-7.43,2.67c-2.46.85-4.87,2.01-6.65,3.9-.89.93-1.59,2.04-2.02,3.24-.43,1.2-.67,2.52-.94,3.79-.49,2.57-.8,5.18-.85,7.8-.07,2.62.12,5.24.55,7.82.47,2.57,1.05,5.15,2.24,7.48,1.14,2.34,2.82,4.4,4.74,6.17,1.92,1.77,4.12,3.23,6.4,4.52,9.34,4.81,18.97,9.11,28.34,13.93,4.69,2.39,9.32,4.9,13.85,7.6l3.37,2.06c1.11.7,2.23,1.4,3.38,2.02,2.29,1.26,4.85,2.16,7.5,2.06.02,0,.04.02.04.04,0,.02-.02.04-.04.04Z"/>
      <path class="cls-18" d="M259.85.03c1.34,5.91,2.91,11.78,3.91,17.78.25,1.5.46,3,.63,4.51l.45,4.53c.31,3.02.66,6.03,1.11,9.02.24,1.49.44,3.01.79,4.46.37,1.45,1,2.82,1.84,4.05.85,1.23,1.9,2.32,3.11,3.18,1.22.86,2.58,1.52,4,1.97,1.42.48,2.92.64,4.42.71,1.5.05,2.99-.14,4.49-.36,3-.42,5.98-.95,8.95-1.57,11.87-2.45,23.48-6.09,35.39-8.52,5.93-1.27,11.86-2.56,17.83-3.67,2.99-.55,5.98-1.06,8.99-1.49l9.03-1.18c6.02-.76,12.12-1.31,18.2-.86,6.08.41,12.09,1.64,17.86,3.56,11.58,3.71,22.65,8.77,33.94,13.15,5.68,2.12,11.47,3.95,17.34,5.45,2.94.75,5.89,1.44,8.86,2.05,2.96.64,5.97,1.06,8.91,1.88,5.87,1.57,11.48,4.29,16.13,8.25,4.69,3.92,8.27,9.02,10.97,14.45,2.79,5.4,5.17,11.01,7.05,16.8.93,2.89,1.74,5.83,2.41,8.8.34,1.48.65,2.97.89,4.48.24,1.51.39,3.03.47,4.55.16,3.05.01,6.11-.34,9.13-.18,1.51-.4,3.02-.66,4.52-.25,1.5-.62,2.99-.83,4.46-.21,1.48-.28,2.98-.04,4.43.13.72.31,1.43.63,2.1.27.69.65,1.32,1.03,1.95.83,1.21,1.91,2.24,3.19,2.96,1.27.72,2.71,1.14,4.18,1.27,2.96.28,5.92-.52,8.59-1.89,2.72-1.31,5.37-2.8,8.19-4,5.67-2.37,11.76-3.38,17.81-3.92,6.06-.6,12.26-.21,18.18,1.33,2.96.76,5.86,1.83,8.54,3.34,2.66,1.54,5.09,3.54,6.93,6.02,3.7,4.97,5.29,11.26,5.12,17.37-.21,6.16-1.89,12.05-3.07,17.98-.3,1.48-.57,2.97-.79,4.46-.28,1.45-.05,2.91.69,4.18.72,1.27,1.78,2.33,2.93,3.29,1.15.96,2.39,1.82,3.68,2.59,2.58,1.54,5.36,2.75,8.14,3.95,2.8,1.18,5.52,2.54,8.29,3.77,5.52,2.47,11.23,4.62,17.2,5.59,2.99.4,6.01.89,9,1.24,3,.33,6.05.4,8.99-.27l1.1-.28c.43-.09.82,0,1.17,0l2.27-.06,4.55-.13c3.02-.08,6.04-.57,9.09-.44,3.04.07,6.07.44,9.06.96,1.5.26,2.98.55,4.47.87.73.17,1.49-.07,2.26-.04.38.01.78.1,1.09.34.32.23.52.58.66.93,0,.02,0,.04-.02.05-.02,0-.04,0-.05-.02-.14-.34-.34-.68-.64-.89-.3-.22-.67-.31-1.04-.32-.75-.03-1.5.22-2.28.05-1.49-.3-2.98-.58-4.47-.83-2.99-.49-6.01-.83-9.04-.88-3.03-.1-6.03.41-9.07.52-1.52.08-3.03.12-4.55.17l-2.28.07c-.4,0-.78-.07-1.1,0l-1.1.28c-2.99.7-6.1.64-9.12.32-3.03-.34-6.01-.81-9.03-1.2-6.04-.95-11.8-3.1-17.35-5.55-2.79-1.22-5.5-2.57-8.3-3.73-2.79-1.19-5.6-2.39-8.23-3.95-1.32-.78-2.59-1.65-3.77-2.63-1.18-.98-2.31-2.08-3.1-3.46-.39-.69-.68-1.44-.82-2.24-.14-.78-.09-1.62.03-2.37.21-1.51.48-3.01.77-4.5l1.86-8.91c.58-2.97,1.1-5.95,1.16-8.95.18-5.97-1.39-12.11-4.96-16.91-1.78-2.4-4.12-4.34-6.71-5.83-2.61-1.47-5.45-2.52-8.36-3.27-5.83-1.53-11.93-1.91-17.94-1.33-6.01.54-12.04,1.54-17.6,3.86-2.77,1.18-5.41,2.67-8.16,3.98-2.71,1.39-5.84,2.25-8.95,1.95-1.55-.15-3.09-.58-4.45-1.36-1.37-.77-2.54-1.88-3.42-3.18-.4-.67-.8-1.34-1.09-2.07-.34-.7-.54-1.48-.68-2.25-.26-1.55-.17-3.12.05-4.63.23-1.53.6-2.99.85-4.48.27-1.49.5-2.98.68-4.48.36-3,.52-6.02.37-9.03-.07-1.51-.22-3.01-.45-4.5-.24-1.48-.54-2.97-.87-4.45-.65-2.95-1.44-5.88-2.36-8.76-1.84-5.77-4.19-11.37-6.94-16.76-2.67-5.43-6.2-10.47-10.83-14.37-4.6-3.93-10.15-6.65-15.98-8.23-2.91-.82-5.92-1.26-8.89-1.9-2.97-.62-5.93-1.32-8.86-2.08-5.87-1.53-11.69-3.31-17.38-5.42-11.33-4.35-22.41-9.35-33.98-13.01-5.75-1.89-11.72-3.08-17.76-3.47-6.04-.42-12.09.14-18.1.92l-9.01,1.22c-3,.44-5.98.96-8.96,1.52-5.95,1.13-11.87,2.45-17.82,3.68-11.89,2.38-23.5,5.98-35.42,8.39-2.98.61-5.97,1.13-8.98,1.54-1.5.21-3.03.4-4.57.35-1.53-.07-3.07-.25-4.54-.74-1.46-.47-2.86-1.15-4.12-2.05-1.25-.9-2.33-2.03-3.2-3.3-.87-1.27-1.51-2.7-1.89-4.19-.36-1.5-.54-3-.78-4.5-.44-3.01-.79-6.02-1.06-9.05l-.4-4.53c-.16-1.51-.35-3.01-.59-4.5-.94-5.99-2.45-11.87-3.74-17.8,0-.02,0-.04.03-.04s.04,0,.04.03Z"/>
      <path class="cls-32" d="M248.2.04c-.45,3.1.37,6.19.36,9.31-.09,3.13-.72,6.23-1.82,9.16-1.1,2.93-2.71,5.66-4.63,8.12-1.91,2.45-3.7,5-5.33,7.64-1.63,2.65-3.11,5.38-4.42,8.2-.66,1.4-1.22,2.86-1.97,4.25-.73,1.39-1.6,2.71-2.6,3.92-2,2.43-4.48,4.44-7.19,6.01-2.69,1.61-5.62,2.77-8.5,3.93l-8.65,3.52c-2.88,1.18-5.81,2.25-8.37,3.99-2.58,1.68-4.89,3.78-6.82,6.19-.97,1.2-1.86,2.46-2.66,3.78-.8,1.32-1.49,2.7-2.22,4.08l-8.71,16.54-4.37,8.26c-1.49,2.71-2.76,5.56-3.45,8.56-.33,1.5-.52,3.03-.51,4.57.03,1.53.2,3.08.49,4.59.58,3.03,1.63,5.97,2.96,8.76,2.68,5.6,6.32,10.68,9.82,15.83,3.51,5.14,6.96,10.39,9.41,16.15,2.4,5.75,4.17,11.83,4.55,18.09.41,6.24-.82,12.57-3.49,18.22-2.63,5.69-6.69,10.6-11.25,14.84-2.28,2.13-4.69,4.12-7.14,6.04-2.46,1.9-4.82,3.93-6.94,6.2-4.27,4.51-7.67,9.82-10.02,15.56-1.18,2.87-2.1,5.84-2.84,8.86-.75,3.03-1.65,6.03-2.75,8.95-2.19,5.85-5.21,11.43-9.22,16.26l-1.54,1.77-1.63,1.7-3.38,3.22c-2.2,2.18-4.24,4.53-6.15,6.97-3.81,4.9-7.15,10.16-10.53,15.39-1.64,2.65-3.74,5.15-6.43,6.87-2.68,1.73-5.83,2.65-8.98,2.81-3.16.23-6.37-.34-9.28-1.6-1.45-.64-2.83-1.44-4.1-2.39-1.26-.96-2.41-2.06-3.45-3.25-2.03-2.43-3.59-5.23-4.65-8.19-1.07-2.97-1.69-6.07-2.01-9.19-.62-6.18-1.82-12.29-3.58-18.24-1.73-5.96-4.03-11.75-6.64-17.39-1.32-2.81-2.72-5.58-4.19-8.33-1.47-2.76-2.75-5.63-3.83-8.57-.53-1.46-1.07-2.98-1.27-4.56-.23-1.57-.26-3.16-.15-4.73.1-1.57.33-3.13.58-4.67.27-1.55.56-3.06.72-4.59.67-6.16-.37-12.41-2.52-18.21-2.22-5.79-4.92-11.43-8.34-16.61-1.71-2.59-3.6-5.06-5.7-7.35-2.11-2.27-4.32-4.49-6.93-6.15-2.59-1.68-5.54-2.8-8.6-3.26-3.06-.46-6.2-.3-9.25.26-6.12,1.14-11.86,3.81-18.03,4.84-.02,0-.04-.01-.04-.03,0-.02.01-.04.03-.04,6.15-1.08,11.85-3.79,18-4.99,3.07-.59,6.23-.78,9.34-.34,3.11.43,6.11,1.57,8.76,3.26,2.66,1.68,4.9,3.91,7.03,6.19,2.12,2.29,4.04,4.77,5.77,7.38,3.47,5.21,6.21,10.85,8.47,16.68,2.2,5.85,3.29,12.2,2.64,18.47-.15,1.56-.44,3.11-.7,4.64-.25,1.53-.47,3.06-.55,4.6-.09,1.54-.06,3.08.17,4.59.2,1.52.71,2.95,1.25,4.41,2.07,5.85,5.44,11.13,8.02,16.83,2.62,5.66,4.93,11.49,6.67,17.5,1.77,5.99,2.97,12.16,3.59,18.38.32,3.07.92,6.12,1.96,9.02,1.03,2.9,2.55,5.62,4.52,7.98,1.01,1.16,2.12,2.22,3.33,3.15,1.23.92,2.56,1.69,3.96,2.31,2.8,1.21,5.9,1.76,8.96,1.55,3.06-.16,6.09-1.05,8.65-2.7,2.59-1.65,4.6-4.03,6.23-6.66,3.39-5.22,6.73-10.5,10.59-15.42,1.94-2.45,4-4.81,6.24-7l3.4-3.2,1.61-1.67,1.53-1.75c3.98-4.75,7-10.26,9.2-16.06,1.1-2.9,2.01-5.88,2.77-8.89.76-3.03,1.7-6.02,2.9-8.91,2.38-5.78,5.83-11.12,10.14-15.65,2.14-2.27,4.53-4.32,7-6.21,2.46-1.91,4.86-3.88,7.14-6,4.56-4.21,8.6-9.08,11.23-14.72,2.68-5.6,3.84-11.9,3.42-18.1-.41-6.21-2.19-12.25-4.6-17.96-2.45-5.72-5.9-10.93-9.43-16.05-3.51-5.13-7.18-10.22-9.91-15.86-1.35-2.82-2.44-5.79-3.03-8.88-.3-1.54-.48-3.11-.51-4.69-.01-1.58.17-3.16.51-4.7.69-3.08,1.98-5.98,3.47-8.73l4.33-8.27,8.69-16.54c.73-1.37,1.44-2.78,2.26-4.12.81-1.34,1.73-2.63,2.72-3.84,1.98-2.44,4.34-4.58,6.98-6.29,1.32-.86,2.71-1.6,4.15-2.23,1.44-.63,2.89-1.18,4.33-1.77l8.67-3.49c2.9-1.16,5.79-2.29,8.45-3.87,2.68-1.54,5.12-3.5,7.09-5.88.99-1.18,1.85-2.47,2.57-3.84.73-1.35,1.3-2.81,1.97-4.22,1.33-2.82,2.83-5.57,4.47-8.22,1.65-2.65,3.45-5.21,5.39-7.65,1.93-2.42,3.54-5.11,4.66-8,1.12-2.89,1.77-5.97,1.89-9.07.04-3.1-.76-6.21-.27-9.32,0-.02.02-.03.04-.03s.03.02.03.04Z"/>
      <path class="cls-28" d="M270.2.03c1.5,5.18,3.14,10.33,5.38,15.23,1.12,2.45,2.41,4.82,3.88,7.07.36.57.74,1.12,1.14,1.66.38.55.79,1.09,1.2,1.62.81,1.07,1.7,2.07,2.68,2.98,3.9,3.72,9.13,5.7,14.41,6.52,5.3.88,10.72.72,16.06.13,10.68-1.33,21.31-3.32,31.95-5.06l7.97-1.35,7.95-1.5c2.66-.49,5.33-.93,8.02-1.22,2.69-.27,5.38-.49,8.08-.65,5.39-.32,10.83-.35,16.2.31,5.36.69,10.68,1.66,15.94,2.9,5.26,1.24,10.45,2.75,15.55,4.55,5.09,1.87,9.84,4.47,14.73,6.71,4.9,2.23,9.98,4.09,15.19,5.46,2.6.69,5.24,1.27,7.89,1.74,2.65.46,5.33.83,7.99,1.28,2.66.45,5.32.94,7.95,1.57,2.63.61,5.24,1.41,7.7,2.55,4.95,2.25,9.25,5.75,12.78,9.85,1.77,2.05,3.38,4.24,4.86,6.5,1.48,2.26,2.84,4.61,4.05,7.03,2.43,4.84,4.36,9.89,6.32,14.91,1.94,5.03,4.06,9.99,6.33,14.86,1.17,2.41,2.48,4.76,4.15,6.84,1.65,2.09,3.68,3.86,5.96,5.22,2.29,1.36,4.82,2.28,7.41,2.92,2.59.64,5.26.98,7.94,1.31,5.34.62,10.74.97,16.09,1.87,5.36.85,10.58,2.51,15.52,4.76,2.44,1.19,4.81,2.54,7.03,4.13,2.19,1.63,4.21,3.46,6.01,5.52,1.75,2.09,3.25,4.38,4.5,6.81,1.16,2.46,2.15,5.02,2.79,7.66,1.33,5.29,1.67,10.71,2.2,16.07.27,2.68.47,5.37,1.08,7.97.57,2.61,1.5,5.14,2.72,7.51,2.42,4.78,6.25,8.72,10.6,11.83,4.34,3.13,9.4,5.31,14.71,6.05,5.32.76,10.74.6,16.09,0l8.04-.85c2.68-.37,5.4-.46,8.1-.33,5.41.25,10.72,1.26,16.09,1.74.02,0,.04.02.03.04,0,.02-.02.04-.04.03-5.38-.43-10.71-1.38-16.09-1.58-2.69-.11-5.38.01-8.04.41l-8.05.91c-5.36.63-10.81.81-16.19.08-5.4-.72-10.54-2.91-14.96-6.06-4.42-3.12-8.35-7.11-10.85-11.98-1.26-2.42-2.21-4.99-2.81-7.65-.64-2.66-.85-5.37-1.13-8.05-.27-2.69-.52-5.37-.83-8.04-.16-1.34-.34-2.67-.55-3.99-.26-1.31-.47-2.64-.82-3.93-.63-2.6-1.6-5.1-2.73-7.52-1.22-2.37-2.69-4.61-4.4-6.66-1.76-2.01-3.74-3.81-5.88-5.41-2.17-1.56-4.5-2.89-6.91-4.06-4.87-2.22-10.02-3.87-15.33-4.71-5.3-.89-10.68-1.25-16.05-1.87-2.68-.33-5.37-.67-8.02-1.33-2.64-.65-5.24-1.6-7.59-3-2.35-1.4-4.45-3.23-6.14-5.38-1.71-2.14-3.04-4.53-4.21-6.98-2.26-4.92-4.36-9.89-6.27-14.94-1.94-5.03-3.84-10.08-6.23-14.9-1.19-2.41-2.52-4.75-3.99-7-1.46-2.26-3.04-4.44-4.79-6.48-3.48-4.08-7.73-7.56-12.62-9.8-2.43-1.13-5.01-1.93-7.63-2.55-2.62-.64-5.26-1.14-7.92-1.6-2.66-.46-5.32-.84-7.98-1.31-2.66-.48-5.3-1.07-7.9-1.77-5.22-1.4-10.32-3.21-15.25-5.43-4.92-2.22-9.68-4.8-14.74-6.63-5.08-1.77-10.27-3.25-15.52-4.46-5.25-1.21-10.56-2.15-15.9-2.82-5.34-.64-10.74-.58-16.11-.24-2.69.17-5.37.41-8.05.68-2.67.29-5.32.74-7.97,1.24l-7.95,1.54c-2.66.48-5.32.88-7.99,1.33-10.66,1.69-21.26,3.64-32,4.93-5.37.57-10.84.71-16.19-.2-5.32-.85-10.64-2.89-14.6-6.69-1-.93-1.89-1.96-2.71-3.04-.83-1.07-1.61-2.18-2.33-3.32-1.46-2.28-2.72-4.68-3.82-7.15-2.2-4.94-3.78-10.12-5.23-15.31,0-.02,0-.04.03-.05.02,0,.04,0,.05.03Z"/>
      <path class="cls-23" d="M278.91.32c.65.14,1.2.66,1.42,1.28.25.61.34,1.26.6,1.85.48,1.21.99,2.4,1.55,3.58,1.12,2.34,2.42,4.61,3.93,6.71,3,4.23,7.05,7.7,11.68,10,4.62,2.35,9.83,3.37,14.99,3.54,5.19.15,10.39-.01,15.57-.45,10.36-.86,20.61-2.75,30.8-4.85,5.1-1.05,10.2-2.09,15.34-2.98,5.13-.91,10.32-1.57,15.53-1.87,10.42-.63,20.83-.28,31.25-.08,5.24.26,10.37,1.82,14.98,4.28,2.31,1.23,4.51,2.64,6.59,4.22,2.06,1.6,4.11,3.18,6.33,4.54,4.4,2.75,9.21,4.85,14.25,6.15,2.51.65,5.07,1.11,7.65,1.4l7.77.73c5.18.53,10.36,1.18,15.43,2.47,5.06,1.33,9.85,3.67,13.97,6.91,4.14,3.21,7.53,7.32,10.29,11.74,2.8,4.41,5.1,9.13,6.97,14,.93,2.44,1.76,4.92,2.49,7.42.7,2.52,1.44,4.99,2.38,7.41.93,2.42,1.99,4.78,3.21,7.06,1.2,2.3,2.63,4.44,4.43,6.28,3.62,3.68,8.47,5.88,13.44,7.2,5.02,1.27,10.13,2.36,15.16,3.72,5.03,1.36,10.03,2.91,14.83,5,2.42,1,4.73,2.24,7.01,3.54,2.22,1.38,4.42,2.82,6.42,4.53,4.08,3.31,7.47,7.42,10.14,11.93,2.61,4.56,4.43,9.53,5.58,14.64,1.13,5.09,1.99,10.23,3.41,15.21,1.43,4.96,3.38,9.85,6.42,14.03,3.03,4.15,7.32,7.45,12.24,9.01,2.46.78,5.04,1.13,7.63,1.19,2.59.08,5.17-.22,7.77-.42,5.19-.4,10.42-.51,15.62-.09,2.6.21,5.19.54,7.75,1.03,2.55.55,5.11.98,7.67,1.46.02,0,.03.02.03.04,0,.02-.02.03-.04.03-2.56-.46-5.14-.86-7.68-1.38-2.56-.46-5.14-.77-7.73-.95-5.19-.37-10.4-.19-15.58.22-2.58.21-5.19.53-7.81.46-2.61-.04-5.24-.38-7.76-1.17-5.04-1.57-9.43-4.91-12.54-9.13-3.12-4.24-5.12-9.18-6.59-14.18-1.46-5.02-2.36-10.17-3.51-15.23-1.17-5.04-2.96-9.94-5.52-14.42-2.62-4.44-5.95-8.48-9.96-11.74-1.96-1.69-4.13-3.1-6.32-4.47-2.24-1.28-4.53-2.5-6.92-3.5-4.75-2.07-9.72-3.62-14.73-4.97-5.02-1.36-10.09-2.45-15.16-3.73-5.03-1.34-10.02-3.59-13.75-7.39-1.85-1.89-3.34-4.12-4.54-6.44-1.23-2.31-2.31-4.7-3.23-7.15-.93-2.44-1.67-4.97-2.35-7.47-.71-2.5-1.53-4.96-2.44-7.39-1.83-4.85-4.09-9.55-6.85-13.94-2.72-4.41-6.04-8.47-10.12-11.68-4.06-3.22-8.8-5.55-13.81-6.89-5.03-1.29-10.2-1.97-15.37-2.51l-7.77-.76c-2.59-.3-5.16-.77-7.69-1.44-5.04-1.32-9.9-3.38-14.34-6.13-2.23-1.35-4.32-2.94-6.38-4.52-2.08-1.56-4.27-2.95-6.57-4.16-4.58-2.42-9.66-3.93-14.83-4.16-10.39-.15-20.82-.47-31.19.21-10.39.6-20.56,2.91-30.77,4.92-10.2,2.06-20.48,3.91-30.88,4.73-5.2.41-10.42.56-15.63.38-5.21-.19-10.47-1.25-15.15-3.64-4.69-2.34-8.73-5.91-11.71-10.2-1.5-2.13-2.78-4.42-3.88-6.78-.55-1.18-1.05-2.39-1.52-3.6-.26-.61-.34-1.27-.58-1.86-.22-.61-.72-1.09-1.35-1.24-.02,0-.03-.02-.03-.05,0-.02.03-.03.05-.03Z"/>
      <path class="cls-29" d="M166.94,388.26c1.98-1.79,1.93-4.89,4.04-6.67,1.84-1.88,3.88-3.56,6.06-5.02,4.41-2.88,9.16-5.15,13.97-7.24,4.82-2.08,9.73-3.94,14.59-5.89,4.87-1.93,9.64-4.1,14.12-6.8,2.23-1.35,4.4-2.81,6.45-4.43,1.02-.81,2.03-1.64,2.97-2.53.94-.9,1.81-1.86,2.62-2.88,1.63-2.03,3.02-4.24,4.34-6.49,1.29-2.26,2.59-4.58,4.15-6.71,3.05-4.3,7.01-8.02,11.59-10.64,2.23-1.36,4.4-2.81,6.4-4.48,1.99-1.67,3.81-3.56,5.18-5.75,2.81-4.38,3.7-9.75,3.47-14.92-.23-5.21-1.82-10.28-3.99-15.02-2.2-4.75-4.59-9.42-7.29-13.91-1.36-2.23-2.76-4.46-4.33-6.54-1.58-2.04-3.5-3.93-5.91-4.93-1.17-.56-2.47-.78-3.76-.85-1.3-.06-2.58.2-3.83.55-2.47.82-4.7,2.26-6.67,3.97-3.98,3.41-6.9,7.87-9.35,12.47-1.2,2.33-2.56,4.59-3.92,6.83-.68,1.12-1.35,2.24-2,3.38-.65,1.13-1.25,2.3-1.95,3.42-2.77,4.49-6.64,8.25-10.98,11.21-8.7,6.02-19.11,8.81-27.71,14.79-2.13,1.5-4.18,3.12-6.04,4.94-1.86,1.83-3.57,3.8-5.1,5.9-3.02,4.24-5.35,8.96-6.94,13.93-1.61,4.96-2.55,10.13-3.13,15.31-.29,2.6-.46,5.2-.55,7.82-.04,1.31-.06,2.61-.06,3.92,0,1.32-.08,2.66-.31,3.98-.45,2.64-1.67,5.18-3.65,7.08-1.01.93-2.37,1.55-3.76,1.6-1.39.09-2.72-.23-3.99-.61-5.01-1.59-9.95-3.32-15.11-4.11-5.14-.87-10.38-1.14-15.58-.76-1.3.09-2.59.24-3.92.35-1.32.1-2.64.15-3.96.15-2.64,0-5.29-.23-7.89-.7-5.21-.93-10.23-2.87-14.69-5.7-4.41-2.88-8.61-6-13.12-8.66-2.25-1.34-4.56-2.55-6.95-3.61-2.38-1.07-4.83-1.99-7.38-2.53-1.27-.27-2.56-.43-3.86-.47-1.3-.04-2.6,0-3.78.51-1.18.45-2.19,1.34-2.75,2.47-.57,1.13-.72,2.45-.52,3.72l2.94,15.44,1.48,7.73.37,1.93c.11.65.12,1.32.12,1.97-.02,1.3-.05,2.65.54,3.83,0,.02,0,.04-.02.05s-.04,0-.05-.02c-.61-1.2-.59-2.57-.59-3.87,0-.65-.02-1.31-.14-1.95l-.39-1.93-1.55-7.71c-1.03-5.15-2.09-10.26-3.08-15.43-.21-1.32-.07-2.73.54-3.95.6-1.22,1.69-2.19,2.95-2.68,1.25-.54,2.64-.59,3.95-.56,1.32.03,2.64.19,3.94.46,2.6.53,5.08,1.45,7.49,2.52,2.41,1.05,4.76,2.26,7.02,3.6,4.54,2.65,8.8,5.76,13.18,8.59,4.41,2.77,9.36,4.65,14.48,5.53,2.56.45,5.16.65,7.76.66,1.3,0,2.6-.05,3.9-.15,1.29-.1,2.6-.26,3.92-.35,5.26-.38,10.56-.1,15.76.78,5.22.81,10.23,2.56,15.21,4.15,1.23.37,2.49.67,3.73.58,1.25-.04,2.4-.58,3.33-1.41,1.82-1.74,3-4.16,3.43-6.67.47-2.52.23-5.16.37-7.8.09-2.63.27-5.25.56-7.87.59-5.22,1.54-10.43,3.17-15.45,1.62-5.02,3.96-9.82,7.06-14.1,1.57-2.12,3.31-4.12,5.21-5.96,1.9-1.84,3.98-3.47,6.14-4.97,8.74-6,19.15-8.72,27.8-14.65,4.32-2.92,8.15-6.62,10.91-11.06.7-1.1,1.3-2.26,1.96-3.4.65-1.14,1.33-2.26,2.02-3.38,1.37-2.24,2.72-4.47,3.93-6.8,2.48-4.61,5.43-9.08,9.46-12.51,2-1.7,4.24-3.18,6.75-4.02,1.27-.36,2.58-.63,3.91-.58,1.32.07,2.66.29,3.86.86,2.48,1.01,4.44,2.93,6.05,4.99,1.6,2.1,3,4.32,4.38,6.55,2.73,4.49,5.15,9.16,7.37,13.91,2.2,4.76,3.84,9.88,4.09,15.18.14,2.64-.04,5.29-.57,7.89-.54,2.59-1.5,5.11-2.92,7.36-1.41,2.26-3.26,4.21-5.28,5.91-2.02,1.71-4.21,3.19-6.46,4.56-4.52,2.61-8.35,6.26-11.4,10.48-1.55,2.1-2.82,4.36-4.14,6.64-1.33,2.26-2.76,4.49-4.42,6.55-.83,1.03-1.72,2.01-2.68,2.92-.97.91-1.98,1.75-3.02,2.56-2.07,1.63-4.27,3.09-6.52,4.44-4.52,2.7-9.33,4.86-14.22,6.78-4.88,1.93-9.79,3.77-14.6,5.83-4.8,2.08-9.58,4.28-13.99,7.09-2.19,1.43-4.24,3.07-6.09,4.92-2.09,1.7-2.07,4.8-4.1,6.61-.02.01-.04.01-.05,0-.01-.02-.01-.04,0-.05Z"/>
      <path class="cls-6" d="M679.4,101.26c-7.42.46-14.86,1.27-22.33.73-3.71-.27-7.44-.52-11.12-1.24-3.67-.72-7.29-1.91-10.47-3.97-1.57-1.06-2.93-2.45-3.91-4.08-.99-1.64-1.58-3.43-2.15-5.21-1.09-3.59-1.63-7.33-1.85-11.06-.25-3.72-.36-7.44-.9-11.1-.58-3.62-1.34-7.39-3.69-10.23-2.26-2.88-5.69-4.74-9.31-5.31-3.64-.43-7.4,0-11.04.57-3.66.6-7.27,1.51-10.89,2.4-3.61.92-7.26,1.68-10.9,2.45-3.63.79-7.27,1.62-10.8,2.77-3.53,1.15-6.99,2.56-10.22,4.38-1.6.92-3.14,1.98-4.46,3.27-1.32,1.29-2.42,2.79-3.21,4.46-.78,1.66-1.29,3.46-1.43,5.3-.14,1.84.03,3.69.43,5.49.81,3.59,2.49,7.01,4.96,9.74,1.23,1.36,2.73,2.46,4.23,3.54,1.5,1.08,3.08,2.06,4.68,2.98,6.44,3.69,13.47,6.22,20.32,9.15,3.41,1.49,6.88,2.79,10.36,4.15,1.73.69,3.46,1.39,5.17,2.16,1.7.76,3.4,1.61,4.97,2.64,3.17,2.04,5.89,4.79,7.89,7.99,1,1.6,1.84,3.3,2.52,5.05.68,1.76,1.19,3.55,1.74,5.33,2.15,7.14,4.02,14.35,6.29,21.42,1.13,3.53,2.42,7.02,4.3,10.2,1.86,3.18,4.4,5.97,7.52,7.92,1.55,1,3.24,1.74,4.98,2.36,1.74.63,3.52,1.16,5.34,1.46,1.81.28,3.69.34,5.54.56,1.85.2,3.71.41,5.55.66,7.39.99,14.7,2.5,21.89,4.45.02,0,.03.03.03.05,0,.02-.03.03-.05.03-7.21-1.86-14.54-3.22-21.92-4.16-1.84-.24-3.69-.43-5.54-.61-1.85-.2-3.7-.25-5.57-.52-1.86-.29-3.67-.82-5.43-1.44-1.76-.61-3.51-1.37-5.1-2.37-3.22-1.97-5.85-4.83-7.77-8.06-1.94-3.23-3.28-6.76-4.44-10.3-2.35-7.08-4.16-14.32-6.31-21.44-.55-1.78-1.06-3.57-1.72-5.28-.66-1.72-1.47-3.38-2.45-4.93-1.94-3.12-4.58-5.79-7.67-7.78-1.54-1.01-3.18-1.83-4.88-2.59-1.69-.77-3.41-1.47-5.13-2.16-3.46-1.36-6.96-2.67-10.37-4.17-6.83-2.91-13.87-5.5-20.34-9.28-1.61-.94-3.2-1.94-4.71-3.05-1.5-1.1-3.02-2.23-4.28-3.65-2.51-2.82-4.19-6.32-5-9.98-.4-1.84-.56-3.73-.41-5.61.15-1.88.68-3.72,1.49-5.42.81-1.7,1.95-3.24,3.3-4.54,1.35-1.31,2.92-2.37,4.54-3.29,6.56-3.64,13.86-5.56,21.11-7.17,3.64-.79,7.27-1.57,10.88-2.51,3.61-.91,7.22-1.85,10.9-2.48,3.68-.6,7.41-1.07,11.19-.64,3.74.56,7.3,2.46,9.68,5.45,1.21,1.47,2.08,3.2,2.63,5.01.56,1.8.96,3.63,1.24,5.49.57,3.71.7,7.45.91,11.15.2,3.7.71,7.39,1.76,10.93.55,1.75,1.13,3.54,2.06,5.1.93,1.57,2.23,2.91,3.73,3.94,3.07,2.02,6.65,3.22,10.27,3.96,3.63.74,7.35,1.01,11.06,1.3,7.41.57,14.86-.07,22.3-.43.02,0,.04.02.04.04,0,.02-.01.04-.04.04Z"/>
      <path class="cls-30" d="M201.29.38c-6.28,8.92-13.67,16.99-20.29,25.62-3.36,4.27-6.19,8.96-9.85,13.06-3.58,4.14-7.99,7.67-13.06,9.82-5.09,2-10.18,3.89-15.27,5.83-2.53.99-5.12,1.86-7.6,2.98-2.49,1.1-4.93,2.3-7.3,3.63-4.73,2.67-9.16,5.93-12.9,9.87-1.87,1.97-3.58,4.09-5.1,6.33-.73,1.15-1.47,2.28-2.1,3.48-.69,1.17-1.26,2.4-1.77,3.65-1.01,2.51-1.69,5.15-2.1,7.83-.22,1.34-.34,2.68-.47,4.04-.11,1.37-.38,2.73-.72,4.06-.39,1.32-.86,2.63-1.51,3.86-.66,1.22-1.44,2.38-2.36,3.41-1.86,2.07-4.2,3.66-6.69,4.82-1.25.6-2.54,1.07-3.8,1.56l-3.79,1.52c-2.52,1.03-5.02,2.1-7.53,3.17-5.01,2.14-10.02,4.3-15.11,6.26-5.09,1.91-10.28,3.85-15.74,4.55-5.44.74-10.99.56-16.37-.49-5.39-1.03-10.55-2.98-15.46-5.35-4.92-2.37-9.61-5.15-14.37-7.8-.02-.01-.02-.03-.01-.05,0-.02.03-.02.05-.01,4.8,2.57,9.57,5.23,14.49,7.53,4.92,2.32,10.06,4.19,15.4,5.15,5.33.98,10.81,1.1,16.16.31,5.37-.75,10.5-2.6,15.58-4.52,5.08-1.94,10.08-4.09,15.1-6.22,2.51-1.07,5.02-2.13,7.54-3.16l3.8-1.52c1.28-.5,2.55-.96,3.76-1.54,2.44-1.13,4.69-2.67,6.49-4.64.9-.99,1.66-2.1,2.31-3.26.64-1.18,1.11-2.44,1.5-3.72.34-1.3.62-2.62.74-3.96.15-1.35.28-2.72.52-4.07.45-2.7,1.16-5.37,2.21-7.9,2.18-5.04,5.35-9.59,9.15-13.52,1.89-1.98,3.97-3.76,6.15-5.4,2.19-1.63,4.45-3.17,6.82-4.52,2.37-1.36,4.81-2.59,7.29-3.71,2.48-1.15,5.05-2.04,7.58-3.06,5.07-1.99,10.18-3.93,15.21-5.96,4.98-2.14,9.22-5.68,12.8-9.73,3.65-4.01,6.52-8.68,9.93-12.95,6.7-8.61,14.13-16.6,20.63-25.35.01-.02.04-.02.05,0,.02.01.02.04,0,.05Z"/>
      <path class="cls-7" d="M679.11,268.37c-1.31,5.01-3.01,9.93-5.18,14.64-.55,1.18-1.09,2.35-1.73,3.49-.66,1.13-1.45,2.19-2.36,3.13-1.83,1.89-4.15,3.27-6.61,4.14-2.47.88-5.07,1.3-7.66,1.53-2.59.24-5.2.25-7.79.18-5.16-.21-10.32.04-15.48.38-5.17.37-10.37.31-15.4,1.49-2.52.52-4.98,1.33-7.38,2.26-2.4.95-4.69,2.14-6.9,3.47-2.2,1.35-4.28,2.9-6.23,4.58-1.92,1.72-3.74,3.56-5.42,5.52-1.66,1.98-3.22,4.04-4.79,6.1-1.56,2.06-3.09,4.15-4.48,6.32-.69,1.09-1.35,2.2-1.96,3.33-.61,1.14-1.19,2.28-1.46,3.51-.28,1.23-.22,2.5.17,3.7.36,1.2,1.06,2.28,1.69,3.42,2.55,4.5,5.2,8.96,7.42,13.66,1.12,2.35,2.06,4.77,3.05,7.15.99,2.39,2.02,4.75,3.15,7.07,2.27,4.61,4.92,9.1,8.63,12.63,1.84,1.76,3.93,3.28,6.2,4.43,2.28,1.14,4.73,1.93,7.25,2.38,2.52.45,5.09.56,7.66.46,2.57-.08,5.14-.37,7.68-.77,2.54-.42,5.07-.97,7.56-1.63,1.25-.32,2.49-.67,3.73-1.04,1.23-.38,2.5-.74,3.77-.98,1.28-.25,2.56-.43,3.86-.55,1.3-.14,2.66-.01,3.87.52,2.46,1.06,4.03,3.38,5.09,5.71,0,.02,0,.04-.02.05-.02,0-.04,0-.05-.02-1.1-2.3-2.71-4.55-5.11-5.52-1.18-.49-2.48-.59-3.75-.43-1.28.16-2.56.34-3.82.6-1.27.25-2.49.62-3.73,1.01-1.24.38-2.48.75-3.73,1.09-2.5.69-5.03,1.27-7.59,1.72-2.56.44-5.15.76-7.75.87-2.59.13-5.23.05-7.81-.39-2.58-.43-5.11-1.23-7.46-2.41-2.35-1.19-4.5-2.74-6.39-4.55-3.82-3.63-6.55-8.19-8.8-12.85-1.13-2.34-2.15-4.73-3.13-7.13-.99-2.4-1.91-4.81-3.01-7.14-2.19-4.67-4.78-9.15-7.28-13.68-.6-1.13-1.32-2.25-1.7-3.54-.4-1.27-.45-2.67-.14-3.96.3-1.3.92-2.49,1.54-3.62.63-1.14,1.31-2.25,2.02-3.33,1.42-2.18,2.96-4.26,4.55-6.31,1.59-2.05,3.16-4.1,4.84-6.08,1.7-1.96,3.54-3.79,5.49-5.51,1.98-1.67,4.03-3.27,6.24-4.64,2.21-1.35,4.51-2.58,6.92-3.56,2.41-.96,4.88-1.79,7.42-2.35,2.54-.56,5.11-.99,7.7-1.16l7.75-.53c5.16-.34,10.36-.68,15.54-.4,2.58.1,5.16.1,7.72-.11,2.56-.21,5.12-.61,7.54-1.44,2.41-.83,4.67-2.15,6.46-3.97.9-.91,1.67-1.93,2.33-3.03.64-1.1,1.19-2.29,1.74-3.45,2.2-4.67,4.05-9.52,5.46-14.5,0-.02.03-.03.05-.03.02,0,.03.03.03.05Z"/>
      <path class="cls-2" d="M510.24.03c1.03,4.73,1.87,9.5,3.02,14.19.27,1.18.65,2.32.97,3.48.42,1.13.76,2.29,1.26,3.38.9,2.23,2.07,4.35,3.39,6.35,2.65,4.01,6.09,7.47,10,10.26,1.94,1.42,4,2.66,6.12,3.8,1.06.58,2.14,1.11,3.23,1.61,1.08.52,2.19.98,3.32,1.37,4.52,1.62,9.34,2.34,14.14,2.69,4.81.44,9.62-.36,14.43-.83,9.63-1.03,18.93-3.86,28.34-6.11,2.35-.57,4.71-1.12,7.09-1.59,2.37-.49,4.78-.88,7.22-1,4.85-.29,9.87.45,14.26,2.68,2.18,1.1,4.27,2.49,5.94,4.33,1.66,1.83,2.91,4.03,3.72,6.35,1.65,4.66,1.86,9.6,2.17,14.41.28,4.81.73,9.66,2.6,14.07,1.82,4.41,5.27,8.08,9.56,10.22,4.28,2.17,9.09,3.16,13.9,3.44,4.82.31,9.66.09,14.5.28.02,0,.04.02.04.04,0,.02-.02.04-.04.04-4.84-.09-9.67.27-14.52.01-4.84-.23-9.72-1.16-14.12-3.33-4.41-2.13-8.04-5.89-9.97-10.42-1.99-4.53-2.41-9.5-2.72-14.31-.31-4.81-.57-9.68-2.13-14.2-.77-2.25-1.95-4.35-3.53-6.11-1.58-1.77-3.58-3.11-5.7-4.2-4.26-2.18-9.13-2.96-13.92-2.73-2.4.09-4.78.45-7.15.91-2.37.44-4.73.96-7.09,1.51-9.41,2.21-18.77,4.82-28.4,5.99-4.79.53-9.62,1.37-14.49.98-4.83-.31-9.7-.94-14.32-2.54-1.15-.4-2.29-.86-3.39-1.38-1.1-.51-2.2-1.04-3.27-1.61-2.15-1.14-4.24-2.39-6.19-3.86-3.93-2.86-7.4-6.41-10.05-10.5-1.31-2.05-2.48-4.2-3.37-6.46-.5-1.11-.83-2.28-1.24-3.43-.32-1.17-.68-2.33-.94-3.52-1.11-4.72-1.79-9.52-2.72-14.26,0-.02,0-.04.03-.04.02,0,.04,0,.04.03Z"/>
      <path class="cls-24" d="M50.53.39c-1.76,1.95-2.94,4.31-4.1,6.65-.58,1.17-1.17,2.35-1.85,3.48-.69,1.13-1.4,2.22-2.1,3.33l-8.45,13.26-4.22,6.63c-1.39,2.22-2.86,4.4-4.16,6.65-2.6,4.49-4.72,9.38-5.04,14.59-.17,2.59.17,5.18.58,7.76.43,2.57,1.02,5.12,1.86,7.59.84,2.47,1.9,4.86,3.29,7.07,1.39,2.2,3.07,4.23,5,5.98.95.9,2,1.66,3.12,2.33,1.13.64,2.34,1.14,3.6,1.47,1.27.3,2.56.46,3.86.46,1.3-.03,2.6-.15,3.87-.42,2.55-.53,5.02-1.43,7.39-2.52,2.37-1.09,4.65-2.38,6.81-3.84,2.16-1.47,4.21-3.09,6.13-4.86,1.9-1.78,3.82-3.59,5.77-5.34,3.91-3.5,7.96-6.84,12.1-10.07,8.26-6.47,16.78-12.58,25.14-18.89,4.17-3.15,8.09-6.62,12.07-10.03,3.96-3.43,8-6.8,12.19-9.95,4.16-3.18,8.4-6.27,12.42-9.62,1.98-1.7,3.89-3.5,5.57-5.49,1.68-2,3.13-4.2,4.23-6.57,0-.02.03-.03.05-.02.02,0,.03.03.02.05-2.1,4.84-5.67,8.9-9.63,12.32-4,3.41-8.2,6.54-12.33,9.77-8.35,6.32-15.74,13.8-24.15,20.14-8.38,6.31-16.91,12.4-25.16,18.85-4.12,3.23-8.19,6.52-12.14,9.96-1.97,1.72-3.88,3.5-5.82,5.27-1.96,1.76-4.04,3.38-6.23,4.83-2.19,1.46-4.49,2.75-6.89,3.82-2.39,1.08-4.89,1.97-7.48,2.49-1.29.26-2.61.38-3.93.39-1.32-.01-2.64-.18-3.92-.5-1.27-.36-2.5-.85-3.66-1.49-1.14-.67-2.22-1.44-3.18-2.34-1.97-1.75-3.69-3.78-5.11-6-1.43-2.22-2.53-4.63-3.4-7.12-.87-2.49-1.49-5.06-1.94-7.65-.44-2.58-.81-5.22-.66-7.88.3-5.32,2.36-10.37,5.04-14.88,1.34-2.27,2.82-4.43,4.23-6.64l4.28-6.59,8.56-13.19,2.14-3.29c.69-1.1,1.3-2.26,1.91-3.42,1.21-2.31,2.45-4.67,4.27-6.59.01-.02.04-.02.05,0,.01.01.02.04,0,.05Z"/>
      <path class="cls-1" d="M516.71.03c.92,4.43,2.39,8.75,4.47,12.75,2.07,4,4.82,7.65,8.11,10.72,3.28,3.08,7.08,5.59,11.12,7.57,4.04,1.98,8.31,3.52,12.67,4.66,4.33,1.24,8.85,1.77,13.36,1.75,4.52,0,9.03-.51,13.49-1.27,4.47-.71,8.85-1.87,13.24-3,4.39-1.12,8.83-2.14,13.34-2.66,4.5-.58,9.05-.91,13.6-.74,4.54.18,9.1.88,13.44,2.31,2.18.68,4.27,1.6,6.33,2.62,2.04,1.07,3.94,2.47,5.42,4.27,1.52,1.77,2.56,3.9,3.25,6.09.67,2.21,1.02,4.49,1.16,6.77.3,4.56-.09,9.1.22,13.58.14,2.24.49,4.47,1.15,6.6.67,2.13,1.7,4.15,3.15,5.83,1.46,1.68,3.3,3.02,5.34,3.93,2.04.91,4.23,1.54,6.41,2.1,4.37,1.08,8.98,1.44,13.41.44.02,0,.04,0,.04.03,0,.02,0,.04-.03.04-4.42,1.1-9.1.89-13.52-.15-2.21-.54-4.4-1.13-6.51-2.04-2.1-.91-4.03-2.26-5.56-3.99-1.53-1.73-2.62-3.82-3.34-6-.71-2.19-1.09-4.47-1.26-6.74-.37-4.56.04-9.1-.28-13.59-.15-2.24-.49-4.46-1.14-6.59-.67-2.11-1.67-4.13-3.1-5.82-2.81-3.48-7.17-5.24-11.37-6.72-4.27-1.42-8.74-2.17-13.24-2.41-4.51-.23-9.03.05-13.52.57-9.01.94-17.64,3.98-26.58,5.53-4.46.8-8.98,1.36-13.53,1.42-4.54.06-9.13-.38-13.52-1.58-4.4-1.15-8.73-2.62-12.8-4.68-4.07-2.05-7.89-4.63-11.18-7.78-3.3-3.14-6.05-6.86-8.1-10.92-2.06-4.06-3.38-8.46-4.2-12.91,0-.02,0-.04.03-.04.02,0,.04,0,.04.03Z"/>
      <path class="cls-36" d="M188.03.05c-2,4.64-4.87,8.84-7.77,12.95-2.88,4.12-5.8,8.25-9.02,12.14-3.21,3.89-6.71,7.57-10.62,10.79-3.87,3.29-8.37,5.74-12.91,7.91-4.57,2.14-9.21,4.09-13.69,6.38-4.49,2.27-8.87,4.75-13.1,7.48-4.23,2.73-8.26,5.76-12.03,9.09-3.75,3.34-7.35,6.89-10.44,10.84-1.54,1.98-2.94,4.07-4.11,6.28l-1.83,3.31c-.63,1.09-1.34,2.14-2.01,3.22-2.8,4.21-6.12,8.09-9.91,11.46-7.56,6.78-16.77,11.52-26.39,14.58-1.2.41-2.42.74-3.63,1.09-1.21.37-2.45.64-3.69.93-2.49.5-5.03.79-7.57.83-5.09.1-10.16-.87-14.91-2.6-2.37-.89-4.67-1.97-6.88-3.21-2.22-1.22-4.29-2.68-6.36-4.11-4.12-2.88-8.09-6.19-10.83-10.45-.01-.02,0-.04.01-.05.02-.01.04,0,.05.01,2.82,4.2,6.85,7.36,10.98,10.19,2.09,1.4,4.16,2.83,6.37,4.01,2.2,1.2,4.48,2.24,6.84,3.09,4.72,1.65,9.72,2.55,14.71,2.39,2.49-.08,4.98-.36,7.43-.85,1.21-.29,2.43-.56,3.63-.93,1.21-.35,2.42-.68,3.6-1.09,9.52-3.08,18.64-7.71,26.15-14.37,3.75-3.31,7.08-7.11,9.9-11.25.67-1.06,1.39-2.09,2.03-3.17l1.86-3.28c1.21-2.23,2.65-4.32,4.22-6.3,6.38-7.86,14.27-14.33,22.64-19.92,4.21-2.78,8.58-5.31,13.06-7.63,4.47-2.34,9.09-4.38,13.62-6.56,4.53-2.17,8.91-4.65,12.77-7.85,3.9-3.15,7.41-6.77,10.64-10.61,3.24-3.84,6.18-7.93,9.1-12.03,2.94-4.08,5.93-8.16,8.01-12.76,0-.02.03-.03.05-.02.02,0,.03.03.02.05Z"/>
      <path class="cls-27" d="M177.99.39c-1.67,1.75-2.77,3.93-3.84,6.08-.54,1.08-1.08,2.16-1.71,3.2-.65,1.02-1.29,2.05-1.99,3.04-2.74,3.99-5.87,7.71-9.31,11.11-3.45,3.4-7.23,6.46-11.24,9.18-4.01,2.74-8.35,4.9-12.51,7.32-8.4,4.75-16.62,9.81-24.5,15.38-3.95,2.77-7.77,5.72-11.48,8.8-3.73,3.05-7.22,6.4-10.48,9.94-1.63,1.77-3.2,3.6-4.73,5.46-1.53,1.85-2.96,3.8-4.54,5.65-3.11,3.71-6.51,7.19-10.25,10.28-3.73,3.1-7.77,5.83-12.06,8.1-4.29,2.26-8.88,4.05-13.67,4.96-4.78.87-9.77.96-14.52-.22-4.77-1.07-9.19-3.4-13.02-6.38-3.83-3.01-7.03-6.7-9.95-10.54-2.9-3.87-5.42-8.01-7.85-12.17-.01-.02,0-.04.01-.05.02-.01.04,0,.05.01,2.52,4.12,5.15,8.17,8.08,11.99,2.95,3.79,6.19,7.42,9.99,10.34,3.81,2.89,8.17,5.11,12.85,6.11,4.66,1.09,9.52,1.03,14.22.15,4.7-.9,9.19-2.69,13.45-4.89,4.25-2.22,8.27-4.9,11.98-7.95,3.71-3.06,7.13-6.46,10.26-10.11,1.58-1.81,3.03-3.74,4.59-5.59,1.55-1.85,3.15-3.67,4.81-5.43,6.56-7.14,14.33-12.98,22.1-18.69,7.83-5.66,16.01-10.81,24.35-15.69,4.18-2.43,8.46-4.66,12.46-7.32,4-2.66,7.79-5.66,11.24-9.01,3.46-3.35,6.6-7.02,9.36-10.96.71-.97,1.34-2,2.02-2.99.64-1.01,1.21-2.07,1.77-3.14,1.12-2.13,2.28-4.3,4.01-6.02.01-.01.04-.01.05,0,.01.01.01.04,0,.05Z"/>
      <path class="cls-40" d="M168.29.39c-1.69,1.64-2.75,3.77-3.8,5.86-.53,1.05-1.07,2.1-1.71,3.09-.65.98-1.34,1.93-2.07,2.86-2.91,3.71-6.35,6.97-10.02,9.91-3.67,2.95-7.55,5.6-11.43,8.24l-11.62,7.93c-7.75,5.29-15.42,10.69-22.98,16.24-3.79,2.76-7.52,5.61-11.21,8.5-3.72,2.85-7.18,6.03-10.44,9.39-3.27,3.35-6.25,6.99-9.63,10.27-3.35,3.3-6.94,6.38-10.81,9.07-1.94,1.35-3.94,2.59-6.01,3.73-2.07,1.13-4.19,2.19-6.44,2.97-4.44,1.65-9.3,2.25-14.03,1.63-2.36-.36-4.66-1.03-6.84-1.98-2.14-1.03-4.2-2.26-6-3.82-3.69-3.05-6.25-7.14-8.66-11.14-2.42-4.03-4.62-8.18-6.86-12.3-2.12-4.18-5.04-7.89-7.4-11.96-.01-.02,0-.04.01-.05.02-.01.04,0,.05.01,2.43,4.01,5.47,7.63,7.65,11.82,2.29,4.09,4.54,8.21,7,12.2,2.46,3.97,5.03,7.95,8.66,10.87,1.78,1.49,3.78,2.68,5.86,3.68,2.12.91,4.35,1.56,6.64,1.9,4.59.6,9.3,0,13.66-1.6,2.19-.75,4.29-1.78,6.34-2.89,2.05-1.11,4.04-2.33,5.97-3.65,3.84-2.65,7.44-5.66,10.81-8.9,3.4-3.22,6.41-6.82,9.74-10.15,6.51-6.83,14.36-12.11,21.77-17.83,7.51-5.63,15.12-11.12,22.8-16.52,3.86-2.68,7.71-5.36,11.61-7.96,3.9-2.6,7.8-5.21,11.47-8.11,3.67-2.89,7.12-6.09,10.04-9.75.73-.91,1.42-1.86,2.09-2.81.66-.96,1.22-1.99,1.77-3.02,1.1-2.06,2.22-4.19,3.97-5.8.02-.01.04-.01.05,0,.01.01.01.04,0,.05Z"/>
      <path class="cls-31" d="M69.94.38c-4.7,6.46-9.79,12.63-14.4,19.13-4.61,6.5-8.73,13.38-11.55,20.82-1.46,3.69-2.41,7.58-2.69,11.54-.15,1.98-.12,3.97.06,5.95.19,1.95.94,3.85,2.11,5.43,1.16,1.58,2.77,2.89,4.64,3.52,1.87.63,3.92.63,5.82.12,3.84-1.03,7.49-2.71,10.92-4.72,3.44-2.01,6.62-4.41,9.89-6.71l9.75-6.95c3.23-2.34,6.43-4.72,9.56-7.18,1.55-1.24,3.14-2.47,4.62-3.77,1.48-1.31,2.87-2.73,4.19-4.21,2.65-2.96,4.97-6.2,7.44-9.35,2.49-3.14,5.13-6.16,7.99-8.97,2.86-2.81,5.93-5.4,9.22-7.69,1.64-1.17,3.4-2.11,4.89-3.43,1.53-1.27,3.02-2.64,4.8-3.59.02,0,.04,0,.05.02,0,.02,0,.04-.01.05-1.74.99-3.18,2.39-4.68,3.7-1.48,1.37-3.23,2.38-4.83,3.55-3.24,2.31-6.25,4.94-9.05,7.77-2.8,2.83-5.38,5.87-7.81,9.02-2.4,3.17-4.76,6.42-7.42,9.43-1.33,1.5-2.73,2.95-4.24,4.29-1.52,1.34-3.09,2.55-4.66,3.79-3.16,2.45-6.38,4.82-9.63,7.14-3.25,2.33-6.54,4.59-9.83,6.85-3.29,2.25-6.53,4.62-10.02,6.59-3.47,1.99-7.16,3.64-11.05,4.65-1.95.51-4.06.49-5.97-.18-1.91-.67-3.58-1.95-4.79-3.57-1.22-1.61-2.01-3.55-2.24-5.57-.2-2-.25-4.01-.13-6.01.25-4.01,1.1-7.98,2.54-11.73,2.76-7.55,7.02-14.44,11.72-20.9,4.69-6.48,9.84-12.59,14.76-18.88.01-.02.04-.02.05,0,.02.01.02.04,0,.05Z"/>
      <path class="cls-26" d="M523.83.03c2.12,6.06,5.52,11.71,10.31,15.96,4.77,4.29,10.68,7.09,16.8,8.9,6.12,1.91,12.57,2.67,18.99,2.42,3.21-.1,6.4-.54,9.58-1.03,3.18-.5,6.34-1.07,9.51-1.65,3.16-.59,6.33-1.18,9.51-1.68,3.19-.61,6.47-.54,9.64-.78,1.58-.12,3.17-.43,4.79-.56,1.61-.16,3.23-.25,4.84-.3,3.23-.12,6.45-.07,9.65-.15,3.21-.08,6.41-.28,9.56-.8,3.14-.46,6.24-1.49,8.72-3.47,2.5-1.95,4.23-4.76,5.31-7.76.54-1.52,1.13-3.01,1.55-4.56.21-.77.38-1.56.47-2.35.07-.4.04-.79.14-1.21.12-.43.57-.67.97-.69.02,0,.04.01.04.03,0,.02-.01.04-.03.04-.39.04-.77.26-.86.64-.07.36-.04.8-.09,1.19-.07.81-.21,1.6-.4,2.39-.37,1.58-.91,3.1-1.43,4.62-1.03,3.06-2.75,5.98-5.31,8.06-2.54,2.1-5.75,3.22-8.94,3.75-3.19.6-6.44.76-9.66.87l-9.65.16c-1.6.04-3.2.12-4.8.26-1.59.11-3.17.41-4.8.52-3.24.23-6.44.09-9.6.64-3.18.45-6.35.98-9.53,1.52-6.34,1.08-12.7,2.18-19.14,2.57-6.44.34-12.96-.31-19.17-2.11-3.1-.9-6.16-2.02-9.03-3.54-2.86-1.52-5.56-3.38-7.94-5.57-2.39-2.19-4.45-4.73-6.14-7.49-1.69-2.76-2.94-5.76-3.9-8.83,0-.02,0-.04.02-.05.02,0,.04,0,.05.02Z"/>
      <path class="cls-34" d="M.39,250.88c1.72,2.49,3.95,4.56,6.31,6.42,2.36,1.87,4.89,3.52,7.34,5.32,4.9,3.54,9.82,7.07,14.68,10.66,2.44,1.77,4.88,3.64,6.92,5.9,2.08,2.23,3.81,4.76,5.16,7.48,1.3,2.74,2.23,5.67,2.65,8.68.41,3.01.38,6.07.01,9.09-.37,3.02-1.02,5.99-1.78,8.92-.75,2.93-1.53,5.85-2.33,8.77-.79,2.92-1.57,5.84-2.31,8.76l-1.08,4.4c-.35,1.44-.63,3.01-1.38,4.4-.72,1.4-1.81,2.62-3.14,3.47-1.32.87-2.83,1.38-4.34,1.66-2.99.54-5.99.94-9.01,1.26-3.01.32-6.03.56-9.05.76l-2.26.14c-.76.04-1.5.07-2.24.22-1.46.27-2.99.74-4.5.4-.02,0-.03-.02-.03-.04,0-.02.02-.03.04-.03,1.5.28,2.97-.23,4.44-.56.74-.18,1.52-.24,2.26-.31l2.26-.19c3.01-.26,6.02-.55,9.01-.93,2.99-.37,5.98-.84,8.93-1.42,1.44-.31,2.85-.79,4.06-1.59,1.22-.79,2.2-1.9,2.86-3.19.69-1.29.95-2.74,1.3-4.23.35-1.47.71-2.94,1.09-4.41.77-2.93,1.57-5.84,2.39-8.76l2.45-8.73c.81-2.91,1.51-5.84,1.93-8.82.41-2.98.54-6.01.13-9-.39-2.98-1.28-5.9-2.62-8.6-1.35-2.69-3.12-5.17-5.23-7.31-2.08-2.19-4.5-3.95-6.99-5.69-4.91-3.53-9.79-7.11-14.65-10.7-2.41-1.81-4.9-3.54-7.24-5.48-2.34-1.93-4.48-4.14-6.12-6.69-.01-.02,0-.04.01-.05.02-.01.04,0,.05.01Z"/>
      <path class="cls-20" d="M291.55.02c1.97,4.86,5.24,9.17,9.5,12.16,4.24,3.04,9.23,4.84,14.3,6.05,5.07,1.2,10.34,1.87,15.56,1.33,5.22-.51,10.44-1.13,15.61-2.01,5.18-.83,10.26-2.13,15.37-3.35,5.1-1.25,10.17-2.58,15.22-3.99,5.04-1.43,10.07-2.93,15.05-4.58,4.93-1.79,9.86-3.59,14.82-5.31.02,0,.04,0,.05.02,0,.02,0,.04-.02.05-4.87,1.96-9.77,3.87-14.67,5.76-4.95,1.77-9.95,3.4-15.02,4.82-5.05,1.46-10.15,2.73-15.27,3.93-5.11,1.18-10.26,2.34-15.47,3.07-5.2.76-10.43,1.27-15.65,1.86-5.24.56-10.57.14-15.72-.99-5.14-1.14-10.21-3.03-14.5-6.19-2.14-1.57-4.03-3.47-5.59-5.61-1.56-2.14-2.75-4.52-3.65-6.99,0-.02,0-.04.02-.05s.04,0,.05.02Z"/>
      <path class="cls-38" d="M283.71,388.61c.27-2.64.74-5.24.92-7.87.21-2.62.18-5.27-.34-7.82-.25-1.28-.67-2.51-1.16-3.72-.55-1.18-1.15-2.33-1.94-3.36-1.54-2.08-3.55-3.81-5.82-5.08-2.25-1.32-4.73-2.24-7.25-2.98-1.27-.36-2.54-.67-3.84-.84-1.3-.14-2.62-.2-3.93-.1-5.29.33-10.23,2.46-15.11,4.42-9.82,3.94-19.79,7.45-29.78,10.92-4.99,1.74-10.02,3.36-14.67,5.82-1.16.61-2.3,1.27-3.39,1.99-1.08.73-2.06,1.6-2.99,2.53-1.85,1.86-3.51,3.94-5.41,5.79-.02.01-.04.01-.05,0-.01-.01-.01-.04,0-.05,1.82-1.91,3.36-4.07,5.2-5.99.92-.96,1.9-1.87,3-2.64,1.1-.76,2.23-1.46,3.39-2.1,4.65-2.59,9.69-4.36,14.68-6.07,9.96-3.53,20-6.84,29.88-10.57,4.93-1.85,9.91-3.88,15.24-4.29,2.65-.21,5.34.1,7.9.79,2.56.68,5.11,1.53,7.45,2.84,2.34,1.29,4.48,3.04,6.05,5.23.81,1.08,1.42,2.29,1.97,3.51.49,1.25.91,2.53,1.16,3.85.51,2.64.44,5.34.17,7.97-.25,2.64-.87,5.23-1.24,7.83h0s-.02.04-.04.04c-.02,0-.03-.02-.03-.04Z"/>
      <path class="cls-21" d="M679.4,109.67c-10.17.66-20.41,1.59-30.07,4.85-2.43.77-4.76,1.76-6.83,3.23-2.07,1.44-3.82,3.36-5.09,5.55-1.28,2.19-2.12,4.63-2.57,7.13-.48,2.5-.63,5.05-.49,7.58.13,2.53.53,5.05,1.13,7.52.59,2.46,1.51,4.83,2.79,6.99,2.55,4.36,6.65,7.66,11.28,9.6,4.64,2.03,9.81,2.32,14.82,3.35,5.03.92,10.02,1.95,15.03,2.96.02,0,.03.02.03.04,0,.02-.02.03-.04.03-5.05-.76-10.07-1.69-15.11-2.5-2.52-.41-5.04-.76-7.57-1.12-2.55-.37-5.06-1.05-7.45-2.04-2.38-1-4.65-2.32-6.63-4.01-1.98-1.68-3.66-3.71-4.96-5.95-1.31-2.24-2.2-4.7-2.75-7.22-.56-2.51-.9-5.06-.98-7.63-.09-2.57.15-5.14.64-7.65.49-2.52,1.35-4.96,2.61-7.21.65-1.11,1.38-2.18,2.24-3.13.83-.98,1.8-1.85,2.83-2.63,2.06-1.55,4.45-2.66,6.87-3.48,9.73-3.41,20.09-4.18,30.27-4.34.02,0,.04.02.04.04,0,.02-.02.04-.04.04Z"/>
      <path class="cls-5" d="M510.17,388.62c-.6-2.58-1.94-4.97-3.85-6.76-.95-.9-2.03-1.65-3.19-2.25-1.16-.62-2.39-1.03-3.65-1.51-4.98-1.88-9.8-4.21-14.33-7.03-4.53-2.82-8.74-6.1-12.74-9.59-3.98-3.47-8.66-6.24-13.74-7.66-2.53-.71-5.17-1.07-7.78-.88-2.6.23-5.14,1.02-7.4,2.31-4.58,2.63-7.56,7.18-10.56,11.5-2.96,4.39-5.79,8.91-9.12,13.08-1.62,2.13-3.59,3.99-5.71,5.6-.53.41-1.06.8-1.61,1.18-.54.38-1.09.78-1.7,1.07-1.2.61-2.59.87-3.91.64-.02,0-.03-.02-.03-.04,0-.02.02-.03.04-.03,1.31.18,2.65-.13,3.79-.77.58-.31,1.09-.72,1.62-1.12l1.57-1.22c2.07-1.65,3.96-3.5,5.51-5.64,3.2-4.21,5.92-8.77,8.9-13.18,1.5-2.2,3-4.4,4.73-6.45,1.73-2.06,3.77-3.88,6.12-5.23,2.36-1.33,5.02-2.1,7.71-2.27,2.7-.14,5.39.28,7.94,1.06,5.12,1.57,9.74,4.43,13.8,7.86,4.01,3.47,8.35,6.54,12.89,9.26,4.54,2.72,9.28,5.1,14.21,7.02,2.48.88,5.01,2.08,6.91,4.01,1.93,1.89,3.16,4.42,3.65,7.02,0,.02,0,.04-.03.04-.02,0-.04,0-.04-.03Z"/>
      <path class="cls-12" d="M.39,264.45c1.59,1.66,3.69,2.61,5.74,3.58,2.08.96,4.07,2.09,6.07,3.2,3.98,2.24,7.9,4.62,11.56,7.38,1.82,1.38,3.61,2.83,5.21,4.48,1.6,1.65,3.03,3.46,4.19,5.44,2.32,3.96,3.34,8.65,2.92,13.24-.41,4.58-1.85,9.05-3.95,13.12-1.04,2.05-2.22,4.02-3.48,5.93-1.25,1.91-2.63,3.78-4.2,5.47-3.12,3.42-7.02,6.06-11.22,7.91-4.2,1.88-8.68,3.02-13.19,3.69-.02,0-.04,0-.04-.03,0-.02.01-.04.03-.04,4.46-.92,8.88-2.16,12.97-4.11,4.09-1.94,7.82-4.62,10.88-7.94,1.53-1.65,2.84-3.5,4.11-5.38,1.27-1.88,2.46-3.82,3.51-5.82,2.1-4,3.67-8.33,4.17-12.84.54-4.49-.36-9.18-2.73-13.07-2.32-3.94-5.85-6.94-9.54-9.56-3.68-2.66-7.54-5.09-11.48-7.38-1.98-1.13-3.92-2.33-5.95-3.34-2.02-1.02-4.11-2.15-5.63-3.88-.01-.02-.01-.04,0-.05.02-.01.04-.01.05,0Z"/>
      <path class="cls-9" d="M444.24.02c3.63,6.49,7.61,12.9,13.18,17.82,2.75,2.46,5.85,4.59,9.26,6.06,3.4,1.49,7.13,2.24,10.83,2.1,3.74-.19,7.49.2,11.13-.33,1.81-.26,3.58-.81,5.27-1.51,1.68-.71,3.26-1.66,4.49-2.98,1.27-1.28,2.14-2.91,2.76-4.62.62-1.72.95-3.54,1.18-5.38.47-3.68.57-7.41.7-11.14,0-.02.02-.04.04-.04.02,0,.04.02.04.04.1,3.73.17,7.47-.19,11.2-.19,1.86-.48,3.74-1.08,5.55-.59,1.81-1.54,3.54-2.88,4.92-1.32,1.41-2.99,2.45-4.75,3.17-1.76.7-3.59,1.24-5.48,1.48-3.78.5-7.51-.05-11.22.04-1.88,0-3.75-.21-5.59-.59-1.83-.39-3.62-.98-5.35-1.68-3.44-1.46-6.71-3.39-9.57-5.83-2.87-2.44-5.28-5.37-7.38-8.46-2.1-3.1-3.85-6.42-5.45-9.79,0-.02,0-.04.02-.05.02,0,.04,0,.05.02Z"/>
      <path class="cls-3" d="M.39,275.44c2.5,2.1,5.81,2.52,8.73,4,2.83,1.58,5.65,3.14,8.26,5.08,2.59,1.95,4.95,4.25,6.7,6.99,1.68,2.79,2.39,6.09,2.26,9.34-.13,3.25-1.16,6.49-2.9,9.24-1.68,2.78-3.75,5.36-6.22,7.49-2.43,2.18-5.22,3.91-8.13,5.32-1.46.7-2.97,1.29-4.49,1.83-.77.26-1.52.52-2.33.72-.4.08-.8.1-1.16.26-.36.14-.61.47-.72.85,0,.02-.03.03-.05.03-.02,0-.03-.03-.03-.04.09-.4.34-.79.73-.97.38-.19.79-.25,1.17-.35.74-.23,1.5-.56,2.24-.84,1.49-.6,2.94-1.28,4.37-2,2.83-1.48,5.51-3.25,7.88-5.38,2.38-2.11,4.43-4.58,6.13-7.28.83-1.36,1.6-2.74,2.11-4.25.52-1.49.85-3.06.98-4.65.25-3.16-.35-6.47-2.07-9.18-1.74-2.68-4.26-4.78-6.85-6.62-2.61-1.84-5.4-3.47-8.16-5.08-1.39-.75-2.91-1.29-4.4-1.91-1.49-.62-2.95-1.41-4.12-2.54-.02-.01-.02-.04,0-.05.01-.01.04-.01.05,0Z"/>
      <path class="cls-25" d="M365.6,388.33c-1.54.11-3.01-.63-4.25-1.45-.63-.41-1.25-.82-1.9-1.17-.65-.33-1.36-.62-2.03-.94-2.72-1.25-5.5-2.37-8.3-3.42-5.58-2.16-11.45-3.66-17.43-4.15-2.98-.29-5.98-.34-8.97-.26-.75,0-1.49.06-2.24.09-.75.04-1.49.08-2.22.17-1.46.18-2.92.46-4.33.91-2.82.88-5.47,2.28-7.8,4.14-2.37,1.81-4.7,3.76-6.17,6.39,0,.02-.03.02-.05.01-.02,0-.02-.03-.02-.05,1.28-2.76,3.56-4.92,5.88-6.81,2.31-1.96,5.01-3.52,7.93-4.42,1.45-.46,2.95-.79,4.47-.95.76-.08,1.52-.11,2.27-.14.75-.03,1.51-.07,2.26-.06,3.02-.04,6.04.18,9.02.56,2.99.39,5.94.95,8.88,1.6,2.93.67,5.86,1.4,8.71,2.38,2.85.97,5.63,2.17,8.34,3.48.68.34,1.35.65,2.02,1.03.66.39,1.27.84,1.88,1.28.61.43,1.22.85,1.89,1.17.67.31,1.39.51,2.14.54.02,0,.04.02.04.04,0,.02-.02.03-.03.04Z"/>
      <path class="cls-15" d="M270.13,388.62c-.57-2.64-1.78-5.1-3.56-7.05-1.79-1.96-4.14-3.33-6.62-4.23-2.5-.87-5.2-1.29-7.88-1.1-2.67.24-5.32.86-7.93,1.52-2.61.68-5.19,1.44-7.76,2.25-2.56.82-5.1,1.73-7.64,2.63-5.07,1.84-10.09,3.82-15.16,5.7-.02,0-.04,0-.05-.02,0-.02,0-.04.02-.05,4.89-2.31,9.84-4.49,14.92-6.36,5.07-1.89,10.27-3.47,15.58-4.55,2.66-.54,5.3-1.05,8-1.37,2.7-.21,5.47-.03,8.1.77,2.61.86,5.04,2.36,6.85,4.44,1.79,2.1,2.91,4.73,3.21,7.43,0,.02-.01.04-.03.04-.02,0-.04-.01-.04-.03Z"/>
      <path class="cls-39" d="M679.4,121.95c-2.53.6-5.06,1.14-7.6,1.65-1.26.26-2.56.46-3.8.78-1.24.33-2.46.7-3.64,1.21-2.36.96-4.6,2.35-6.3,4.29-1.67,1.93-3.15,4.23-3.37,6.78-.12,1.26.15,2.52.64,3.67.5,1.16,1.19,2.24,2.07,3.12,1.75,1.81,4.24,2.69,6.73,3.09,5.07.79,10.27-.04,15.26-1.39.02,0,.04,0,.05.03,0,.02,0,.04-.02.05-4.85,1.8-10.15,2.88-15.4,2.09-2.59-.36-5.27-1.36-7.12-3.36-.94-.97-1.63-2.15-2.11-3.39-.49-1.25-.68-2.62-.49-3.94.37-2.68,1.95-4.9,3.58-6.9,1.71-1.98,3.85-3.61,6.25-4.69,1.21-.53,2.45-.97,3.73-1.27,1.28-.3,2.56-.47,3.84-.71,2.56-.42,5.13-.83,7.71-1.17.02,0,.04.01.04.03,0,.02-.01.04-.03.04Z"/>
      <path class="cls-35" d="M481.39,388.32c-1.29-.65-2.36-1.68-3.26-2.8-.9-1.12-1.69-2.32-2.57-3.42-1.81-2.17-3.83-4.19-5.81-6.24l-2.96-3.1c-1-1.02-1.89-2.15-3-3.04-2.18-1.83-4.92-2.87-7.67-3.48-.69-.15-1.39-.3-2.08-.37-.69-.07-1.38-.01-2.06.11-1.36.25-2.62.87-3.79,1.63-2.32,1.57-4.31,3.62-5.99,5.87-1.66,2.28-3.01,4.78-4.17,7.37-1.03,2.7-3.02,4.92-3.51,7.76,0,.02-.02.03-.04.03-.02,0-.03-.02-.03-.04.13-1.44.67-2.81,1.29-4.1.65-1.29,1.25-2.54,1.75-3.89,1.08-2.65,2.37-5.26,4.08-7.6,1.69-2.35,3.78-4.42,6.23-6.01,1.23-.78,2.61-1.39,4.08-1.6.73-.1,1.48-.13,2.21-.03.74.1,1.43.28,2.12.46,2.77.75,5.47,1.89,7.74,3.68.57.44,1.09.95,1.59,1.45l1.53,1.49,3.1,2.96c2.05,2,4.02,4.07,5.83,6.32,1.72,2.3,2.96,4.96,5.41,6.51.02.01.02.03.01.05-.01.02-.03.02-.05.01Z"/>
      <path class="cls-22" d="M36.56,388.62c-1.15-4.43-2.16-8.89-3.78-13.13-.8-2.12-1.7-4.22-2.94-6.14-1.23-1.92-2.71-3.67-4.4-5.19-1.7-1.51-3.57-2.8-5.56-3.85-2-1.04-4.13-1.81-6.32-2.38-2.19-.54-4.44-.87-6.7-1.07-2.28-.26-4.55-.55-6.82-.87-.02,0-.03-.02-.03-.04,0-.02.02-.03.04-.03,2.29.09,4.57.21,6.85.35,2.29.1,4.61.34,6.85.9,4.5,1.07,8.74,3.38,11.98,6.68,3.22,3.29,5.81,7.16,7.64,11.4,1.75,4.28,2.62,8.82,3.27,13.35,0,.02-.01.04-.03.04-.02,0-.04,0-.04-.03Z"/>
      <path class="cls-17" d="M581.99,388.62c-1.57-4.36-3.49-8.58-5.81-12.55-.29-.49-.62-.96-.93-1.44-.36-.44-.67-.93-1.08-1.33-.74-.88-1.66-1.58-2.65-2.14-2.02-1.12-4.48-1.17-6.66-.56-4.4,1.3-8.32,3.95-11.67,7.03-1.66,1.58-3.2,3.29-4.59,5.13-.7.92-1.37,1.86-2.01,2.82l-.94,1.46c-.15.24-.33.5-.45.73-.08.25,0,.55-.02.84,0,.02-.02.04-.04.04-.02,0-.04-.02-.04-.04-.01-.28-.12-.56-.06-.89.12-.3.26-.53.39-.8.26-.52.54-1.03.82-1.54.59-1.01,1.18-2.01,1.85-2.97,1.32-1.92,2.82-3.74,4.53-5.35,1.68-1.64,3.59-3.03,5.61-4.23,2.03-1.17,4.19-2.16,6.5-2.64,2.29-.5,4.77-.35,6.88.73,2.09,1.09,3.79,2.85,5.07,4.81,2.46,3.98,4.27,8.34,5.36,12.86,0,.02,0,.04-.03.05-.02,0-.04,0-.04-.02Z"/>
      <path class="cls-14" d="M668.76.04c.17,2.9.3,5.78.54,8.65.1,1.44.19,2.88.44,4.31.26,1.42.65,2.82,1.12,4.18.48,1.36,1.03,2.7,1.61,4,.6,1.29,1.36,2.51,2.13,3.72,1.54,2.42,3.3,4.78,4.5,7.45,0,.02,0,.04-.02.05-.02,0-.04,0-.05-.01-1.6-2.42-3.46-4.62-5.1-7.05-.8-1.22-1.53-2.51-2.1-3.87-.56-1.36-1.02-2.75-1.36-4.17-.36-1.41-.67-2.83-.97-4.25-.31-1.42-.62-2.85-.82-4.29-.36-2.9-.33-5.83,0-8.72,0-.02.02-.04.04-.03.02,0,.03.02.03.04Z"/>
      <path class="cls-33" d="M.39,134.5c1.97,2.42,5.33,2.95,7.52,5.37,1.1,1.09,2.15,2.27,3,3.59.41.67.76,1.37,1.08,2.07.3.71.63,1.44.72,2.25.11.8-.03,1.67-.41,2.39-.36.73-.83,1.38-1.34,1.98-1.01,1.19-2.08,2.33-3.24,3.38-1.17,1.04-2.43,1.98-3.77,2.8-1.3.86-2.98,1.19-3.56,2.71,0,.02-.03.03-.05.02-.02,0-.03-.03-.02-.04.17-.77.72-1.45,1.38-1.9.66-.45,1.31-.82,1.93-1.28,1.25-.88,2.42-1.86,3.55-2.9,1.12-1.03,2.22-2.12,3.25-3.25.99-1.12,1.97-2.37,1.88-3.87-.04-.74-.26-1.48-.56-2.19-.3-.71-.62-1.41-1.06-2.04-.85-1.28-2.05-2.26-3.21-3.28-1.1-1.08-2.36-1.84-3.71-2.64-1.31-.8-2.67-1.76-3.45-3.14-.01-.02,0-.04.01-.05.02,0,.04,0,.05,0Z"/>
      <path class="cls-10" d="M27.24.38c-1.58,2.5-3.3,4.89-5.12,7.2-1.87,2.29-3.84,4.5-5.99,6.55-2.16,2.03-4.72,3.69-7.49,4.81-1.38.57-2.84.95-4.29,1.26-.73.15-1.47.25-2.2.33-.38.05-.72.06-1.06.18l-1.04.38s-.04,0-.05-.02c0-.02,0-.04.02-.05l.98-.53c.34-.18.74-.26,1.09-.33.72-.14,1.43-.34,2.13-.53,1.4-.39,2.79-.85,4.12-1.43,1.33-.57,2.66-1.18,3.9-1.92,1.25-.75,2.46-1.56,3.62-2.46,1.14-.91,2.23-1.91,3.17-3.04.96-1.12,1.73-2.36,2.58-3.57,1.74-2.38,3.58-4.69,5.56-6.88.01-.02.04-.02.05,0,.01.01.02.03,0,.05Z"/>
      <path class="cls-19" d="M.05,288.69c2.76.51,5.42,1.83,7.49,3.77,1.02.99,1.91,2.1,2.65,3.3.72,1.2,1.28,2.56,1.32,4.01.07,1.44-.33,2.91-1.07,4.15-.73,1.25-1.69,2.35-2.78,3.27-2.18,1.83-4.84,3.12-7.62,3.56-.02,0-.04-.01-.04-.03,0-.02,0-.04.02-.04,2.64-.9,5.07-2.28,7.11-4.09,1.03-.89,1.97-1.88,2.69-3.02.73-1.13,1.19-2.43,1.27-3.78.09-1.36-.37-2.73-1.12-3.88-.77-1.15-1.81-2.09-2.86-2.97-2.08-1.79-4.48-3.16-7.1-4.16-.02,0-.03-.03-.02-.05,0-.02.02-.03.04-.02Z"/>
      <path class="cls-11" d="M433.54,299.1c-3.65.99-7.09,2.75-9.96,5.19-1.45,1.19-2.64,2.68-4.04,3.98-1.38,1.31-2.86,2.52-4.41,3.63-3.1,2.22-6.48,4.03-9.95,5.58-1.73.79-3.51,1.47-5.26,2.18-1.75.72-3.48,1.48-5.15,2.33-3.36,1.69-6.52,3.84-9.05,6.62-1.25,1.39-2.3,2.98-2.88,4.76-.6,1.77-.7,3.69-.41,5.54.28,1.85,1,3.64,2.06,5.19,1.07,1.55,2.45,2.86,4,3.93,1.56,1.05,3.29,1.82,5.08,2.4,1.79.58,3.65.93,5.52.92,1.87-.01,3.73-.41,5.41-1.19,1.69-.78,3.2-1.93,4.47-3.29,1.28-1.35,2.3-2.94,3.35-4.52,1.03-1.58,2.04-3.18,2.98-4.82.96-1.62,1.75-3.33,2.75-4.99,1-1.64,2.18-3.17,3.52-4.55,2.68-2.78,6-4.86,9.51-6.38,3.53-1.53,7.25-2.38,10.72-3.79,1.74-.69,3.42-1.54,4.94-2.62,1.48-1.08,2.99-2.36,3.49-4.09.24-.85.13-1.77-.21-2.61-.34-.84-.88-1.62-1.46-2.35-1.17-1.46-2.51-2.8-4.06-3.86-3.07-2.17-6.87-3.2-10.65-3.18-.02,0-.04-.02-.04-.04s.02-.04.04-.04c3.78-.12,7.69.76,10.86,2.94,1.6,1.06,2.99,2.41,4.21,3.88.6.74,1.18,1.53,1.56,2.44.39.9.54,1.96.27,2.94-.25.98-.83,1.83-1.47,2.55-.65.74-1.41,1.33-2.18,1.92-1.55,1.14-3.27,2.04-5.04,2.77-3.53,1.5-7.26,2.32-10.69,3.84-3.44,1.48-6.64,3.54-9.25,6.21-1.31,1.33-2.46,2.81-3.45,4.4-.97,1.58-1.79,3.32-2.77,4.95-.96,1.64-1.97,3.26-3.04,4.83-1.07,1.56-2.13,3.16-3.48,4.55-1.34,1.38-2.91,2.56-4.68,3.34-1.76.79-3.7,1.17-5.62,1.15-1.92,0-3.82-.39-5.63-.99-1.8-.61-3.56-1.4-5.14-2.49-3.13-2.17-5.55-5.5-6.17-9.31-.32-1.88-.24-3.86.35-5.7.58-1.84,1.64-3.5,2.9-4.94,2.55-2.86,5.71-5.13,9.09-6.88,3.38-1.77,6.97-3.07,10.43-4.56,3.46-1.51,6.82-3.25,9.91-5.41,1.55-1.08,3.02-2.25,4.4-3.53,1.39-1.26,2.6-2.74,4.1-3.94,2.95-2.45,6.5-4.07,10.18-4.97.02,0,.04,0,.05.03,0,.02,0,.04-.03.05Z"/>
      <path class="cls-8" d="M362.38,46.3c-3.17,1.34-6.66.72-9.95,1.16-3.31.52-6.6,1.17-9.85,1.96-6.51,1.59-12.87,3.8-18.84,6.83-2.98,1.51-5.86,3.23-8.6,5.15-2.74,1.91-5.28,4.1-7.5,6.6-4.44,5-7.47,11.13-9.27,17.54-.88,3.22-1.56,6.51-1.9,9.82-.34,3.3.12,6.68,1.59,9.64,1.45,2.97,3.93,5.32,6.66,7.18,2.76,1.85,5.75,3.38,8.83,4.65,6.17,2.55,12.71,4.1,19.24,5.62,6.5,1.59,13.16,2.68,19.51,5.01,3.17,1.17,6.16,2.96,8.52,5.42,2.37,2.45,4.05,5.49,5.11,8.7,1,3.22,1.88,6.44,3.16,9.53,1.26,3.08,2.9,6.03,5.09,8.54,2.17,2.53,4.79,4.65,7.69,6.3,2.88,1.69,6,2.92,9.19,3.95,6.37,2.06,12.95,3.42,19.5,4.85,3.28.7,6.54,1.49,9.8,2.29l9.79,2.31c6.53,1.4,13.02,3.6,19.76,3.19,3.37.02,6.71.38,10.05.63,1.66.11,3.37.19,5,.68,1.63.47,3.17,1.27,4.49,2.33,2.67,2.14,4.45,5.13,5.85,8.17,1.36,3.08,2.57,6.2,4.04,9.21,1.45,3.01,3.09,5.94,5.04,8.65.98,1.34,2.01,2.68,3.18,3.84,1.18,1.16,2.51,2.18,3.92,3.04,2.81,1.7,6.06,2.97,9.34,2.74,1.63-.1,3.15-.83,4.55-1.68,1.39-.88,2.59-2.02,3.44-3.44,3.64-5.57,5.44-12.32,4.83-18.95-.24-3.31-1.06-6.59-2.87-9.35-1.82-2.75-4.5-4.84-7.45-6.33-2.97-1.47-6.15-2.54-9.41-3.21-3.26-.67-6.6-1.02-9.92-1.49-1.66-.22-3.37-.55-4.95-1.22-1.59-.65-3.06-1.62-4.27-2.85-2.45-2.48-3.68-5.85-4.32-9.15-1.29-6.67-.74-13.56.85-20.1,1.55-6.57,4.11-12.82,6.33-19.12,1.1-3.16,2.12-6.35,2.84-9.6.72-3.24.94-6.59.66-9.89-.55-6.61-2.97-13.07-6.97-18.36-2-2.64-4.41-4.98-7.13-6.88-2.71-1.91-5.74-3.36-8.86-4.55-6.25-2.38-12.88-3.54-19.39-5.16-6.52-1.6-12.98-3.46-19.3-5.76-3.15-1.15-6.27-2.42-9.33-3.81l-9.12-4.25c-6.09-2.79-12.21-5.57-18.53-7.77-3.17-1.05-6.46-1.81-9.81-1.95-.84-.04-1.67-.02-2.51,0-.85.01-1.68-.12-2.51-.27-1.64-.3-3.31-.7-4.97-.43-.02,0-.04-.01-.04-.03,0-.02.01-.04.03-.04,1.68-.29,3.36.1,5,.39.82.14,1.65.26,2.49.25.83-.02,1.68-.05,2.52-.02,3.37.12,6.68.85,9.88,1.88,6.37,2.16,12.51,4.88,18.61,7.65l9.14,4.21c3.05,1.37,6.16,2.62,9.31,3.75,6.3,2.27,12.76,4.09,19.27,5.66,6.5,1.59,13.16,2.72,19.48,5.1,3.15,1.18,6.23,2.64,9.02,4.58,2.79,1.92,5.26,4.31,7.31,7,4.12,5.38,6.59,11.98,7.14,18.74.28,3.38.06,6.8-.68,10.11-.73,3.3-1.76,6.51-2.87,9.68-2.23,6.34-4.78,12.55-6.32,19.05-1.58,6.47-2.11,13.25-.85,19.8.62,3.23,1.82,6.46,4.13,8.79,1.14,1.16,2.53,2.07,4.04,2.69,1.52.64,3.12.95,4.78,1.17,3.31.47,6.66.82,9.97,1.5,3.31.69,6.54,1.77,9.58,3.28,3.02,1.53,5.8,3.69,7.7,6.57.93,1.44,1.63,3.02,2.11,4.65.5,1.64.71,3.34.85,5.02.59,6.77-1.28,13.67-5.01,19.31-.89,1.47-2.18,2.69-3.63,3.59-.73.46-1.49.84-2.28,1.16-.4.15-.82.27-1.24.4-.43.06-.85.17-1.28.19-1.72.14-3.44-.17-5.05-.69-1.62-.52-3.15-1.27-4.59-2.16-1.44-.89-2.79-1.93-3.99-3.13-1.2-1.21-2.22-2.55-3.21-3.91-1.96-2.74-3.6-5.7-5.04-8.73-1.47-3.02-2.68-6.17-4.02-9.22-1.38-3.02-3.13-5.97-5.72-8.06-1.29-1.04-2.78-1.82-4.37-2.28-1.59-.48-3.25-.56-4.93-.68-3.35-.26-6.68-.63-10.03-.66-1.66,0-3.37.05-5.04-.15-1.67-.17-3.33-.47-4.98-.8l-9.8-2.31-9.8-2.3c-3.26-.79-6.52-1.56-9.8-2.25-6.55-1.41-13.14-2.74-19.55-4.79-3.2-1.02-6.36-2.25-9.27-3.95-2.93-1.67-5.61-3.81-7.82-6.36-2.23-2.54-3.91-5.54-5.19-8.65-1.3-3.11-2.21-6.37-3.2-9.55-1.05-3.15-2.7-6.11-5.02-8.49-2.3-2.39-5.21-4.12-8.33-5.26-6.28-2.28-12.93-3.36-19.46-4.93-6.53-1.5-13.11-3.03-19.34-5.64-3.11-1.3-6.12-2.85-8.92-4.75-2.78-1.9-5.34-4.33-6.84-7.43-1.52-3.07-1.98-6.59-1.62-9.95.36-3.36,1.06-6.66,1.95-9.91,1.84-6.47,4.92-12.66,9.43-17.7,2.25-2.52,4.82-4.73,7.59-6.64,2.76-1.92,5.66-3.64,8.66-5.15,6.01-3.03,12.42-5.19,18.95-6.73,3.27-.77,6.57-1.39,9.89-1.88,3.33-.41,6.79.24,9.94-1.07.02,0,.04,0,.05.02s0,.04-.02.05Z"/>
    </g>
  </g>
</svg>