<?xml version="1.0" encoding="UTF-8"?>
<svg id="Layer_2" data-name="Layer 2" xmlns="http://www.w3.org/2000/svg" viewBox="0 0 679.43 388.65">
  <defs>
    <style>
      .cls-1 {
        fill: #fff;
      }

      .cls-2 {
        opacity: .5;
      }
    </style>
  </defs>
  <g id="Layer_1-2" data-name="Layer 1">
    <g class="cls-2">
      <path class="cls-1" d="M532.81,388.6c1.86-8.65,6.24-16.72,12.86-22.64,6.2-6.14,12.72-12.32,18.18-19.14,2.19-2.76,4.11-5.71,5.97-8.7.45-.72.59-1.59.6-2.44-.06-2.56-1.15-5.22-3.25-6.78-2.71-2.23-5.62-4.24-8.73-5.85-13.27-7.01-27.88-4.43-39.38,4.64-4.29,3.1-7.91,6.97-11.78,10.56-3.79,3.83-9.32,5.88-14.67,4.82-3.55-.56-6.77-2.17-9.97-3.6-4.79-2.19-9.58-4.46-14.72-5.69-15.31-3.57-33.09-1.51-42.72,12.24-4.15,5.63-7.93,11.97-14.05,15.77-12.21,6.85-29.5-2.69-38.59-11.31-9.4-8.62-5.34-20.49,3.05-28.04,7.86-7.22,18.25-10.76,26.68-17.1,5.74-4.12,10.65-9.18,15.56-14.22,15.73-15.01,32.49-3.35,50.38-1.4,8.6,1.21,12.65-2.74,15.22-10.8,2.07-6.63,3.76-13.72,3.17-20.69-1.21-10.77-9.41-18.7-15.67-26.95-4.47-5.4-8.83-11.08-14.74-14.99-5.79-4.1-12.64-6.14-19.01-9.1-12.89-5.68-24.75-13.64-38.39-17.55-13.28-4.53-27.81-6.22-39.81-13.94-4.44-2.91-8.3-6.69-11.41-10.99-3-4.11-6.16-8.86-9.17-12.94-6.48-8.63-17.23-11.98-27.15-15.05-6.73-2.06-13.56-3.88-20.19-6.31-9.95-3.65-19.38-8.75-27.8-15.19-2.83-2.11-5.49-4.53-7.65-7.35-4.5-5.56-6.74-12.4-9.4-18.92-2.91-6.25-7.11-12.38-13.19-15.84-12.29-6.16-29.5-1.24-37.61,9.62-5.21,6.96-8.48,15.46-12.19,23.3-6.41,12.33-4.04,23.31,3.22,34.57,3.7,5.99,7.9,11.8,10.29,18.5,4.58,13.26,7.47,27.77,4.62,41.73-1.81,8.72-6.49,16.7-12.85,22.88-3.47,3.69-7.59,7.72-11.28,11.15-7.68,7.36-11.53,17.67-13.12,28.02-1.45,6.94-4.17,13.68-8.45,19.37-2.06,2.88-4.72,5.3-7.17,7.82-4.88,5.05-9.23,10.6-13.29,16.34-6.37,8.22-10.53,19.42-20.99,23.28-6.75,2.5-14.27,1.82-20.9-.64-6.63-2.37-13.12-6.01-17.45-11.7-6.52-8.76-5.83-20.29-7.64-30.52-1.54-10.47-6.33-20.24-13.05-28.37-2.23-2.71-4.67-5.27-6.9-8.01-2.21-2.73-4.54-5.46-5.97-8.74-1.47-3.23-2.12-6.81-2.01-10.35.34-8.81,4.77-17.08,4.55-25.95-.85-8.61-5.95-17.24-13.84-21.12-6.43-3.1-13.88-2.62-20.68-1.14,0,0-5.21.89-5.21.89,0,0-2.61.44-2.61.44-.43.08-.87.14-1.3.23-.44.08-.77.43-.8.87,0,.02-.02.04-.04.03-.02,0-.04-.02-.03-.04.03-.22.1-.45.26-.62.5-.47,1.27-.39,1.9-.55,0,0,2.6-.45,2.6-.45,0,0,5.21-.9,5.21-.9,6.83-1.5,14.29-2,20.77,1.1,9.12,4.39,15.68,16.48,13.62,26.53-1.53,10.21-6.98,20.81-2.1,30.9,1.41,3.22,3.73,5.92,5.95,8.65,4.56,5.36,9.52,10.48,13.01,16.66,3.63,6.07,6.02,12.87,7.12,19.86,1.83,10.24,1.16,21.59,7.62,30.28,4.25,5.57,10.69,9.16,17.22,11.47,6.54,2.4,13.89,3.06,20.49.6,6.8-2.43,10.99-8.46,14.69-14.35,1.94-2.94,3.91-5.87,5.94-8.76,4.07-5.77,8.41-11.37,13.33-16.46,2.46-2.52,5.05-4.88,7.11-7.74,4.22-5.6,6.89-12.24,8.32-19.08.66-3.45,1.29-6.97,2.41-10.33,2.55-8.58,8.02-15.92,14.78-21.68,2.16-2.03,5.28-5.36,7.43-7.51,6.28-6.1,10.88-13.93,12.67-22.53,3.31-14.97-1.23-37.72-9.18-50.76-7.73-12.21-16.6-24.1-10.96-39.29,1.08-3.1,3.01-6.7,4.27-9.7,4.51-9.45,8.63-20.04,17.93-25.81,8.82-5.53,21.13-7.44,30.63-2.58,7.78,4.53,12.48,12.84,15.38,21.1,2.39,6.55,5.74,12.93,10.85,17.78,9.2,8.15,20.17,14.24,31.66,18.54,6.6,2.43,13.41,4.27,20.15,6.34,9.96,3.09,20.81,6.53,27.33,15.24,3.01,4.09,6.17,8.81,9.15,12.95,11.86,17.19,32.71,18.78,51,24.87,13.64,3.93,25.51,11.92,38.4,17.62,6.38,2.99,13.25,5.01,19.06,9.12,5.94,3.91,10.33,9.6,14.82,15.01,6.32,8.28,14.55,16.24,15.78,27.09.62,7.07-1.08,14.14-3.15,20.85-1.53,4.95-4.58,10.52-10.3,11.11-15.61,1.34-31.21-10.5-46.6-4.4-4.91,2.03-8.87,5.61-12.39,9.52-3.69,3.8-7.64,7.36-11.91,10.51-8.47,6.39-18.78,9.89-26.6,17.1-8.13,7.35-12.14,18.82-3,27.15,8.9,8.41,25.91,17.83,37.82,11.21,7.6-4.66,11.32-13.33,17.31-19.66,3.78-3.76,8.57-6.48,13.63-8.09,8.51-2.68,17.67-2.09,26.28-.23,5.17,1.24,10.01,3.54,14.81,5.75,6.14,3.07,13.5,5.7,19.93,2.02,3.07-1.69,5.46-4.38,8.01-6.75,2.52-2.46,5.15-4.85,8.01-6.94,11.6-9.15,26.49-11.7,39.82-4.62,3.14,1.63,6.07,3.66,8.79,5.91,2.79,2.14,4.31,6.45,2.7,9.68-1.87,2.99-3.82,5.94-6.02,8.7-6.59,8.24-14.7,15.27-21.98,22.86-4.72,5.23-7.61,12.21-9.29,18.74h0Z"/>
      <path class="cls-1" d="M679.04,230.87c-2.11-3.93-6.37-5.81-10.45-7.04-12.44-4.22-25.71-2.86-38.59-3.79-8.61-.94-17.15-2.45-25.66-4.05-11.34-2.51-22.98-1.08-34.34.65-5.74.67-11.38,1.75-17.02,3-4.22.94-8.57,1.62-12.92,1.51-3.6.15-7.91-1.04-9.08-4.92-1.83-4.79-2.06-10.06-.93-15.04.67-4.13,1.47-8.68,2.01-12.81,1.18-6.51.75-11.07-5.7-14.29-7.81-3.68-16.29-5.81-24.19-9.34-5.33-2.14-10.87-4.86-14.12-9.85-7.11-10.28-1.28-22.88,2-33.46,3.42-11.08,1.82-23.14-3.28-33.45-8.69-18.9-24.24-20.96-42.38-25.46-11.16-2.97-22.08-6.83-32.69-11.38-10.52-4.56-20.9-10.23-32.55-11.08-11.51-.96-23.07.54-34.38,2.61-11.25,2.35-22.43,5.64-32.81,10.63-5.15,2.55-10.13,5.56-14.42,9.38-7.65,6.7-14.19,19.78-19.63,28.3-10.8,18.05,13.39,30.22,27.71,34.31,13.57,4.38,28.79,6.19,40.25,15.36,7.01,5.63,9.62,14.28,14.82,21.23,3.51,4.52,8.09,8.16,13.17,10.79,5.1,2.7,10.65,4.25,16.23,5.66,5.58,1.46,11.17,2.89,16.73,4.47,11.2,2.91,21.78,7.67,32.52,11.88,5.4,2.07,11.03,3.49,16.24,6.07,5.2,2.65,9.68,6.56,13.36,11.04,6.98,9.14,14.45,18.03,23.7,24.96,14.13,9.22,12.98,14.66,10.64,30.03-1.2,7.1-1.57,14.3-.65,21.44.68,4.18,1.7,8.49,3.57,12.28,1.38,2.45,3.53,4.46,6.05,5.72,2.55,1.3,5.38,1.74,8.24,1.63,5.75-.04,11.49-.75,17.29-.83,5.79-.07,11.59.47,17.26,1.66,5.56,1.32,11.18,3.17,16.93,1.86,11.71-2.15,18.93-12.83,29.35-17.67,10.64-4.92,22.61-4.55,34.03-5.44,24.46-1.67,28.01-8.41,37.17-29.72,0,0,3.62-7.86,3.62-7.86,0,0,1.81-3.93,1.81-3.93.57-1.28,1.47-2.6,1.11-4.06-.01-.05.06-.06.07-.02.36,1.47-.54,2.82-1.11,4.11,0,0-1.8,3.94-1.8,3.94,0,0-3.6,7.87-3.6,7.87-9.08,21.26-12.62,28.2-37.27,29.95-11.38.92-23.33.58-33.89,5.51-10.41,4.91-17.65,15.64-29.42,17.81-5.81,1.33-11.52-.48-17.14-1.81-5.63-1.16-11.39-1.68-17.14-1.59-5.74.09-11.49.82-17.28.88-2.9.12-5.93-.32-8.55-1.67-2.64-1.3-4.9-3.4-6.36-5.98-1.96-3.92-2.97-8.24-3.7-12.53-.93-7.2-.56-14.51.66-21.65,2.3-15.17,3.54-20.27-10.34-29.33-9.28-6.96-16.82-15.92-23.81-25.09-3.63-4.43-8.03-8.26-13.13-10.87-5.13-2.55-10.8-3.98-16.16-6.04-10.74-4.21-21.26-8.96-32.46-11.87-10.96-3.4-22.8-4.98-33.09-10.18-5.16-2.66-9.82-6.37-13.39-10.98-5.18-6.88-7.81-15.61-14.7-21.15-11.37-9.11-26.49-10.93-40-15.33-14.66-4.19-38.93-16.74-27.91-35.03,10.65-17.03,14.89-28.61,34.26-37.76,10.42-4.99,21.62-8.25,32.91-10.6,11.35-2.06,22.91-3.52,34.45-2.59,11.68.82,22.12,6.49,32.66,11.03,10.6,4.52,21.51,8.35,32.66,11.29,18.29,4.48,33.92,6.57,42.73,25.63,5.18,10.4,6.81,22.62,3.38,33.82-4.48,13.73-10.88,28.98,4.11,38.78,9.81,5.74,21.68,8.33,31.94,13.15,6.64,3.32,7.27,8.2,6,14.94-.55,4.13-1.34,8.7-2.03,12.83-.91,4.22-1.03,8.55.23,12.72,1.08,5.13,4.25,6.71,9.23,6.62,4.32.11,8.59-.55,12.81-1.47,5.63-1.24,11.33-2.31,17.06-2.97,8.57-1.23,17.21-2.48,25.89-1.8,5.78.38,11.39,1.89,17.09,2.78,5.68.94,11.38,1.93,17.1,2.54,12.86.99,26.2-.29,38.61,3.99,4.02,1.22,8.7,3.32,10.41,7.17h0Z"/>
      <path class="cls-1" d="M383.71,388.32c-1.51-.27-2.66-1.35-3.73-2.35-1.06-1.04-2.36-1.77-3.61-2.58-7.54-4.76-15.73-8.37-24.13-11.3-5.58-2.03-11.09-4.28-16.43-6.92-5.34-2.53-10.74-5.71-13.81-10.98-1.56-2.56-2.5-5.48-2.96-8.41-1.48-8.85-7.4-16.38-15.18-20.69-10.06-5.05-18.1-10.39-19.79-22.43,0,0-.81-4.38-.81-4.38-1.16-8.54-4.53-17.46-7.64-25.5-2.09-5.45-3.93-11.96-.86-17.44,2.24-3.74,5.79-7.86,10.54-7.72,6.86.51,10.71,11.35,15.24,15.71,4.01,4.34,9.24,7.36,14.66,9.63,2.75,1.12,5.47,2.36,8.1,3.77,8.04,4.04,14.6,10.29,20.98,16.51,4.14,4.24,9.77,6.81,15.71,6.95,8.83.13,17.68-2.74,25.13-7.41,13.93-8.9,20.97-25,26.18-40.1,3.16-10.14-.94-20.83-6.99-29.05-5.21-7.23-12.76-12.56-21.1-15.58-11.12-4.1-23.61-4.74-34.8-.55-5.57,2.06-10.69,5.16-16.13,7.53-5.4,2.46-10.97,4.64-16.74,6.1-26.5,7.65-19.47-9.98-10.67-25.33,8.42-15.33,9.29-28.12-7.48-37.7-4.45-2.63-11.16-5.77-15.77-8.26-10.52-5.31-20.85-11.7-32.57-13.89-5.67-1.02-12.03-1.5-17.09,1.71-9.23,5.71-11.06,22.18-10.7,32.18.37,8.88,2.61,17.57,5.18,26.06,1.76,5.67,3.55,11.4,4.31,17.32,1.6,9-1.39,18.09-6.32,25.55-3.18,5.05-6.98,9.65-9.52,14.99-2.6,5.31-4.3,11.01-5.97,16.7-3.09,11.64-11.27,21.58-21.84,27.26-5.19,2.9-10.47,5.62-15.41,8.88-10.1,6.33-17.58,15.94-22.68,26.61-2.73,5.29-4.99,10.87-8.67,15.61-5.61,7.31-14.82,10.47-23.66,11.39-8.82.9-18.19,1.58-26.48-2.13-5.03-2.04-10.75-6.27-15.41-8.99-5.04-3.14-10.07-6.33-14.86-9.86-12.85-8.44-11.51-18.2-9.92-31.84,1.1-11.7-1.33-24.33-9.85-32.92-8.47-8.24-19.58-13.85-26.31-23.84-3.37-4.92-5.61-10.55-6.81-16.37-1.1-5.83-3.03-11.65-6.67-16.36,3.84,4.56,5.61,10.56,6.79,16.33,1.22,5.8,3.47,11.41,6.84,16.29,6.77,9.97,17.88,15.51,26.37,23.74,8.62,8.62,11.11,21.38,10.03,33.15-1.46,13.4-3.01,23.02,9.83,31.41,6.8,5.12,15.19,9.89,22.43,14.48,4.93,3.21,10.38,5.82,16.25,6.6,5.86.62,11.84.32,17.69-.37,8.69-.93,17.69-4.04,23.16-11.18,3.62-4.66,5.89-10.25,8.59-15.48,5.14-10.75,12.76-20.52,22.95-26.89,4.99-3.28,10.28-6.01,15.46-8.9,10.44-5.61,18.44-15.33,21.51-26.83,1.68-5.69,3.39-11.43,6.02-16.81,2.59-5.43,6.42-10.07,9.56-15.06,4.88-7.41,7.78-16.2,6.23-25.09-.75-5.88-2.53-11.55-4.28-17.21-2.58-8.54-4.82-17.26-5.2-26.23-.37-10.3,1.57-26.89,11.06-32.73,5.22-3.28,11.72-2.8,17.53-1.75,11.8,2.23,22.13,8.66,32.69,14.02,4.67,2.51,11.27,5.66,15.77,8.31,16.87,9.71,16.18,22.68,7.57,38.25-8.77,15.27-15.73,32.4,10.27,24.87,5.75-1.45,11.3-3.6,16.7-6.06,5.45-2.36,10.57-5.46,16.16-7.51,11.24-4.18,23.8-3.6,34.98.51,8.41,3.03,16.02,8.38,21.28,15.65,6.13,8.29,10.29,19.1,7.1,29.36-5.21,15.2-12.27,31.41-26.3,40.41-9.53,5.91-23.36,10.23-34.17,5.58-5.53-2.43-9.42-7.3-13.8-11.26-4.31-4.05-9.19-7.47-14.42-10.24-5.21-2.87-11.01-4.53-16.02-7.81-3.8-2.39-7.2-5.49-9.74-9.2,0,0-2.48-3.7-2.48-3.7-1.69-2.36-3.4-4.9-5.61-6.76-5.24-4.32-11.27,1.11-13.87,5.81-2.98,5.33-1.16,11.61.86,16.96,3.09,8.05,6.47,17.04,7.62,25.59,0,0,.8,4.38.8,4.38,1.62,11.89,9.6,17.14,19.52,22.15,7.84,4.36,13.87,12.05,15.34,21.01.45,2.93,1.36,5.76,2.89,8.29,3.01,5.21,8.35,8.34,13.63,10.88,5.31,2.65,10.79,4.93,16.36,6.98,8.39,2.97,16.59,6.63,24.11,11.43,1.24.81,2.55,1.56,3.61,2.61,1.07,1,2.2,2.07,3.68,2.35.05,0,.03.08-.01.07h0Z"/>
      <path class="cls-1" d="M407.65,388.32c-5.36.25-9.91-3.58-14.34-6.08-13.61-8.08-28.21-14.15-42.29-21.34-10.99-5.9-14.34-14.3-14.18-26.33.86-16.6,3.73-16.77,18.17-21.88,9.89-3.58,19.78-7.27,29.11-12.1,9.36-4.84,17.09-12.31,22.83-21.11,3-4.32,5.97-8.69,9.44-12.7,3.47-4.01,7.98-7.27,13.15-8.67,5.01-1.62,10.68-.2,15.38-2.77,2.26-1.1,4.25-3.18,4.09-5.82-.62-5.21-5.4-8.91-9.8-11.22-2.31-1.19-4.82-2.11-7.11-3.46-4.63-2.58-8.79-5.92-12.58-9.59-5.65-5.51-10.85-11.5-17.29-16.1-10.81-7.56-23.84-11.26-36.83-12.74-5.22-.64-10.47-1.03-15.72-1.35-5.2-.5-10.73.02-15.59-2.22-5.14-2.44-6.28-8.4-7.49-13.37-1.34-5.07-3.06-10.1-5.83-14.58-7-11.84-21.17-15.02-32.86-20.38-4.73-2.33-9.65-4.21-14.41-6.46-7.04-3.58-14.26-6.76-21.66-9.53-7.37-2.81-14.9-5.23-22.26-8.12-1.99-.68-5.25-2.38-7.36-2.65-6.49-.81-6.77,6.68-6.99,11.38-.87,10.48-1.3,21.02-1.71,31.5.48,7.86,1.05,15.75,2.36,23.52,1.48,7.75,2.99,15.58,2.98,23.52.31,7.97-1.75,16.03-6.39,22.58-2.19,3.26-6.67,9.81-8.86,13.07-3.12,4.23-5.05,9.16-5.9,14.34-.85,5.18-1.1,10.52-2.63,15.6-2.96,10.62-11.93,17.6-21.35,22.37-6.79,3.97-13.02,8.89-18.44,14.58-4.51,4.76-8.47,10.02-11.92,15.59-2.1,3.36-3.77,6.93-6.06,10.2-3.01,4.37-6.99,8.12-11.64,10.71-9.31,5.14-20.87,6.07-30.87,2.49-4.94-1.96-9.59-4.41-14.22-6.98-6.86-3.94-13.41-8.63-18.59-14.68-4.98-6.39-5.51-14.98-5.59-22.75-.03-5.26.06-10.55-1.13-15.66-1.19-5.1-3.29-10-6.29-14.3-9.09-13.1-26.03-19.13-29.23-36.29-1.83-7.75.45-15.85-1.69-23.55-1.38-6.11-4.06-9.04-10.31-10.38,0,0-3.83-.96-3.83-.96-1.28-.35-2.66-.43-3.94-.28,2.06-.65,5.68.72,7.79,1.14,2.52.65,5.19,1.43,7.06,3.36,5.17,6.3,4.35,15.17,4.32,22.8-.05,7.88,2.52,15.79,7.7,21.78,3.4,4.01,7.52,7.32,11.51,10.76,14.24,11.58,19.14,23.46,18.53,41.58.1,7.71.63,16.12,5.54,22.4,1.67,1.98,3.58,3.81,5.55,5.53,7.97,6.8,17.42,11.82,27.04,15.83,9.79,3.47,21.18,2.54,30.27-2.47,4.55-2.54,8.44-6.2,11.4-10.49,2.94-4.33,5.16-9.18,8.18-13.49,5.88-8.78,13.21-16.62,21.83-22.77,4.22-3.16,9.04-5.48,13.47-8.26,6.56-4.22,12.04-10.42,14.22-18,2.28-7.57,1.65-15.8,4.74-23.18,1.63-4.32,5.81-9.57,8.32-13.47,4.46-6.47,9.25-12.94,10.27-20.91,1.86-13.16-2.08-26.09-3.56-39.08-.57-5.25-.93-10.49-1.23-15.77.43-10.54.89-21.05,1.79-31.56,0,0,.3-3.94.3-3.94.17-4.01,2.51-8.71,7.25-7.85,2.24.34,5.31,1.91,7.46,2.69,7.34,2.91,14.86,5.33,22.24,8.16,9.94,3.56,19.2,8.63,28.87,12.79,4.85,2.07,9.52,4.49,14.45,6.36,4.88,1.95,9.82,3.86,14.38,6.55,9.64,5.35,14.59,15.19,17.16,25.53.73,2.53,1.12,5.17,2.22,7.54,3.45,8.4,13.17,7.15,20.65,7.79,18.27.94,37.46,3.23,52.8,14.04,6.47,4.59,11.73,10.62,17.38,16.11,3.78,3.64,7.91,6.94,12.49,9.48,5.76,3,12.61,5.19,15.99,11.26,3.55,5.92-1.08,10.43-6.94,11.6-2.6.54-5.28.41-7.88.73-6.54.7-12.41,4.29-16.64,9.26-3.42,3.97-6.4,8.31-9.41,12.63-5.79,8.83-13.65,16.41-23.09,21.25-9.4,4.83-19.3,8.5-29.21,12.07,0,0-7.43,2.67-7.43,2.67-2.46.85-4.87,2.01-6.65,3.9-1.91,1.87-2.47,4.5-2.97,7.04-.49,2.57-.8,5.18-.85,7.8-.14,7.72,1.39,16.2,7.52,21.46,1.92,1.77,4.12,3.23,6.4,4.52,9.34,4.81,18.97,9.11,28.34,13.93,4.69,2.39,9.32,4.9,13.85,7.6l3.37,2.06c1.11.7,2.23,1.4,3.38,2.02,2.28,1.37,5.09,2.03,7.5,2.13h0Z"/>
      <path class="cls-1" d="M259.85.03c1.68,7.39,3.71,14.74,4.54,22.29.38,4.46.93,9.17,1.56,13.55.56,6.43,3.27,11.67,9.75,13.67,5.86,1.74,12.01-.26,17.85-1.22,17.72-4.02,35.26-9.04,53.22-12.19,5.03-.96,12.81-2.05,18.02-2.68,6.02-.76,12.12-1.31,18.2-.86,18.34,1.34,34.87,10.39,51.8,16.71,11.41,4.46,23.19,6.86,35.11,9.38,20.2,5.29,27.83,21.23,34.15,39.5,1.8,5.8,3.43,11.74,3.78,17.83.36,6.09-.68,12.17-1.83,18.12-1.27,5.95,2.68,12.34,8.99,12.71,6.19.61,11.28-3.7,16.77-5.89,5.67-2.37,11.76-3.38,17.81-3.92,19.68-1.65,39.14,5.19,38.76,28.07-.21,6.16-1.89,12.05-3.07,17.98-.4,2.84-1.71,5.98-.1,8.64,3.33,5.07,9.4,7.43,14.75,9.83,2.8,1.18,5.53,2.54,8.29,3.77,5.52,2.47,11.23,4.62,17.2,5.59,2.99.4,6.01.89,9,1.24,3.38.38,6.82.39,10.1-.55.43-.09.82,0,1.17,0,0,0,2.27-.06,2.27-.06,4.24.02,9.37-.62,13.64-.58,3.04.07,6.07.44,9.06.96,2.26.32,4.42,1.14,6.73.83.38.01.78.1,1.09.34.32.23.52.58.66.93,0,.02,0,.04-.02.05-.02,0-.04,0-.05-.02-.14-.34-.34-.68-.64-.89-.3-.22-.67-.31-1.05-.32-2.28.33-4.5-.47-6.75-.77-2.99-.49-6.01-.83-9.03-.88-4.53-.01-9.07.7-13.62.69,0,0-2.28.07-2.28.07-.4,0-.78-.07-1.09,0-3.32.96-6.82.97-10.22.6-3.03-.34-6.01-.81-9.03-1.2-6.04-.95-11.8-3.1-17.35-5.55-5.49-2.65-11.21-4.67-16.53-7.68-2.61-1.61-5.25-3.4-6.87-6.09-1.73-2.81-.46-6.12-.01-9.11,1.05-5.28,2.92-12.55,3.03-17.86.34-8.94-3.58-18.36-11.66-22.75-7.95-4.32-17.37-5.41-26.3-4.6-6.01.54-12.04,1.54-17.6,3.86-5.56,2.24-10.75,6.59-17.11,5.93-4.79-.29-8.85-4.16-9.63-8.85-.53-3.08.37-6.13.91-9.11,1.08-5.93,1.53-12.03.61-18.01-1.77-10.45-5.36-20.54-10.17-29.97-2.67-5.43-6.2-10.47-10.83-14.37-4.6-3.93-10.15-6.65-15.98-8.23-5.87-1.47-11.91-2.36-17.75-3.98-17.76-4.29-34.02-12.95-51.36-18.43-5.75-1.89-11.72-3.08-17.76-3.47-8.81-.71-18.36,1.03-27.11,2.14-21.03,3.18-41.47,8.92-62.19,13.59-5.94.95-12.14,2.94-18.09,1.14-4.44-1.33-8.11-5-9.21-9.54-.93-4.48-1.39-9.01-1.85-13.55-.13-2.32-.62-6.68-.99-9.04-.88-5.94-2.64-12.13-3.67-17.82h0Z"/>
      <path class="cls-1" d="M248.2.04c-.45,3.1.37,6.19.36,9.31-.09,3.13-.72,6.23-1.82,9.16-2.12,5.95-6.83,10.38-9.96,15.76-2.53,3.96-4.39,8.21-6.39,12.45-2.17,4.2-5.73,7.58-9.8,9.93-4.57,2.72-12.2,5.29-17.15,7.46-5.85,2.1-11.35,5.2-15.2,10.17-1.99,2.4-3.47,5.1-4.88,7.87-3,5.69-10.19,19.36-13.07,24.8-9.52,15.58.37,29.37,9.31,42.32,10.72,14.71,19.03,34.83,10.47,52.45-2.63,5.69-6.69,10.6-11.25,14.84-4.49,4.32-9.85,7.66-14.08,12.24-4.27,4.51-7.67,9.82-10.02,15.56-2.44,5.75-3.3,12-5.59,17.81-2.45,6.58-6,12.82-10.76,18.03-1.25,1.42-3.7,3.65-5.01,4.92-6.65,6.57-11.61,14.55-16.68,22.36-1.64,2.65-3.74,5.15-6.43,6.87-12.11,7.22-26.15.27-30.46-12.62-1.07-2.97-1.69-6.07-2.01-9.19-.62-6.18-1.82-12.29-3.58-18.24-1.73-5.96-4.03-11.75-6.64-17.39-3.19-7.09-7.79-13.72-9.28-21.46-.74-4.71.58-9.36,1.15-13.99.67-6.16-.37-12.41-2.52-18.21-3.33-8.66-7.74-17.08-14.04-23.96-6.55-7.66-14.72-11.16-24.78-9.15-6.12,1.14-11.86,3.81-18.03,4.84-.05,0-.06-.07-.01-.07,6.15-1.08,11.85-3.79,18-4.99,10.2-2.13,18.46,1.39,25.13,9.11,6.38,6.91,10.85,15.34,14.25,24.05,2.2,5.85,3.29,12.2,2.64,18.47-.53,4.6-1.83,9.19-1.09,13.83,1.53,7.64,6.11,14.16,9.27,21.25,2.62,5.66,4.93,11.49,6.67,17.5,1.77,5.99,2.97,12.16,3.59,18.38.32,3.07.92,6.12,1.96,9.02,4.13,12.42,17.65,19.26,29.41,12.28,2.59-1.65,4.6-4.03,6.23-6.66,5.08-7.82,10.1-15.86,16.83-22.43,1.23-1.18,3.94-3.67,5.01-4.87,4.73-5.14,8.27-11.28,10.73-17.81,2.31-5.8,3.2-12.05,5.67-17.79,2.38-5.78,5.83-11.12,10.14-15.65,4.26-4.58,9.63-7.91,14.14-12.21,4.56-4.21,8.6-9.08,11.23-14.72,8.5-17.55.1-37.5-10.61-52.11-9.14-13.1-19.06-27.01-9.48-42.85,2.86-5.49,10.08-19.22,13.02-24.81,1.42-2.77,2.96-5.55,4.98-7.96,3.9-5.02,9.56-8.2,15.46-10.29,4.8-2.01,12.62-4.76,17.12-7.36,4.02-2.3,7.51-5.6,9.66-9.72,2-4.2,3.92-8.51,6.45-12.44,3.13-5.38,7.88-9.74,10.06-15.65,1.12-2.89,1.77-5.97,1.89-9.07.14-3.05-.92-6.5-.2-9.31h0Z"/>
      <path class="cls-1" d="M270.2.02c2.97,10.22,6.6,20.87,14.28,28.56,8.1,7.49,20.07,7.75,30.47,6.65,10.68-1.33,21.31-3.32,31.95-5.06,7.52-1.13,16.44-3.2,23.94-4.07,8.06-.77,16.2-1.33,24.28-.34,10.72,1.39,21.29,3.85,31.49,7.44,5.09,1.87,9.84,4.47,14.73,6.71,7.35,3.36,15.12,5.81,23.08,7.2,14.33,2.29,26.45,3.28,36.41,15.25,7.17,8.2,11.42,18.38,15.23,28.44,3.09,7.38,5.66,15.25,10.48,21.7,3.29,4.25,8.18,6.93,13.37,8.13,7.88,1.81,16.04,1.79,24.02,3.17,13.21,2.18,26.92,8.68,33.05,21.21,3.68,7.35,4.26,15.72,4.99,23.73.41,5.35,1.24,10.7,3.79,15.48,5,9.39,14.78,16.31,25.31,17.88,7.8,1.27,16.32-.06,24.13-.84,8.09-1.19,16.17.68,24.19,1.41.05,0,.04.08,0,.07-5.38-.43-10.71-1.38-16.09-1.58-4.49-.26-11.52.85-16.09,1.31-5.36.63-10.81.81-16.19.08-10.72-1.55-20.66-8.5-25.81-18.04-3.99-7.28-3.74-15.75-4.78-23.74-1.84-21.69-16.13-32.7-36.61-36.28-10.49-2.01-22.06-.8-31.66-6.2-4.79-2.76-8.08-7.44-10.36-12.36-2.26-4.92-4.36-9.89-6.27-14.94-5.49-14.75-12.58-31.09-27.62-38.18-7.4-3.32-15.62-4.03-23.53-5.46-7.97-1.44-15.76-3.87-23.15-7.2-4.92-2.22-9.68-4.8-14.74-6.63-15.25-5.08-31.37-8.75-47.53-7.52-10.64.39-21.46,3.21-31.95,4.79-10.66,1.69-21.26,3.64-32,4.93-5.37.57-10.84.71-16.19-.2-5.32-.85-10.64-2.89-14.6-6.69-7.62-7.69-11.43-18.79-14.02-28.84h0Z"/>
      <path class="cls-1" d="M278.91.32c.65.14,1.2.66,1.42,1.28.55,1.87,1.31,3.66,2.16,5.43,3.27,7.04,8.57,13.3,15.61,16.71,9.42,4.75,20.36,3.7,30.56,3.09,20.81-1.49,40.84-8.35,61.66-9.7,10.42-.63,20.83-.28,31.25-.08,7.9.37,15.34,3.76,21.57,8.49,6.05,4.91,12.99,8.77,20.58,10.68,4.32,1.25,10.9,1.7,15.43,2.14,5.18.53,10.36,1.18,15.43,2.47,16.06,3.96,25.64,17.97,31.22,32.65,2.78,7.28,4.2,15.06,8.08,21.89,3.38,7.16,10.32,11.63,17.87,13.47,15.01,3.72,31.19,6.61,43.42,16.79,8.2,6.63,13.51,16.35,15.72,26.57,1.13,5.09,1.99,10.23,3.41,15.21,4.89,17.54,15.31,26.53,34.06,23.81,5.19-.4,10.42-.51,15.62-.09,5.21.35,10.29,1.61,15.41,2.49.05,0,.03.08-.01.07-5.13-.83-10.21-2.03-15.42-2.33-5.19-.37-10.4-.19-15.58.22-18.99,2.84-29.62-6.25-34.7-24.01-1.46-5.02-2.36-10.17-3.51-15.23-2.25-10.07-7.39-19.63-15.49-26.17-12.17-10.12-28.18-12.95-43.14-16.68-7.66-1.87-14.84-6.51-18.29-13.83-3.9-6.86-5.27-14.69-8.02-22.01-5.46-14.58-14.86-28.53-30.78-32.51-5.03-1.29-10.2-1.97-15.37-2.51-4.54-.44-11.1-.93-15.46-2.2-7.6-1.93-14.63-5.75-20.71-10.66-6.19-4.66-13.59-7.99-21.4-8.32-10.39-.15-20.82-.47-31.19.21-20.77,1.51-40.83,8.27-61.66,9.65-10.29.58-21.29,1.58-30.78-3.26-7.11-3.48-12.37-9.86-15.59-16.99-.83-1.77-1.57-3.6-2.1-5.46-.22-.61-.72-1.09-1.35-1.24-.05,0-.03-.09.02-.07h0Z"/>
      <path class="cls-1" d="M166.94,388.26c1.98-1.79,1.93-4.89,4.04-6.67,1.84-1.88,3.88-3.56,6.06-5.02,15.39-10.07,34.6-12.83,49.13-24.36,6.58-4.64,9.67-12.17,14.08-18.62,3.05-4.3,7.01-8.02,11.59-10.64,4.41-2.7,8.78-5.81,11.58-10.23,5.6-9.04,3.83-20.72-.51-29.94-2.2-4.75-4.59-9.42-7.29-13.91-2.74-4.3-5.35-9.34-10.24-11.47-4.97-2.25-10.47.29-14.26,3.66-3.98,3.41-6.9,7.87-9.35,12.47-2.46,4.64-5.31,9.04-7.87,13.63-9.89,16.64-31.72,17.98-44.72,30.94-9.56,9.13-13.87,22.24-15.17,35.14-.43,3.9-.61,7.82-.61,11.74.07,4-.94,8.21-3.96,11.05-2.05,2.02-5.24,1.86-7.75.99-5.01-1.59-9.95-3.32-15.11-4.11-5.14-.87-10.38-1.14-15.58-.76-2.6.21-5.25.52-7.87.5-7.92.02-15.89-2.13-22.58-6.4-8.68-5.73-17.14-12.4-27.45-14.79-3.54-.67-8.44-1.26-10.39,2.52-.57,1.13-.72,2.45-.52,3.72,0,0,2.94,15.44,2.94,15.44.22,1.41,1.64,8.39,1.84,9.66.32,1.93-.24,4,.66,5.81.02.04-.05.08-.07.03-.92-1.82-.38-3.89-.72-5.81-.25-1.14-1.66-8.31-1.94-9.64-1.03-5.15-2.09-10.26-3.08-15.43-.21-1.32-.07-2.73.54-3.95,2.02-3.98,7.13-3.49,10.83-2.79,10.37,2.33,18.98,9.02,27.69,14.71,6.61,4.18,14.44,6.22,22.24,6.19,2.63.02,5.19-.28,7.82-.49,5.26-.38,10.56-.1,15.76.78,5.22.81,10.23,2.56,15.21,4.15,2.37.78,5.15,1.02,7.06-.83,4.04-3.71,3.74-9.39,3.8-14.47.09-2.63.27-5.25.56-7.87,1.32-13.02,5.7-26.33,15.44-35.5,13.13-12.99,34.9-14.13,44.85-30.69,2.56-4.56,5.44-8.97,7.91-13.58,2.48-4.61,5.43-9.08,9.46-12.51,3.86-3.41,9.47-6.04,14.53-3.75,4.98,2.14,7.63,7.21,10.43,11.54,2.73,4.49,5.15,9.16,7.37,13.91,4.46,9.33,6.27,21.2.6,30.43-2.84,4.52-7.27,7.71-11.73,10.47-4.52,2.61-8.35,6.26-11.4,10.48-4.42,6.44-7.64,14.05-14.27,18.67-14.61,11.49-33.82,14.25-49.33,24.14-2.19,1.43-4.24,3.07-6.09,4.92-2.08,1.6-2.13,5.17-4.15,6.56h0Z"/>
      <path class="cls-1" d="M679.4,101.26c-12.38.87-40.39,3.47-47.83-8.56-4.65-8.36-3.66-18.23-4.9-27.37-.91-7.92-4.66-14.16-13-15.54-3.64-.43-7.4,0-11.04.57-7.32,1.28-14.49,3.45-21.79,4.84-8.91,2.02-18.47,4.24-25.49,10.42-4.09,3.85-5.55,9.85-4.21,15.25,1.69,7.98,7.08,12.48,13.88,16.27,9.77,5.3,20.36,9.11,30.68,13.3,3.47,1.4,6.97,2.76,10.14,4.8,6.55,4.03,10.29,11.12,12.15,18.38,2.14,7.14,4.02,14.35,6.29,21.42,2.62,8.9,7.43,17.55,16.81,20.48,5.23,2.08,10.94,1.78,16.43,2.67,7.39.99,14.7,2.5,21.89,4.45.05.01.03.09-.02.07-10.83-2.85-21.9-4.36-33.04-5.29-12.99-2.16-19.07-10.16-22.75-22.17-2.35-7.08-4.16-14.32-6.31-21.44-1.82-7.12-5.42-14.03-11.84-17.99-3.1-2-6.59-3.36-10.01-4.75-10.34-4.21-20.9-8.01-30.71-13.45-3.2-1.93-6.41-3.95-8.99-6.7-4.87-5.58-7.23-14.11-3.91-21.01,4.78-9.66,19.32-12.65,28.95-15.01,10.96-1.99,21.66-6.53,32.97-5.63,8.55,1.35,12.59,7.81,13.55,15.94,1.33,9.09.19,18.88,4.74,27.19,5.13,7.9,16.52,8.44,25.06,9.2,7.35.65,15.16-.23,22.3-.35h0Z"/>
      <path class="cls-1" d="M201.29.38c-6.28,8.92-13.66,16.99-20.29,25.62-3.36,4.27-6.19,8.96-9.85,13.06-3.58,4.14-7.99,7.67-13.06,9.82-7.61,3.04-15.32,5.69-22.87,8.82-7.44,3.28-14.58,7.56-20.2,13.51-5.58,5.88-9.96,13.17-11.08,21.29-.56,5.44-1.12,11.19-5.07,15.38-2.77,3.15-6.64,4.98-10.49,6.38-3.67,1.44-7.7,3.15-11.31,4.69-10.07,4.11-19.99,9.12-30.86,10.8-5.44.74-10.99.56-16.37-.49-10.81-2.06-20.47-7.81-29.84-13.2,9.56,4.97,19.14,10.79,29.94,12.67,5.33.98,10.81,1.1,16.16.31,10.73-1.74,20.68-6.65,30.68-10.74,3.61-1.53,7.66-3.24,11.34-4.68,3.79-1.37,7.53-3.15,10.25-6.18,3.89-4.04,4.46-9.71,5.07-15.02,1.23-8.18,5.69-15.54,11.36-21.42,5.71-5.89,12.82-10.26,20.27-13.63,7.51-3.2,15.25-5.93,22.8-9.01,4.98-2.14,9.22-5.68,12.8-9.73,3.65-4.01,6.52-8.68,9.92-12.95,6.72-8.51,14.2-16.92,20.69-25.31h0Z"/>
      <path class="cls-1" d="M679.11,268.36c-1.31,5.01-3.01,9.93-5.18,14.64-4.3,11.55-15.32,12.83-26.16,12.48-5.16-.21-10.32.04-15.48.38-5.17.37-10.36.31-15.4,1.49-5.04,1.08-9.88,3.05-14.29,5.73-6.71,4.01-11.87,9.96-16.44,16.2-2.98,4.11-6.38,8.26-7.9,13.16-.65,2.58.54,4.95,1.86,7.12,3.9,6.69,7.72,13.55,10.47,20.82,11.66,30.01,27.3,30.75,55.64,22.56,6.25-1.44,10.05-.45,12.81,5.68.02.04-.05.07-.07.03-1.1-2.3-2.71-4.55-5.11-5.52-1.18-.49-2.48-.59-3.75-.43-3.89.33-7.54,1.66-11.28,2.7-12.19,3.38-27.27,5.03-37.01-4.75-7.67-7.33-10.73-17.72-14.94-27.12-2.19-4.67-4.78-9.15-7.28-13.68-2.46-3.79-2.76-7.21-.3-11.13,3.2-5.65,7.31-10.7,11.41-15.72,8.42-9.94,20.72-16.44,33.77-17.21,7.51-.43,15.79-1.34,23.29-.93,10.67.43,21.48-.67,25.79-11.99,2.26-4.59,4-9.83,5.53-14.48h0Z"/>
      <path class="cls-1" d="M510.24.03c2.09,9.35,3.09,19.31,8.63,27.4,3.96,6.06,9.77,10.68,16.12,14.06,6.32,3.6,13.47,5.23,20.7,5.68,4.81.44,9.62-.36,14.43-.83,14.48-1.44,28.16-7.35,42.64-8.7,7.24-.47,15.08,1.59,20.2,7.01,5.1,5.58,5.45,13.66,5.89,20.76.42,17.65,8.19,26.56,26.05,27.74,4.81.35,9.75.02,14.54.32-4.8.01-9.71.27-14.56.05-18.19-.98-26.36-10.15-26.8-28.06-.47-7.06-.75-14.8-5.66-20.31-4.95-5.27-12.53-7.29-19.62-6.93-4.82.22-9.55,1.37-14.24,2.41-14.06,3.33-28.3,7.33-42.89,6.97-4.83-.31-9.7-.94-14.32-2.54-9.08-3.37-17.58-9.13-22.89-17.35-5.44-8.12-6.65-18.5-8.2-27.69h0Z"/>
      <path class="cls-1" d="M50.53.38c-3.42,4-4.93,9.23-8.05,13.46-4.79,7.72-12.2,18.87-16.84,26.54-2.6,4.49-4.72,9.38-5.04,14.59-.08,11.39,3.78,24.32,13.85,30.72,8.38,4.7,18.25-.14,25.53-4.85,4.39-2.89,7.99-6.72,11.91-10.19,3.91-3.5,7.96-6.84,12.1-10.07,8.26-6.47,16.78-12.58,25.14-18.89,8.31-6.35,15.84-13.74,24.26-19.98,8.13-6.4,17.67-12.09,22.27-21.71-1.97,4.85-5.68,8.94-9.61,12.37-4,3.41-8.2,6.54-12.33,9.77-8.35,6.32-15.74,13.8-24.15,20.14-8.38,6.31-16.91,12.4-25.16,18.85-4.12,3.23-8.19,6.52-12.14,9.96-3.95,3.44-7.63,7.26-12.06,10.1-8.31,5.56-20.75,10.45-29.07,2.39-7.94-7.09-11.1-18.26-11.11-28.64.41-8.09,4.94-15,9.28-21.52,2.72-4.19,10.03-15.45,12.84-19.78,0,0,2.14-3.29,2.14-3.29,2.07-3.21,3.52-7.47,6.23-9.96h0Z"/>
      <path class="cls-1" d="M516.71.03c1.81,8.83,5.91,17.32,12.58,23.47,9.47,8.74,24.31,13.99,37.15,13.99,4.52,0,9.03-.51,13.49-1.27,8.95-1.43,17.54-4.66,26.58-5.66,8.98-1.17,18.33-1.3,27.04,1.58,10.32,3.18,15.58,8.7,16.16,19.75.61,8.76-1.55,18.74,4.52,26.02,2.93,3.5,7.45,4.95,11.75,6.03,4.38,1.12,9.04,1.36,13.46.46-4.35,1.21-9.14.91-13.54-.1-7.12-1.48-13.17-4.66-15.42-12.03-2.16-6.57-1.09-13.62-1.54-20.33-.6-10.7-5.58-15.97-15.61-19.13-8.59-2.88-17.84-2.9-26.76-1.84-13.46,1.62-26.39,6.98-40.11,6.95-13.36.13-27.69-4.87-37.51-14.04-6.59-6.2-10.99-15.15-12.22-23.85h0Z"/>
      <path class="cls-1" d="M188.03.05c-2,4.64-4.87,8.84-7.77,12.95-5.74,8.27-11.8,16.5-19.64,22.93-7.79,6.6-17.68,9.68-26.6,14.29-4.49,2.27-8.87,4.75-13.1,7.48-8.41,5.47-16.19,12.09-22.47,19.93-2.29,2.84-4.2,6.39-5.95,9.59-3.21,5.45-7.17,10.47-11.92,14.67-9.47,8.48-21.42,13.74-33.7,16.61-9.99,2.13-20.56.08-29.36-4.98-6.42-3.88-12.99-8.19-17.19-14.56,4.31,5.9,10.97,10.45,17.41,14.16,8.74,4.9,19.15,6.75,28.98,4.63,12.14-2.88,23.98-8.08,33.39-16.39,4.7-4.14,8.7-9.06,11.93-14.42,1.79-3.21,3.75-6.75,6.08-9.57,9.63-11.75,22.32-20.57,35.69-27.55,8.85-4.71,18.61-7.93,26.39-14.41,7.85-6.32,13.95-14.46,19.74-22.65,2.99-3.99,5.93-8.47,8.08-12.72h0Z"/>
      <path class="cls-1" d="M177.99.38c-3.27,3.59-4.54,8.5-7.53,12.32-5.47,8-12.53,14.87-20.56,20.29-12.33,7.61-25.29,14.12-37.01,22.7-7.85,5.58-15.45,11.62-21.97,18.74-6.51,7.14-11.87,15.34-19.51,21.39-14.99,12.62-36.39,20-53.27,6.47-7.58-6.1-13.06-14.44-17.79-22.77,5.1,8.05,10.48,16.41,18.13,22.34,23.53,17.96,52.63-2.36,67.34-22.29,7.64-9.42,17.13-17.07,26.91-24.12,7.83-5.66,16.02-10.81,24.35-15.69,8.44-4.67,16.82-9.49,23.71-16.33,4.33-4.17,8.13-8.89,11.38-13.95,1.95-2.94,3.23-6.92,5.83-9.11h0Z"/>
      <path class="cls-1" d="M168.28.38c-2.57,2.48-3.6,6-5.51,8.95-3.27,4.91-7.51,9.09-12.09,12.77-14.75,11.14-31.28,21.29-46.03,32.42-7.51,5.59-15.17,11.08-21.65,17.89-3.27,3.35-6.25,6.99-9.63,10.27-6.71,6.57-14.41,12.42-23.25,15.77-8.87,3.41-19.6,2.19-26.87-4.17-3.69-3.05-6.25-7.14-8.66-11.14-2.42-4.03-4.62-8.18-6.86-12.3-2.09-4.2-5.15-7.92-7.38-12.01,2.5,3.92,5.49,7.67,7.71,11.83,2.29,4.1,4.54,8.21,7,12.2,7.54,13.56,19.57,20.19,34.81,14.85,13.34-4.91,23.4-15.38,32.85-25.59,6.51-6.83,14.36-12.11,21.77-17.83,11.28-8.42,22.72-16.63,34.41-24.48,3.9-2.6,7.8-5.21,11.47-8.11,4.6-3.61,8.81-7.73,12.14-12.55,1.99-2.79,3.17-6.74,5.79-8.76h0Z"/>
      <path class="cls-1" d="M69.94.38c-9.38,12.79-20.31,24.9-25.95,39.95-2.42,6.17-4.74,17.25-.53,22.93,2.29,3.31,6.61,4.77,10.46,3.63,7.78-2.04,14.38-6.78,20.81-11.43,7.65-5.48,16.84-11.84,23.93-17.91,4.5-3.95,7.95-8.84,11.62-13.56,4.96-6.27,10.61-12.09,17.21-16.65,1.64-1.17,3.4-2.11,4.89-3.43,1.55-1.24,3.05-2.75,4.85-3.57-1.66,1.06-3.21,2.4-4.69,3.75-1.48,1.37-3.23,2.38-4.83,3.55-6.49,4.63-12.01,10.48-16.85,16.79-3.6,4.76-7.15,9.72-11.67,13.71-7.64,6.46-15.91,12.1-24.12,17.79-6.51,4.56-13.23,9.27-21.07,11.24-3.94,1.12-8.37-.41-10.76-3.75-4.36-5.67-2.17-17.05.17-23.32C49.02,25.06,60.19,12.55,69.94.38h0Z"/>
      <path class="cls-1" d="M523.83.02c2.12,6.06,5.52,11.71,10.31,15.96,9.71,8.41,23.13,11.72,35.79,11.32,9.65-.46,19.07-2.91,28.6-4.37,3.19-.61,6.47-.54,9.64-.78,3.16-.36,6.42-.81,9.63-.86,6.42-.21,12.87.12,19.21-.95,10.35-1.37,14.18-8.68,16.06-18.13.07-.8.02-1.85,1.1-1.89.05,0,.06.07,0,.07-1.05.08-.89,1.06-.96,1.84-2.63,16.12-10.54,19.42-25.75,19.69-5.74.06-13.64.12-19.25.94-3.24.23-6.44.09-9.6.64-9.56,1.34-19.01,3.5-28.67,4.08-19.55,1.13-40.7-7.4-46.11-27.56h0Z"/>
      <path class="cls-1" d="M.39,250.87c3.49,5.02,8.79,8.2,13.65,11.74,4.9,3.54,9.82,7.07,14.68,10.66,10.62,7.05,16.57,18.32,14.74,31.15-.76,6.02-2.58,11.84-4.11,17.69-.79,2.92-1.57,5.84-2.31,8.76-.73,2.5-1.31,6.52-2.47,8.8-3.07,5.99-10.75,5.48-16.48,6.39-3.74.4-7.56.67-11.31.9-2.27-.09-4.55,1.16-6.77.58,2.25.29,4.48-.83,6.75-.89,3.74-.32,7.55-.65,11.27-1.12,5.48-1.04,12.89-.54,15.86-6.21,1.24-2.65,1.53-5.81,2.4-8.64,1.35-5.07,3.39-12.37,4.84-17.49,3.66-12.07,3.61-24.26-5.78-33.73-2.08-2.19-4.5-3.95-6.99-5.69-4.91-3.53-9.79-7.11-14.65-10.7-4.69-3.58-10.41-7.14-13.3-12.21H.39Z"/>
      <path class="cls-1" d="M291.55.02c3.93,10.24,13.47,15.98,23.8,18.22,5.07,1.2,10.34,1.87,15.56,1.34,10.47-.92,20.81-2.71,30.98-5.36,10.19-2.5,20.31-5.29,30.27-8.57,4.95-1.75,9.92-3.68,14.87-5.29-9.67,4.02-19.58,7.82-29.71,10.62-10.13,2.81-20.34,5.4-30.74,7-5.2.76-10.43,1.27-15.65,1.86-15.09,1.47-34.5-4.02-39.39-19.81h0Z"/>
      <path class="cls-1" d="M283.71,388.61c1.64-10.81,2.58-21.61-8.34-27.85-11.19-6.17-19-4.28-30.14.51-9.82,3.94-19.79,7.45-29.78,10.92-6.22,2.17-12.55,4.18-18.07,7.81-3.28,2.24-5.56,5.57-8.4,8.32,2.38-2.8,4.95-6.38,8.14-8.69,5.48-3.78,11.85-6.03,18.07-8.17,9.96-3.53,20-6.84,29.88-10.57,4.93-1.85,9.91-3.88,15.24-4.29,7.51-.39,16.81,2.63,21.4,8.86,5,6.64,3.6,15.84,1.98,23.16h0Z"/>
      <path class="cls-1" d="M679.4,109.66c-10.17.66-20.41,1.59-30.07,4.85-7.7,2.13-13.21,7.97-14.49,15.9-1.27,7.41-.27,15.5,3.43,22.09,2.55,4.36,6.65,7.66,11.28,9.6,4.64,2.03,9.81,2.32,14.82,3.35,5.02.96,10.12,1.89,15.06,3.01-5.03-.65-10.11-1.69-15.15-2.47-5.04-.88-10.26-1.1-15.02-3.17-4.79-1.96-9.01-5.44-11.59-9.96-3.73-6.76-4.46-14.99-3.09-22.5,1.36-7.92,6.85-14.13,14.54-16.44,9.65-3.33,20.39-4.35,30.27-4.27h0Z"/>
      <path class="cls-1" d="M510.17,388.62c-1.13-5.38-5.61-9.02-10.69-10.52-4.98-1.88-9.8-4.21-14.33-7.03-4.53-2.82-8.74-6.1-12.74-9.59-3.98-3.47-8.66-6.24-13.74-7.66-12.39-3.48-19.43,3.07-25.74,12.94-2.96,4.39-5.79,8.9-9.12,13.08-2.02,2.67-4.59,4.87-7.32,6.78-1.5,1.15-3.9,2.27-5.6,1.63,2.75.45,4.98-1.53,6.98-3.11,2.07-1.65,3.96-3.5,5.51-5.64,9.71-12.39,15.69-32.07,35.4-26.08,5.12,1.57,9.74,4.43,13.8,7.86,4.01,3.47,8.35,6.54,12.89,9.26,4.54,2.72,9.28,5.1,14.21,7.02,2.48.88,5.01,2.08,6.91,4.01,1.86,1.83,3.39,4.67,3.58,7.04h0Z"/>
      <path class="cls-1" d="M.39,264.45c1.59,1.66,3.69,2.61,5.74,3.58,2.08.96,4.07,2.09,6.07,3.2,18.57,10.23,30.75,21.73,19.93,43.66C25.16,328.83,15.4,335.73,0,337.86c15.26-3.13,24.26-9.36,31.5-23.3,4.19-7.83,6.41-17.91,1.44-25.91-2.32-3.94-5.85-6.94-9.54-9.56-3.68-2.66-7.54-5.09-11.48-7.38-1.98-1.13-3.92-2.33-5.95-3.34-1.91-1.03-4.45-2.23-5.57-3.93H.39Z"/>
      <path class="cls-1" d="M444.24.02c6.75,12.63,17.58,26.43,33.27,25.98,3.74-.19,7.49.2,11.13-.33,5.34-.77,10.87-3.63,12.52-9.11,1.82-5.21,1.47-11.29,1.96-16.52-.05,7.18,1.02,15.91-4.16,21.68-2.67,2.8-6.49,4.08-10.22,4.65-3.78.5-7.51-.05-11.22.04-3.76.02-7.47-.84-10.94-2.27-10.63-4.19-18.06-14.09-22.34-24.12h0Z"/>
      <path class="cls-1" d="M.39,275.44c2.5,2.1,5.81,2.52,8.73,4,2.83,1.58,5.65,3.14,8.26,5.08,13,9.24,10.97,23.22-.15,33.05-4.27,3.78-9.49,6.33-14.95,7.87-.4.08-.8.1-1.16.26-.36.14-.61.47-.72.85,0,.02-.03.03-.05.03,0-.93,1.13-1.23,1.88-1.37,5.25-1.84,10.33-4.5,14.49-8.22,6.97-6.06,12.53-16.56,7.15-25.35-3.63-5.36-9.59-8.44-15.01-11.7-2.67-1.51-6.55-2.2-8.47-4.51H.39Z"/>
      <path class="cls-1" d="M365.6,388.32c-2.37.17-4.22-1.57-6.15-2.62-3.36-1.61-6.83-3.06-10.33-4.36-8.36-3.33-17.42-4.74-26.4-4.41-5.94-.06-11.93,1.48-16.59,5.31-2.41,1.79-4.68,3.85-6.23,6.4,1.15-2.78,3.58-4.96,5.86-6.86,4.61-4.09,10.86-5.76,16.94-5.55,9.04-.03,18.02,1.81,26.62,4.53,3.57,1.24,7.02,2.75,10.36,4.51,1.91,1.13,3.56,2.91,5.91,2.98.05,0,.05.07,0,.07h0Z"/>
      <path class="cls-1" d="M270.13,388.62c-1.52-8.28-10.11-13-18.07-12.39-5.35.56-10.56,2.2-15.69,3.76-7.72,2.45-15.25,5.6-22.85,8.31,4.81-2.38,9.87-4.51,14.94-6.41,5.07-1.89,10.27-3.47,15.58-4.55,5.29-1.07,10.8-2.3,16.11-.6,5.19,1.53,9.82,6.57,9.99,11.88h0Z"/>
      <path class="cls-1" d="M679.4,121.95c-4.98,1.35-10.24,1.72-15.04,3.64-7,2.59-13.45,11.42-6.97,17.86,1.75,1.81,4.24,2.69,6.73,3.09,5.03.89,10.51-.23,15.28-1.32-6.79,2.45-16.74,4.35-22.52-1.28-6.52-6.75.37-15.81,7.23-18.92,2.39-1.12,5-1.57,7.57-1.98,2.5-.34,5.4-1.01,7.72-1.09h0Z"/>
      <path class="cls-1" d="M481.39,388.32c-2.61-1.31-4.08-4.04-5.83-6.22-1.81-2.17-3.83-4.19-5.81-6.24-1.8-1.76-4.08-4.53-5.95-6.14-2.18-1.83-4.92-2.87-7.67-3.48-1.37-.32-2.75-.55-4.13-.26-6.91,1.87-11.1,8.73-13.94,14.87-1.1,2.62-2.97,5.2-3.58,7.75.27-2.9,2.12-5.29,3.04-7.98,2.78-7.07,9.86-17.63,18.72-14.78,3.46.92,6.84,2.51,9.33,5.13,0,0,1.53,1.49,1.53,1.49,3.02,2.87,6.34,6,8.92,9.28,1.65,2.37,3.2,4.99,5.38,6.57h0Z"/>
      <path class="cls-1" d="M36.56,388.62c-3.47-14.56-6.88-26.4-23-30.69-4.41-1.12-9.12-1.15-13.55-1.98,4.55.17,9.25.18,13.74,1.23,14.06,3.17,21.78,18.28,22.81,31.44h0Z"/>
      <path class="cls-1" d="M581.98,388.62c-1.57-4.36-3.49-8.58-5.81-12.55-1.17-1.94-2.62-3.83-4.66-4.91-7.65-3.93-18.62,5.76-22.92,11.6-1.19,1.56-2.38,3.33-3.39,5-.08.25,0,.55-.02.84,0,.02-.02.04-.04.04-.02,0-.04-.02-.04-.04,0-.28-.12-.56-.06-.89.87-1.86,1.91-3.61,3.07-5.3,4.44-6.66,15.15-15.41,23.52-11.49,2.09,1.09,3.79,2.85,5.07,4.81,2.38,3.92,4.5,8.58,5.29,12.88h0Z"/>
      <path class="cls-1" d="M668.76.03c.42,7.19.33,14.59,3.72,21.14,1.86,3.92,4.83,7.18,6.63,11.17.02.04-.04.07-.07.04-2.39-3.63-5.51-6.84-7.2-10.91-1.14-2.7-1.71-5.57-2.33-8.42-.99-4.16-1.5-8.97-.75-13.01h0Z"/>
      <path class="cls-1" d="M.39,134.49c1.97,2.42,5.33,2.95,7.52,5.37,2.34,2.36,6.04,6.82,4.4,10.31-2,3.37-5.07,6.06-8.35,8.16-1.35.85-2.97,1.25-3.61,2.73.2-1.64,2.13-2.32,3.29-3.22,2.5-1.77,4.72-3.9,6.8-6.14.99-1.12,1.97-2.37,1.87-3.87-.28-3.12-2.47-5.61-4.82-7.5-2.02-2.18-5.89-3.13-7.09-5.83H.39Z"/>
      <path class="cls-1" d="M27.24.38c-3.17,5-6.84,9.66-11.11,13.75-4.04,3.93-9.5,6.02-15.04,6.57,0,0-1.04.38-1.04.38-.02,0-.04,0-.05-.02,0-.02,0-.04.02-.05,0,0,.98-.53.98-.53,6.7-1.59,13.44-4.35,18.03-9.7,2.66-3.42,5.18-7.52,8.21-10.4h0Z"/>
      <path class="cls-1" d="M.05,288.68c6.47,1.06,14.29,8.39,10.39,15.23-2.19,3.64-6.32,6.24-10.44,6.8,3.84-1.44,7.53-3.71,9.83-7.16,4.64-7.18-4.35-12.42-9.79-14.86H.05Z"/>
      <path class="cls-1" d="M433.54,299.1c-3.65.99-7.09,2.75-9.96,5.19-2.77,2.53-5.28,5.5-8.46,7.61-4.65,3.34-9.91,5.7-15.2,7.77-6.69,2.83-14.34,6.52-17.09,13.71-2.54,7.72,3.44,15.05,10.74,17.06,13.83,4.51,18.84-8.03,24.48-17.88,2.97-4.97,7.74-8.7,13.03-10.93,5.24-2.27,10.98-3.08,15.66-6.41,3.64-2.48,4.96-5.44,1.82-9.06-3.45-4.54-9-7.15-14.71-7.04-.05,0-.05-.08,0-.08,6.67-.36,13.56,3.24,16.63,9.27,1.41,2.97-1.05,5.81-3.37,7.41-4.64,3.46-10.58,4.38-15.72,6.61-5.16,2.21-9.76,5.8-12.7,10.61-5.77,10.06-11.19,22.54-25.23,17.83-7.35-2.09-13.44-9.69-10.97-17.5,3.55-9.29,14.02-12.83,22.42-16.38,3.46-1.51,6.82-3.25,9.91-5.41,3.22-2.08,5.67-4.94,8.51-7.48,2.89-2.35,6.76-4.31,10.2-4.89h0Z"/>
      <path class="cls-1" d="M362.38,46.3c-3.17,1.34-6.66.72-9.95,1.16-16.28,2.64-33.24,8.23-44.78,20.53-6.69,7.52-10.06,17.48-11.17,27.36-2.12,18.56,22.48,23.74,36.32,27.1,13.1,3.32,28.38,3.95,33.13,19.13,4.03,15.19,9.6,23.45,25.12,28.33,9.57,3.08,19.56,4.64,29.3,7.14,0,0,9.79,2.31,9.79,2.31,6.53,1.4,13.02,3.6,19.76,3.19,3.37.02,6.71.38,10.05.63,7.67-.1,12.42,4.45,15.35,11.19,3.98,8.96,7.55,19.23,16.18,24.74,6.01,3.83,13.06,4.1,17.33-2.38,3.64-5.57,5.44-12.32,4.83-18.95-.74-15.87-16.73-19-29.65-20.38-7.68-.67-12.32-5.84-13.55-13.21-2.72-13.54,2.62-26.76,7.18-39.22,2.19-6.26,4.16-12.79,3.49-19.49-1.04-13.59-10.01-25.4-22.96-29.78-6.24-2.38-12.88-3.54-19.39-5.16-6.52-1.6-12.98-3.46-19.3-5.76-12.39-4.55-24.48-11.57-36.98-15.82-3.17-1.05-6.46-1.81-9.81-1.95-1.67-.07-3.37.11-5.02-.27-1.65-.35-3.37-.64-5.01-.46,1.62-.4,3.4.08,5.03.34,1.66.37,3.32.17,5,.23,3.37.12,6.68.85,9.88,1.88,6.37,2.16,12.51,4.88,18.61,7.65,5.45,2.5,12.86,6.05,18.45,7.96,6.3,2.27,12.76,4.09,19.27,5.66,9.7,2.34,20.08,3.87,28.5,9.68,8.42,5.79,13.66,15.61,14.46,25.73.68,6.79-1.32,13.46-3.54,19.79-4.53,12.4-9.85,25.44-7.17,38.85,2.75,13.92,11.83,11.96,22.92,14.16,8.09,1.68,17.09,5.83,19.39,14.5,2.22,8.21.51,17.28-4.16,24.33-5.72,8.6-15.76,5.54-22.07-.64-3.5-3.67-6.07-8.11-8.25-12.65-2.98-5.87-4.47-12.95-9.74-17.28-2.61-2.2-5.96-2.86-9.3-2.97-3.35-.26-6.68-.63-10.03-.66-3.35.12-6.73-.24-10.01-.95-4.89-1.17-14.71-3.45-19.59-4.61-9.76-2.47-19.73-3.99-29.35-7.04-6.4-1.99-12.67-5.14-17.09-10.31-4.53-5.1-6.46-11.82-8.39-18.2-4.7-14.91-19.89-15.42-32.8-18.67-14.22-3.35-38.9-8.79-36.72-27.77,1.15-10,4.59-20.01,11.38-27.61,11.64-12.36,28.71-17.9,45.1-20.39,3.28-.33,7.02.06,9.97-1h0Z"/>
    </g>
  </g>
</svg>