<?xml version="1.0" encoding="utf-8"?>
<!-- Generator: Adobe Illustrator 26.5.0, SVG Export Plug-In . SVG Version: 6.00 Build 0)  -->
<svg version="1.1" id="Layer_1" xmlns="http://www.w3.org/2000/svg" xmlns:xlink="http://www.w3.org/1999/xlink" x="0px" y="0px"
	 viewBox="0 0 512 512" style="enable-background:new 0 0 512 512;" xml:space="preserve">
<style type="text/css">
	.st0{fill:#FFFFFF;}
</style>
<g id="XMLID_1_">
	<ellipse id="XMLID_7_" cx="256" cy="256" rx="256" ry="254.74"/>
	<ellipse id="XMLID_8_" class="st0" cx="256.7" cy="256.42" rx="101.84" ry="101.28"/>
	
		<rect id="XMLID_9_" x="234.57" y="477.19" transform="matrix(0.0531 -0.9986 0.9986 0.0531 -254.1618 705.704)" class="st0" width="20.9" height="19.36"/>
	
		<rect id="XMLID_10_" x="209.59" y="474.51" transform="matrix(0.1603 -0.9871 0.9871 0.1603 -293.1549 623.7744)" class="st0" width="20.9" height="19.36"/>
	
		<rect id="XMLID_11_" x="185.25" y="469.07" transform="matrix(0.2665 -0.9638 0.9638 0.2665 -317.8881 539.7851)" class="st0" width="20.9" height="19.36"/>
	<polygon id="XMLID_12_" class="st0" points="158.93,476.93 166.79,457.57 184.74,464.73 177.03,484.09 	"/>
	<polygon id="XMLID_13_" class="st0" points="135.64,465.01 145.46,446.49 162.44,455.61 152.76,473.99 	"/>
	<polygon id="XMLID_14_" class="st0" points="113.62,450.56 125.4,433.31 141.4,444.11 129.61,461.36 	"/>
	
		<rect id="XMLID_15_" x="97.09" y="422.42" transform="matrix(0.6468 -0.7627 0.7627 0.6468 -291.5685 234.6502)" class="st0" width="20.9" height="19.36"/>
	
		<rect id="XMLID_16_" x="78.96" y="405.24" transform="matrix(0.7248 -0.689 0.689 0.7248 -261.2628 175.7956)" class="st0" width="20.9" height="19.36"/>
	
		<rect id="XMLID_17_" x="62.7" y="386.19" transform="matrix(0.7945 -0.6073 0.6073 0.7945 -225.374 125.7841)" class="st0" width="20.9" height="19.36"/>
	
		<rect id="XMLID_18_" x="48.55" y="365.48" transform="matrix(0.8554 -0.5179 0.5179 0.8554 -185.7704 84.7928)" class="st0" width="20.9" height="19.36"/>
	<polygon id="XMLID_19_" class="st0" points="33.53,348.58 52.46,339.88 60.6,357.28 41.66,366.12 	"/>
	
		<rect id="XMLID_20_" x="27.25" y="320.06" transform="matrix(0.9469 -0.3216 0.3216 0.9469 -104.04 29.6423)" class="st0" width="20.9" height="19.36"/>
	
		<rect id="XMLID_21_" x="20.57" y="295.86" transform="matrix(0.9763 -0.2166 0.2166 0.9763 -65.4416 13.9713)" class="st0" width="20.9" height="19.36"/>
	
		<rect id="XMLID_22_" x="16.43" y="271.07" transform="matrix(0.994 -0.1097 0.1097 0.994 -30.6347 4.6434)" class="st0" width="20.9" height="19.36"/>
	
		<rect id="XMLID_23_" x="15.02" y="246.21" transform="matrix(0.9999 -0.0161 0.0161 0.9999 -4.1184 0.4435)" class="st0" width="20.9" height="19.36"/>
	
		<rect id="XMLID_24_" x="17.05" y="220.3" transform="matrix(0.1036 -0.9946 0.9946 0.1036 -205.5478 233.4224)" class="st0" width="19.36" height="20.9"/>
	
		<rect id="XMLID_25_" x="21" y="195.47" transform="matrix(0.2106 -0.9776 0.9776 0.2106 -177.08 192.5423)" class="st0" width="19.36" height="20.9"/>
	
		<rect id="XMLID_26_" x="27.62" y="171.26" transform="matrix(0.3156 -0.9489 0.9489 0.3156 -146.9025 159.7565)" class="st0" width="19.36" height="20.9"/>
	
		<rect id="XMLID_27_" x="36.76" y="147.97" transform="matrix(0.4168 -0.909 0.909 0.4168 -116.922 134.6017)" class="st0" width="19.36" height="20.9"/>
	
		<rect id="XMLID_28_" x="48.52" y="125.72" transform="matrix(0.5128 -0.8585 0.8585 0.5128 -88.5458 116.3023)" class="st0" width="19.36" height="20.9"/>
	
		<rect id="XMLID_29_" x="62.47" y="104.88" transform="matrix(0.6023 -0.7983 0.7983 0.6023 -63.3755 103.4618)" class="st0" width="19.36" height="20.9"/>
	
		<rect id="XMLID_30_" x="78.68" y="85.72" transform="matrix(0.6845 -0.729 0.729 0.6845 -42.2351 94.7572)" class="st0" width="19.36" height="20.9"/>
	
		<rect id="XMLID_31_" x="96.8" y="68.45" transform="matrix(0.7588 -0.6513 0.6513 0.7588 -25.7062 88.3775)" class="st0" width="19.36" height="20.9"/>
	
		<rect id="XMLID_32_" x="116.66" y="53.1" transform="matrix(0.8244 -0.5661 0.5661 0.8244 -13.7843 82.6802)" class="st0" width="19.36" height="20.9"/>
	
		<rect id="XMLID_33_" x="138.11" y="40.01" transform="matrix(0.8807 -0.4737 0.4737 0.8807 -6.2683 76.0252)" class="st0" width="19.36" height="20.9"/>
	
		<rect id="XMLID_34_" x="160.82" y="29.31" transform="matrix(0.9269 -0.3753 0.3753 0.9269 -2.4607 66.8962)" class="st0" width="19.36" height="20.9"/>
	
		<rect id="XMLID_35_" x="184.54" y="21.17" transform="matrix(0.9622 -0.2725 0.2725 0.9622 -1.2683 54.1185)" class="st0" width="19.36" height="20.9"/>
	
		<rect id="XMLID_36_" x="209.03" y="15.71" transform="matrix(0.986 -0.1667 0.1667 0.986 -1.3013 36.8243)" class="st0" width="19.36" height="20.9"/>
	
		<rect id="XMLID_37_" x="233.88" y="12.88" transform="matrix(0.9982 -0.0594 0.0594 0.9982 -0.9561 14.5114)" class="st0" width="19.36" height="20.9"/>
	
		<rect id="XMLID_38_" x="258.21" y="13.45" transform="matrix(0.0472 -0.9989 0.9989 0.0472 232.8751 290.3935)" class="st0" width="20.9" height="19.36"/>
	
		<rect id="XMLID_39_" x="261.12" y="475.72" transform="matrix(0.9982 -0.0593 0.0593 0.9982 -28.3486 16.9109)" class="st0" width="19.36" height="20.9"/>
	
		<rect id="XMLID_40_" x="283.18" y="15.94" transform="matrix(0.1541 -0.9881 0.9881 0.1541 223.065 311.7938)" class="st0" width="20.9" height="19.36"/>
	
		<rect id="XMLID_41_" x="307.69" y="21.18" transform="matrix(0.2606 -0.9654 0.9654 0.2606 205.4436 329.9619)" class="st0" width="20.9" height="19.36"/>
	
		<rect id="XMLID_42_" x="331.6" y="29.01" transform="matrix(0.3641 -0.9314 0.9314 0.3641 181.4753 343.1745)" class="st0" width="20.9" height="19.36"/>
	
		<rect id="XMLID_43_" x="354.38" y="39.49" transform="matrix(0.4628 -0.8865 0.8865 0.4628 152.4082 349.8217)" class="st0" width="20.9" height="19.36"/>
	
		<rect id="XMLID_44_" x="375.91" y="52.23" transform="matrix(0.5558 -0.8313 0.8313 0.5558 120.1542 348.6867)" class="st0" width="20.9" height="19.36"/>
	
		<rect id="XMLID_45_" x="396.06" y="67.36" transform="matrix(0.642 -0.7667 0.7667 0.642 86.468 339.2518)" class="st0" width="20.9" height="19.36"/>
	
		<rect id="XMLID_46_" x="414.36" y="84.33" transform="matrix(0.7205 -0.6935 0.6935 0.7205 53.5534 320.8721)" class="st0" width="20.9" height="19.36"/>
	
		<rect id="XMLID_47_" x="430.79" y="103.38" transform="matrix(0.7908 -0.6121 0.6121 0.7908 23.1114 293.7351)" class="st0" width="20.9" height="19.36"/>
	<polygon id="XMLID_48_" class="st0" points="469.5,136.49 451.68,147.43 441.58,130.88 459.4,119.93 	"/>
	
		<rect id="XMLID_49_" x="456.99" y="146" transform="matrix(0.9036 -0.4283 0.4283 0.9036 -21.6322 215.2147)" class="st0" width="20.9" height="19.36"/>
	<polygon id="XMLID_50_" class="st0" points="489.98,184.6 470.2,191.47 463.89,173.24 483.66,166.36 	"/>
	<polygon id="XMLID_51_" class="st0" points="496.29,210.27 475.81,214.9 471.6,195.96 491.94,191.33 	"/>
	
		<rect id="XMLID_52_" x="477.65" y="218.15" transform="matrix(0.9933 -0.1159 0.1159 0.9933 -23.1156 58.1042)" class="st0" width="20.9" height="19.36"/>
	
		<rect id="XMLID_53_" x="479.33" y="243.1" transform="matrix(0.9999 -0.0161 0.0161 0.9999 -4.007 7.9197)" class="st0" width="20.9" height="19.36"/>
	
		<rect id="XMLID_54_" x="478.94" y="267.42" transform="matrix(0.0974 -0.9952 0.9952 0.0974 164.4926 737.106)" class="st0" width="19.36" height="20.9"/>
	
		<rect id="XMLID_55_" x="475.18" y="292.3" transform="matrix(0.2045 -0.9789 0.9789 0.2045 89.3555 715.4465)" class="st0" width="19.36" height="20.9"/>
	
		<rect id="XMLID_56_" x="468.67" y="316.53" transform="matrix(0.3097 -0.9508 0.9508 0.3097 19.2933 680.5363)" class="st0" width="19.36" height="20.9"/>
	
		<rect id="XMLID_57_" x="459.59" y="339.95" transform="matrix(0.4113 -0.9115 0.9115 0.4113 -43.1343 634.015)" class="st0" width="19.36" height="20.9"/>
	
		<rect id="XMLID_58_" x="448.08" y="362.24" transform="matrix(0.5074 -0.8617 0.8617 0.5074 -95.6616 578.0435)" class="st0" width="19.36" height="20.9"/>
	
		<rect id="XMLID_59_" x="434.19" y="383.12" transform="matrix(0.5974 -0.8019 0.8019 0.5974 -136.9248 514.3987)" class="st0" width="19.36" height="20.9"/>
	
		<rect id="XMLID_60_" x="418.2" y="402.4" transform="matrix(0.68 -0.7332 0.7332 0.68 -165.7868 445.8362)" class="st0" width="19.36" height="20.9"/>
	
		<rect id="XMLID_61_" x="400.17" y="419.7" transform="matrix(0.7547 -0.656 0.656 0.7547 -181.6713 374.376)" class="st0" width="19.36" height="20.9"/>
	
		<rect id="XMLID_62_" x="380.38" y="435.14" transform="matrix(0.8207 -0.5713 0.5713 0.8207 -184.6464 302.7294)" class="st0" width="19.36" height="20.9"/>
	
		<rect id="XMLID_63_" x="359.09" y="448.35" transform="matrix(0.8775 -0.4795 0.4795 0.8775 -174.8416 233.0184)" class="st0" width="19.36" height="20.9"/>
	
		<rect id="XMLID_64_" x="336.5" y="459.23" transform="matrix(0.9244 -0.3814 0.3814 0.9244 -152.9712 167.5387)" class="st0" width="19.36" height="20.9"/>
	
		<rect id="XMLID_65_" x="312.63" y="467.61" transform="matrix(0.9605 -0.2784 0.2784 0.9605 -120.3465 108.6263)" class="st0" width="19.36" height="20.9"/>
	
		<rect id="XMLID_66_" x="288.26" y="473.12" transform="matrix(0.985 -0.1724 0.1724 0.985 -78.9079 58.6071)" class="st0" width="19.36" height="20.9"/>
	<path id="XMLID_67_" d="M255.16,176.75c6.59,17.39,12.34,35.49,17.96,54.01c18.66,0,37.45,0,56.25,0
		c-13.61,12.62-30.16,22.3-44.89,33.67c5.05,18.52,11.78,35.35,16.83,54.01c-15.57-10.24-30.02-21.6-44.89-32.54
		c-17.11,9.4-30.02,23.15-47.13,32.54c5.61-17.67,12.34-34.09,16.83-52.88c-13.33-12.91-29.74-22.58-44.89-33.67
		c16.41-2.67,37.87-0.42,56.25-1.12C243.94,213.36,249.41,194.98,255.16,176.75z"/>
	<path id="XMLID_68_" class="st0" d="M84.02,213.36c3.23,8.56,6.17,17.53,8.84,26.65c9.26,0,18.52,0,27.63,0
		c-6.73,6.17-14.87,10.94-22.16,16.55c2.52,9.12,5.89,17.39,8.28,26.65c-7.72-5.05-14.87-10.66-22.16-16.13
		c-8.42,4.63-14.87,11.36-23.29,16.13c2.81-8.7,6.03-16.83,8.28-26.09c-6.59-6.31-14.73-11.22-22.16-16.55
		c8.14-1.26,18.66-0.14,27.63-0.56C78.41,231.45,81.08,222.33,84.02,213.36z"/>
	<path id="XMLID_69_" class="st0" d="M423.63,213.36c3.23,8.56,6.17,17.53,8.84,26.65c9.26,0,18.52,0,27.63,0
		c-6.73,6.17-14.87,10.94-22.16,16.55c2.52,9.12,5.89,17.39,8.28,26.65c-7.72-5.05-14.87-10.66-22.16-16.13
		c-8.42,4.63-14.87,11.36-23.29,16.13c2.81-8.7,6.03-16.83,8.28-26.09c-6.59-6.31-14.73-11.22-22.16-16.55
		c8.14-1.26,18.66-0.14,27.63-0.56C418.02,231.45,420.68,222.33,423.63,213.36z"/>
	<polygon id="XMLID_70_" class="st0" points="89.92,126.53 116.57,156.41 163.28,167.49 152.06,187.13 116.43,176.75 147.57,194.7 
		136.63,213.64 63.82,171.56 74.77,152.62 103.1,169.03 79.68,144.2 	"/>
	
		<rect id="XMLID_71_" x="136.55" y="87.09" transform="matrix(0.7525 -0.6585 0.6585 0.7525 -48.5203 129.0724)" class="st0" width="21.88" height="84.02"/>
	<path id="XMLID_74_" class="st0" d="M155,70.98l20.2-8.7c5.47-2.38,9.82-3.79,13.19-4.21c3.37-0.42,6.03-0.14,8.28,0.84
		c2.24,0.98,4.07,2.52,5.47,4.63c1.54,2.1,3.37,5.47,5.33,10.38l2.95,6.73c2.1,4.91,3.09,8.7,3.09,11.5c0,2.67-1.12,5.19-3.37,7.57
		s-5.47,4.49-9.82,6.45l-5.33,2.38l13.33,31l-20.06,8.7L155,70.98z M180.81,75.61l8.42,19.64c0.56-0.28,1.12-0.42,1.54-0.56
		c1.82-0.84,2.95-1.82,3.23-2.95c0.28-1.26-0.14-3.23-1.4-6.17l-2.67-6.31c-1.12-2.67-2.24-4.21-3.51-4.63
		C185.3,74.2,183.34,74.49,180.81,75.61z"/>
	<polygon id="XMLID_75_" class="st0" points="253.76,45.03 257.26,112.22 270.45,111.52 271.43,128.35 236.22,130.17 232.01,46.15 	
		"/>
	<polygon id="XMLID_76_" class="st0" points="314.07,52.32 295.98,134.52 274.66,129.75 292.75,47.69 	"/>
	<polygon id="XMLID_77_" class="st0" points="388.84,88.93 344.79,160.47 328.52,150.51 338.9,111.94 318.84,144.48 303.27,134.94 
		347.32,63.4 362.89,72.94 353.49,111.52 373.27,79.4 	"/>
	<path id="XMLID_78_" class="st0" d="M422.08,178.99l-11.92-18.38l6.45-4.21c4.07-2.67,6.45-4.35,7.29-5.47
		c0.84-0.98,0.7-2.1-0.14-3.51c-0.7-1.12-1.68-1.68-2.81-1.4c-1.12,0.14-3.51,1.4-7.15,3.79l-33.95,21.88
		c-3.23,2.1-5.19,3.65-5.89,4.63c-0.7,1.12-0.7,2.24,0.14,3.37c0.84,1.4,1.96,1.82,3.51,1.68c1.4-0.28,3.79-1.4,7.15-3.51l8.42-5.47
		l-2.38-3.65l10.8-6.87l13.89,21.46l-37.87,24.55l-7.43-11.5l3.93-4.91c-2.95,0.14-5.61-0.42-8-1.54c-2.38-1.26-4.35-3.09-6.03-5.75
		c-1.96-3.09-3.09-6.45-3.37-10.1c-0.28-3.65,0.28-6.87,1.54-9.68c1.26-2.81,3.09-5.19,5.33-7.15c2.24-1.96,5.75-4.49,10.52-7.57
		l21.04-13.61c6.73-4.35,11.92-7.15,15.43-8.42c3.51-1.26,7.72-0.98,12.48,0.84c4.77,1.82,8.98,5.47,12.48,10.94
		c3.51,5.33,5.19,10.52,5.33,15.57c0.14,4.91-0.98,8.98-3.37,12.06c-2.38,3.09-6.45,6.45-12.2,10.1L422.08,178.99L422.08,178.99z"/>
	<polygon id="XMLID_79_" class="st0" points="427.41,384.07 400.48,354.61 353.49,344.09 364.57,324.45 400.34,334.27 368.78,316.6 
		379.44,297.52 452.94,338.62 442.28,357.7 413.67,341.71 437.51,366.26 	"/>
	
		<rect id="XMLID_80_" x="356.96" y="342.24" transform="matrix(0.754 -0.6569 0.6569 0.754 -161.9064 336.2)" class="st0" width="21.88" height="84.03"/>
	<path id="XMLID_83_" class="st0" d="M361.77,437.23l-19.36,9.96l-14.87-29.18l-5.19,2.67c-4.21,2.24-8,3.37-11.22,3.65
		s-5.75-0.42-7.86-2.1c-2.1-1.68-4.21-4.77-6.59-9.4l-3.23-6.31c-2.24-4.63-3.65-8-4.35-10.52c-0.56-2.38-0.56-4.77,0.14-7.01
		c0.7-2.24,2.24-4.49,4.63-6.87c2.38-2.24,6.31-4.77,11.64-7.43l19.5-10.1L361.77,437.23z M307.62,390.66
		c-0.42,1.12,0,2.95,1.26,5.47l2.95,6.03c1.4,2.67,2.52,4.35,3.65,4.77c1.12,0.42,2.52,0.28,4.35-0.7c0.42-0.14,0.84-0.42,1.4-0.84
		l-9.26-18.52C309.58,388.28,308.04,389.4,307.62,390.66z"/>
	<polygon id="XMLID_84_" class="st0" points="275.92,383.93 274.8,467.95 239.59,467.53 239.87,450.7 253.19,450.84 254.04,383.65 	
		"/>
	
		<rect id="XMLID_85_" x="170.51" y="408.78" transform="matrix(0.2672 -0.9636 0.9636 0.2672 -248.7216 512.3578)" class="st0" width="84.02" height="21.88"/>
	<polygon id="XMLID_86_" class="st0" points="112.92,407.36 162.02,339.04 177.59,350.26 164.54,388 186.84,356.86 201.57,367.52 
		152.62,435.83 137.75,425.17 149.95,387.3 127.79,418.02 	"/>
	<path id="XMLID_87_" class="st0" d="M115.02,305.94c6.17-2.95,11.22-4.49,15.15-4.91c3.79-0.42,7.86,0.84,11.92,3.51
		c4.21,2.67,7.57,7.01,10.38,12.76c2.81,5.89,3.65,11.36,2.67,16.27c-0.98,5.05-2.95,8.7-5.89,10.94c-2.95,2.38-8,5.19-15.29,8.56
		l-22.58,10.52c-5.19,2.38-9.26,4.07-12.06,4.91c-2.81,0.84-5.75,1.12-8.84,0.7s-6.17-1.68-9.12-3.79c-2.95-2.1-5.19-4.91-6.73-8.28
		c-1.26-2.81-1.82-5.47-1.68-8.14c0.28-2.67,1.12-5.19,2.95-7.57l-6.31,0.7l-5.75-12.48l40.82-19.08l10.8,23.15l-11.64,5.47
		l-1.82-3.93L93,339.46c-3.51,1.68-5.75,3.09-6.73,4.07c-0.98,1.12-1.12,2.38-0.42,3.79c0.56,1.26,1.54,1.96,2.81,1.82
		c1.26-0.14,3.65-0.84,7.01-2.52l36.61-17.11c3.93-1.82,6.17-3.23,6.87-4.07c0.7-0.84,0.84-1.96,0.28-3.09
		c-0.7-1.4-1.68-2.1-2.95-1.96c-1.26,0.14-4.07,1.26-8.42,3.23l-6.87,3.23l-9.26-19.78L115.02,305.94L115.02,305.94z"/>
</g>
</svg>
